<svg width="16" height="14" viewBox="0 0 16 14" fill="none" xmlns="http://www.w3.org/2000/svg">
<g clip-path="url(#clip0_236_3)">
<path d="M8.36316 1.10468C8.20968 1.1155 8.03437 1.12177 7.84033 1.11994C7.99485 1.10794 8.16809 1.10404 8.36316 1.10468Z" fill="#351C6C"/>
<path d="M8.54324 1.14047C8.53585 1.14577 8.5223 1.13906 8.50098 1.1229C8.50949 1.11242 8.52412 1.11742 8.54324 1.14047Z" fill="#351C6C"/>
<path d="M8.55076 1.15026C8.77952 1.22349 9.00646 1.30358 9.23786 1.36697C9.3496 1.39758 9.46973 1.39677 9.62152 1.40855C9.73508 1.39614 9.81319 1.38536 9.8913 1.37458C9.98008 1.37359 10.0689 1.3726 10.1928 1.38531C10.4616 1.47372 10.6951 1.54844 10.9287 1.62315C10.9287 1.62315 10.9257 1.62416 10.935 1.63808C11.0412 1.71343 11.138 1.77486 11.2348 1.83629C11.2348 1.83629 11.2367 1.83541 11.2424 1.85209C11.3314 1.94442 11.4147 2.02007 11.498 2.09571C11.498 2.09571 11.4958 2.09761 11.4971 2.11384C11.5298 2.19012 11.5611 2.25018 11.5952 2.32982C11.6536 2.43165 11.6944 2.56589 11.7674 2.58723C12.1018 2.68495 12.4452 2.75107 12.7853 2.82853C13.02 3.03318 13.2546 3.23782 13.5062 3.46851C13.6603 3.8161 13.7974 4.13765 13.9345 4.4592C13.9522 4.56363 13.9699 4.66807 13.9849 4.81456C13.9234 5.27407 14.0103 5.42874 14.4361 5.665C14.4487 5.69358 14.4613 5.72216 14.4894 5.77886C14.7306 6.26183 14.9179 6.72521 14.8624 7.25278C14.8389 7.47705 14.8319 7.70311 14.8174 7.92836C14.6613 8.21477 14.497 8.49705 14.353 8.78955C14.2924 8.91249 14.2747 9.05704 14.2222 9.22487C14.1843 9.32229 14.1579 9.38552 14.1398 9.4511C14.0479 9.78402 13.9579 10.1174 13.868 10.4509C13.8367 10.5669 13.8077 10.6835 13.7777 10.7998C13.5838 10.991 13.4006 11.1952 13.1931 11.3698C12.9642 11.5625 12.713 11.728 12.4378 11.9046C12.0228 11.9846 11.6389 12.0548 11.2623 12.1538C11.1716 12.1776 11.1053 12.2966 11.0153 12.3844C10.9915 12.487 10.9555 12.5823 10.9732 12.666C11.071 13.1297 11.1818 13.5906 11.2881 14.0525C11.0109 14.0525 10.7336 14.0525 10.4321 14.0525C10.0669 13.6791 9.72598 13.3057 9.38297 12.9026C9.25255 12.5737 9.03119 12.3606 8.73555 12.2532C8.4159 12.137 8.08187 12.0614 7.75411 11.9681C7.59094 11.7902 7.3239 11.628 7.29461 11.4298C7.26682 11.2417 7.47823 11.0096 7.6049 10.8102C7.65022 10.7388 7.75534 10.7064 7.87037 10.6474C8.08515 10.592 8.26273 10.5453 8.44031 10.4987C8.63156 10.4966 8.82281 10.4945 9.05414 10.4998C9.18305 10.4795 9.27189 10.4518 9.36073 10.424C9.61255 10.1894 9.62235 10.1281 9.42765 9.92936C9.42114 9.88975 9.42207 9.8804 9.40448 9.86003C8.85896 9.83771 8.33197 9.82381 7.80492 9.81972C7.75889 9.81936 7.71238 9.88344 7.6661 9.91758C7.51506 10.0976 7.36402 10.2777 7.18477 10.4764C7.08297 10.554 7.00325 10.6066 6.93681 10.6729C6.62072 10.9881 6.23413 11.1447 5.79972 11.1617C5.4047 11.1771 5.00834 11.1544 4.61266 11.1581C4.52458 11.159 4.43686 11.2003 4.34898 11.223C3.97432 11.1728 3.5941 11.1397 3.27056 10.8438C3.23146 10.7898 3.21906 10.7537 3.19414 10.7331C2.75116 10.3672 2.47961 9.90735 2.42338 9.32349C2.41837 9.27145 2.36529 9.22415 2.33453 9.17465C2.3982 8.90337 2.36176 8.66196 2.13129 8.4468C2.00785 8.03966 1.88504 7.66397 1.76221 7.26425C1.8223 6.87542 1.88382 6.51085 1.94133 6.14563C1.95281 6.07271 1.94893 5.99731 1.95214 5.92305C2.17094 5.49586 2.51548 5.18797 2.91304 4.88041C3.00994 4.49327 3.08425 4.1347 3.15855 3.77613C3.15855 3.77613 3.15809 3.77451 3.17268 3.76457C3.24613 3.65548 3.30498 3.55633 3.36382 3.45718C3.36382 3.45718 3.36477 3.46027 3.37806 3.45305C3.41817 3.4021 3.44499 3.35837 3.4718 3.31465C3.4718 3.31465 3.47454 3.30618 3.4856 3.29738C3.50588 3.27912 3.51402 3.26878 3.52109 3.25758C3.81598 3.09704 4.11087 2.93649 4.44155 2.76865C4.5211 2.69739 4.56486 2.63342 4.60861 2.56945C4.60861 2.56945 4.60854 2.56934 4.62244 2.55951C4.67008 2.47901 4.70382 2.40833 4.73756 2.33765C4.73756 2.33765 4.74225 2.34033 4.75729 2.33493C4.88966 2.19887 5.00699 2.06821 5.12431 1.93756C5.12431 1.93756 5.12294 1.93931 5.1409 1.93439C5.45777 1.81002 5.75669 1.69057 6.07884 1.57141C6.29389 1.53947 6.48571 1.50724 6.67754 1.47501C6.70017 1.47128 6.7228 1.46755 6.77733 1.46988C6.95611 1.42197 7.10298 1.36799 7.26938 1.31135C7.43136 1.24311 7.57382 1.17753 7.71628 1.11195C7.73976 1.11126 7.76324 1.11057 7.82305 1.11897C8.03468 1.1218 8.21 1.11552 8.38531 1.10925C8.40916 1.10958 8.43301 1.1099 8.48349 1.12017C8.52254 1.13915 8.53609 1.14587 8.55076 1.15026ZM3.10401 9.12503C3.10401 9.12503 3.10712 9.1238 3.10973 9.12207C3.10973 9.12207 3.10675 9.12343 3.10401 9.12503ZM3.39356 10.02C3.40742 10.0315 3.42127 10.0431 3.42816 10.0504C3.42816 10.0504 3.43236 10.0434 3.44918 10.0691C3.47443 10.0852 3.49968 10.1013 3.5219 10.1189C3.5219 10.1189 3.52337 10.1158 3.53794 10.1457C3.58374 10.1723 3.62954 10.1988 3.67712 10.2245C3.67712 10.2245 3.67653 10.2264 3.69977 10.2441C3.72677 10.255 3.75376 10.2658 3.77993 10.2773C3.77993 10.2773 3.78032 10.2762 3.80567 10.294C3.83463 10.3044 3.86359 10.3148 3.92453 10.3294C3.94576 10.3329 3.96699 10.3364 4.00628 10.3544C4.01844 10.3641 4.03143 10.3725 4.04168 10.3781C4.04168 10.3781 4.0431 10.3745 4.06103 10.4054C4.18376 10.5317 4.29485 10.4868 4.41766 10.3556C4.42665 10.3267 4.43564 10.2978 4.45099 10.2365C4.45213 10.2146 4.45326 10.1926 4.45481 10.1455C4.45481 10.1455 4.45348 10.1204 4.45315 10.1198C4.45315 10.1198 4.45375 10.1201 4.47554 10.1107C4.48282 10.0782 4.4901 10.0458 4.50216 9.98921C4.50216 9.98921 4.50421 9.96473 4.50611 9.93778C4.50593 9.92878 4.50574 9.91977 4.50496 9.91015C4.50496 9.91015 4.50571 9.91058 4.53554 9.89112C4.72259 9.83239 4.90964 9.77365 5.1047 9.71503C5.1047 9.71503 5.10858 9.72212 5.10624 9.76048C5.1538 9.82848 5.20136 9.89648 5.24492 10.0011C5.23823 10.0926 5.23155 10.1842 5.19901 10.2743C5.17553 10.3462 5.15205 10.4182 5.12857 10.4902C5.1817 10.4995 5.23482 10.5087 5.32408 10.5317C5.36212 10.5381 5.40016 10.5445 5.46586 10.5755C5.81221 10.7034 6.11485 10.5882 6.39527 10.3905C6.44639 10.3545 6.46003 10.2639 6.49816 10.1945C6.49816 10.1945 6.50223 10.2017 6.53781 10.1957C6.62699 10.0741 6.71617 9.95257 6.8119 9.83365C6.8119 9.83365 6.80928 9.84027 6.84012 9.82422C6.87288 9.76583 6.90564 9.70743 6.94441 9.62318C6.9454 9.61439 6.94639 9.60559 6.97923 9.5857C7.05245 9.5047 7.12568 9.4237 7.22685 9.31912C7.33462 9.26992 7.44239 9.22073 7.58363 9.17465C7.59483 9.17481 7.60604 9.17496 7.66509 9.17528C8.21479 9.17413 8.76448 9.17298 9.356 9.17041C9.81681 9.12503 10.1479 8.85569 10.4413 8.5296C10.4413 8.5296 10.4364 8.52762 10.4716 8.51981C10.5482 8.4336 10.6248 8.34738 10.7015 8.26803C10.7015 8.26803 10.6947 8.26804 10.7317 8.25811C10.8937 8.17753 10.9403 8.05088 10.8899 7.87692C10.8592 7.77097 10.8421 7.66099 10.8071 7.51703C10.8546 7.39295 10.8691 7.20759 10.9572 7.15881C11.0973 7.08133 11.275 7.11545 11.3729 7.30113C11.394 7.34116 11.4646 7.35443 11.5344 7.41349C11.5794 7.57327 11.5169 7.78956 11.7922 7.81456C12.1878 7.85049 12.2676 7.795 12.3276 7.37774C12.3372 7.3106 12.363 7.24585 12.399 7.16663C12.4105 7.15719 12.4203 7.1462 12.4275 7.13106C12.4275 7.13106 12.4297 7.13276 12.458 7.11547C12.4808 7.06672 12.5036 7.01797 12.5309 6.97366C12.5309 6.97366 12.5262 6.96948 12.5682 6.96355C12.7612 6.96707 12.9542 6.97059 13.1688 7.00657C13.2019 7.11678 13.2351 7.22698 13.2426 7.36365C13.0227 7.72246 12.8029 8.08127 12.5636 8.44521C12.5636 8.44521 12.5436 8.4458 12.5023 8.44134C12.4608 8.44226 12.4192 8.44318 12.331 8.44371C12.1064 8.47596 11.8819 8.50822 11.6162 8.54274C11.575 8.54159 11.5338 8.54044 11.482 8.52293C11.4525 8.53921 11.423 8.5555 11.3833 8.58445C11.3755 8.59219 11.3666 8.59821 11.3195 8.61092C11.2241 8.71623 11.1287 8.82154 11.0388 8.95394C11.0542 8.97588 11.0696 8.99782 11.081 9.01795C11.081 9.01795 11.0828 9.01393 11.0834 9.03876C11.085 9.05509 11.0867 9.07141 11.1209 9.1168C11.1595 9.13393 11.198 9.16584 11.2367 9.16596C11.7147 9.16745 12.1947 9.19031 12.6699 9.15253C12.9517 9.13013 13.2407 9.03827 13.4407 8.74059C13.6573 8.44944 13.8738 8.15828 14.1225 7.85134C14.4204 7.4516 14.3671 7.03295 14.1841 6.56884C14.1142 6.34734 14.046 6.12426 13.733 6.07086C13.4344 6.00692 13.1357 5.94298 12.8033 5.86006C12.6805 5.82989 12.5591 5.78728 12.4345 5.77282C12.2905 5.7561 12.1319 5.79769 12.0017 5.75098C11.8957 5.71295 11.7688 5.59378 11.7466 5.48969C11.7132 5.3336 11.8224 5.21232 11.9998 5.19808C12.0765 5.19192 12.1541 5.18899 12.2309 5.19272C12.5129 5.20643 12.7946 5.23352 13.0765 5.23441C13.1872 5.23476 13.3674 5.25641 13.3068 4.99742C13.306 4.97491 13.3053 4.95241 13.3296 4.90742C13.427 4.60472 13.1744 4.02769 12.8446 3.80812C12.8446 3.80812 12.8372 3.79035 12.8168 3.76804C12.8007 3.75608 12.7845 3.74412 12.7393 3.71481C12.6403 3.64652 12.5414 3.57819 12.4423 3.50994C12.1405 3.30193 12.0307 3.33486 11.8429 3.64013C11.741 3.80581 11.5906 3.91548 11.3684 3.87227C11.1355 3.82697 11.0734 3.67507 11.0804 3.46415C11.0836 3.36824 11.0834 3.27222 11.0859 3.17629C11.1011 2.59938 10.3443 1.92612 9.81253 2.25362C9.83723 2.47898 9.87821 2.70757 9.88395 2.93707C9.89445 3.35595 9.88407 3.77536 9.8546 4.21727C9.83941 4.23809 9.81439 4.25721 9.81058 4.27998C9.77928 4.46669 9.69944 4.58879 9.48562 4.55618C9.25396 4.52084 9.28683 4.33772 9.26709 4.17615C9.24218 3.97231 9.2037 3.77018 9.16325 3.52314C9.14613 3.38663 9.12469 3.25051 9.11272 3.11354C9.07774 2.71328 9.0772 2.30068 8.69013 2.0004C8.49302 1.79765 8.09023 1.73018 7.87824 1.88309C7.8414 1.90967 7.86638 2.02413 7.88103 2.12917C8.10445 2.29198 8.33033 2.44795 8.36449 2.76418C8.39358 3.03339 8.19732 3.39387 7.97468 3.44798C7.71247 3.51171 7.53083 3.39724 7.41746 3.0529C7.32338 2.76716 7.23866 2.48792 6.91446 2.33471C6.65026 2.08394 6.18605 2.09467 5.76427 2.3694C5.46139 2.49402 5.2705 2.72978 5.13951 3.02204C5.08701 3.13917 5.08842 3.24396 5.26516 3.31067C5.29658 3.35991 5.32799 3.40914 5.35285 3.4701C5.36465 3.48092 5.37645 3.49173 5.39426 3.50481C5.39426 3.50481 5.39683 3.51077 5.39198 3.55702C5.38812 3.64396 5.39545 3.73341 5.37719 3.81714C5.3594 3.89871 5.33229 3.98935 5.27992 4.05004C5.08926 4.271 4.79331 4.19766 4.6605 3.91622C4.61415 3.81801 4.63705 3.59157 4.37701 3.73586C4.3332 3.74746 4.28939 3.75906 4.22975 3.74674C4.14878 3.76594 4.04629 3.7599 3.99054 3.80866C3.73484 4.03231 3.60034 4.32436 3.58384 4.70262C3.85726 4.79389 4.13068 4.88516 4.40631 4.97623C4.40631 4.97623 4.40635 4.97848 4.40885 5.02061C4.48204 5.49021 4.42612 5.55622 3.9537 5.55745C3.78989 5.55787 3.6249 5.54618 3.46276 5.56293C3.3779 5.57169 3.29805 5.63008 3.18638 5.67379C2.5941 5.76802 2.25564 6.71658 2.43362 7.27805C2.50601 7.62409 2.58882 7.9636 2.95137 8.12736C2.95137 8.12736 2.9524 8.12594 2.95996 8.1486C2.99127 8.16089 3.02258 8.17317 3.08732 8.19238C3.12948 8.20632 3.17165 8.22026 3.21371 8.26298C3.29105 8.30345 3.36741 8.37648 3.44592 8.37893C3.8492 8.39149 4.25317 8.39171 4.65653 8.38126C4.7282 8.37941 4.79809 8.30686 4.91542 8.27237C5.19551 8.33226 5.47104 8.21686 5.75989 8.27008C5.99278 8.313 6.15556 8.40312 6.20863 8.61637C6.26521 8.84371 6.08216 8.94895 5.87454 9.01222C5.84273 9.00012 5.81069 8.97688 5.77916 8.97757C5.05471 8.99333 4.3303 9.01063 3.606 9.03202C3.5586 9.03342 3.5122 9.06977 3.4554 9.10781C3.44509 9.12595 3.43478 9.14408 3.38269 9.17175C3.24395 9.17849 3.08534 9.15913 3.09438 9.41482C3.04943 9.63441 3.13997 9.79149 3.31434 9.91038C3.31434 9.91038 3.31546 9.90784 3.32681 9.9358C3.3472 9.95742 3.36758 9.97904 3.38143 10.0044C3.38143 10.0044 3.37775 9.99777 3.39356 10.02ZM12.4583 7.30884L12.4473 7.31697C12.4473 7.31697 12.4599 7.31448 12.4583 7.30884Z" fill="#A158CA"/>
<path d="M11.3051 14.0525C11.1815 13.5906 11.0706 13.1297 10.9729 12.6659C10.9552 12.5822 10.9912 12.487 11.0331 12.3869C11.076 12.3785 11.0881 12.3802 11.1002 12.3818C11.1623 12.7349 11.2234 13.0881 11.2867 13.441C11.3214 13.6343 11.3596 13.827 11.3938 14.0362C11.3684 14.0525 11.3453 14.0525 11.3051 14.0525Z" fill="#341B68"/>
<path d="M4.36084 11.2377C4.4368 11.2003 4.52451 11.1589 4.6126 11.1581C5.00828 11.1543 5.40463 11.1771 5.79965 11.1616C6.23407 11.1446 6.62066 10.9881 6.93674 10.6728C7.00319 10.6066 7.08291 10.5539 7.17307 10.4899C7.09954 10.7963 6.84049 10.9424 6.59059 11.0852C6.46149 11.1589 6.30381 11.1813 6.11433 11.2227C5.64928 11.2203 5.22896 11.2222 4.80863 11.2242C4.66334 11.2336 4.51805 11.243 4.36084 11.2377Z" fill="#3A1E6A"/>
<path d="M14.8329 7.91701C14.832 7.70308 14.839 7.47701 14.8625 7.25274C14.918 6.72518 14.7307 6.26179 14.502 5.78821C14.6463 6.04487 14.8332 6.30659 14.9317 6.59888C15.0781 7.0334 15.0343 7.48028 14.8329 7.91701Z" fill="#391F6B"/>
<path d="M7.75635 11.9861C8.08161 12.0613 8.41565 12.1369 8.7353 12.253C9.03093 12.3605 9.2523 12.5736 9.37534 12.8866C9.22276 12.7702 9.09004 12.6146 8.92409 12.5169C8.76414 12.4228 8.57348 12.3708 8.38978 12.3324C8.14551 12.2813 7.90745 12.2362 7.75635 11.9861Z" fill="#351C6C"/>
<path d="M2.33057 9.1936C2.36506 9.22409 2.41814 9.27138 2.42315 9.32343C2.47938 9.90728 2.75093 10.3671 3.19392 10.733C3.21883 10.7536 3.23123 10.7897 3.25572 10.8348C3.07347 10.7009 2.8601 10.5734 2.70183 10.3955C2.40781 10.0652 2.34944 9.64067 2.33057 9.1936Z" fill="#3D236E"/>
<path d="M13.7949 10.7956C13.8075 10.6834 13.8365 10.5668 13.8678 10.4508C13.9577 10.1173 14.0477 9.78392 14.1396 9.451C14.1577 9.38542 14.1841 9.32219 14.2195 9.24353C14.191 9.55115 14.1754 9.87954 14.0992 10.1928C14.048 10.4035 13.911 10.5927 13.7949 10.7956Z" fill="#341B68"/>
<path d="M11.115 12.3723C11.0883 12.3802 11.0762 12.3785 11.0459 12.3743C11.1052 12.2965 11.1715 12.1775 11.2621 12.1537C11.6387 12.0548 12.0227 11.9845 12.4199 11.9088C12.1942 12.0141 11.9562 12.1246 11.71 12.2112C11.5219 12.2774 11.3235 12.3134 11.115 12.3723Z" fill="#371C6B"/>
<path d="M3.14226 3.78467C3.0841 4.13469 3.00979 4.49326 2.92071 4.86432C2.74255 4.46628 2.89246 4.12102 3.14226 3.78467Z" fill="#3A2272"/>
<path d="M1.76224 7.2882C1.88504 7.66389 2.00785 8.03958 2.12522 8.42957C1.98992 8.16567 1.85409 7.89008 1.73366 7.60776C1.69503 7.51722 1.69708 7.40888 1.70456 7.29671C1.73982 7.28588 1.75103 7.28704 1.76224 7.2882Z" fill="#3B2372"/>
<path d="M12.7778 2.81197C12.4449 2.75099 12.1015 2.68487 11.7672 2.58715C11.6942 2.56581 11.6534 2.43157 11.6108 2.32808C11.6345 2.30563 11.645 2.30443 11.6556 2.30322C11.7456 2.43504 11.8505 2.50265 12.0253 2.53198C12.2811 2.57491 12.5228 2.70343 12.7778 2.81197Z" fill="#351C6C"/>
<path d="M13.947 4.44677C13.7972 4.13759 13.6601 3.81604 13.5229 3.47388C13.7183 3.75754 13.9633 4.03921 13.947 4.44677Z" fill="#321866"/>
<path d="M1.76225 7.26416C1.75106 7.28703 1.73985 7.28588 1.71188 7.28264C1.66409 6.93923 1.63468 6.59864 1.78645 6.27356C1.83801 6.16311 1.87974 6.04795 1.93907 5.92896C1.94898 5.99722 1.95285 6.07262 1.94137 6.14554C1.88386 6.51076 1.82234 6.87533 1.76225 7.26416Z" fill="#351C6C"/>
<path d="M14.438 5.64831C14.01 5.42872 13.9232 5.27405 13.9843 4.83508C14.0825 5.1177 14.1752 5.42361 14.438 5.64831Z" fill="#3D236E"/>
<path d="M7.67871 9.91457C7.71234 9.88342 7.75885 9.81935 7.80487 9.8197C8.33193 9.8238 8.85891 9.8377 9.38041 9.85656C9.02381 9.86238 8.6726 9.85499 8.32162 9.86101C8.11975 9.86448 7.91824 9.88966 7.71657 9.90506C7.70817 9.90723 7.69977 9.90939 7.67871 9.91457Z" fill="#2B1169"/>
<path d="M6.05539 1.57102C5.75647 1.69047 5.45755 1.80992 5.14062 1.93315C5.34568 1.7953 5.56782 1.65214 5.79263 1.51339C5.8344 1.48761 5.88686 1.4796 5.9555 1.47522C6.00287 1.51504 6.02913 1.54303 6.05539 1.57102Z" fill="#311969"/>
<path d="M7.74023 9.90919C7.91793 9.88966 8.11944 9.86448 8.32132 9.86102C8.6723 9.85499 9.0235 9.86238 9.39863 9.8676C9.42172 9.8804 9.42079 9.88974 9.42095 9.91313C8.86944 9.92256 8.31682 9.91794 7.74023 9.90919Z" fill="#6E668A"/>
<path d="M4.8208 11.2427C5.22895 11.2223 5.64928 11.2203 6.09425 11.2216C5.89953 11.2555 5.68073 11.3048 5.46066 11.3115C5.25213 11.3179 5.04226 11.2797 4.8208 11.2427Z" fill="#70608F"/>
<path d="M6.0788 1.57138C6.02931 1.54309 6.00305 1.5151 5.96826 1.47557C6.18729 1.46453 6.41484 1.46503 6.65995 1.47026C6.48568 1.50721 6.29385 1.53944 6.0788 1.57138Z" fill="#3B2372"/>
<path d="M10.9177 1.60806C10.695 1.54844 10.4614 1.47372 10.2148 1.3866C10.4369 1.44711 10.6719 1.52004 10.9177 1.60806Z" fill="#311969"/>
<path d="M8.41787 10.4946C8.26258 10.5453 8.085 10.5919 7.88623 10.6399C7.99704 10.4292 8.20376 10.4867 8.41787 10.4946Z" fill="#391F6B"/>
<path d="M5.10507 1.93726C5.00689 2.06821 4.88957 2.19886 4.75586 2.33728C4.76533 2.13099 4.87789 1.99241 5.10507 1.93726Z" fill="#391F6F"/>
<path d="M7.24974 1.3139C7.10287 1.36788 6.956 1.42186 6.79443 1.46861C6.92369 1.39426 7.06765 1.32714 7.23063 1.27466C7.24965 1.2893 7.24974 1.3139 7.24974 1.3139Z" fill="#3B2372"/>
<path d="M7.26927 1.3113C7.24974 1.31396 7.24965 1.28936 7.24951 1.27706C7.3919 1.21001 7.53442 1.15526 7.69656 1.1062C7.57372 1.17748 7.43126 1.24306 7.26927 1.3113Z" fill="#351C6C"/>
<path d="M9.3443 10.4233C9.27155 10.4517 9.1827 10.4794 9.07764 10.4984C9.15034 10.4674 9.23928 10.4451 9.3443 10.4233Z" fill="#391F6B"/>
<path d="M3.35074 3.45935C3.30482 3.55622 3.24597 3.65537 3.17334 3.76466C3.21898 3.6704 3.2784 3.56602 3.35074 3.45935Z" fill="#3A2272"/>
<path d="M11.4971 2.07722C11.4146 2.02003 11.3313 1.94438 11.2417 1.85291C11.3223 1.91098 11.4093 1.98487 11.4971 2.07722Z" fill="#311969"/>
<path d="M11.2291 1.81924C11.1378 1.77479 11.041 1.71336 10.9355 1.6366C11.0258 1.68159 11.1246 1.74192 11.2291 1.81924Z" fill="#311969"/>
<path d="M4.59064 2.57129C4.56453 2.63342 4.52078 2.69739 4.45996 2.76559C4.48627 2.70426 4.52964 2.63869 4.59064 2.57129Z" fill="#391F6F"/>
<path d="M11.6515 2.28757C11.6453 2.30449 11.6347 2.30569 11.6083 2.30855C11.5611 2.25016 11.5298 2.1901 11.4976 2.11243C11.5468 2.15382 11.597 2.21284 11.6515 2.28757Z" fill="#311969"/>
<path d="M9.87128 1.37012C9.81291 1.38535 9.7348 1.39613 9.63965 1.40441C9.69892 1.38983 9.77523 1.37775 9.87128 1.37012Z" fill="#311969"/>
<path d="M4.72266 2.34509C4.70387 2.40823 4.67013 2.47891 4.62256 2.55944C4.64173 2.49708 4.67472 2.42485 4.72266 2.34509Z" fill="#391F6F"/>
<path d="M3.4565 3.31958C3.4448 3.35825 3.41798 3.40197 3.37646 3.45217C3.38831 3.41397 3.41485 3.3693 3.4565 3.31958Z" fill="#3A2272"/>
<path d="M3.51089 3.26074C3.51409 3.26876 3.50594 3.27909 3.48936 3.29493C3.48184 3.2856 3.48805 3.27314 3.51089 3.26074Z" fill="#3A2272"/>
<path d="M12.82 5.86944C12.8046 5.90456 12.7716 5.95314 12.7401 5.95217C12.5015 5.94478 12.2609 5.9438 12.0255 5.90934C11.7573 5.87007 11.5922 5.65837 11.6167 5.4312C11.6463 5.15572 11.7621 5.06928 12.1054 5.08499C12.3536 5.09635 12.6013 5.13565 12.8491 5.13379C12.9874 5.13276 13.1253 5.07312 13.2829 5.0354C13.3672 5.25631 13.1871 5.23465 13.0764 5.2343C12.7945 5.23341 12.5127 5.20632 12.2308 5.19261C12.154 5.18888 12.0764 5.19182 11.9997 5.19798C11.8223 5.21222 11.713 5.3335 11.7464 5.48958C11.7686 5.59367 11.8955 5.71284 12.0016 5.75087C12.1318 5.79758 12.2903 5.75599 12.4344 5.77271C12.559 5.78717 12.6803 5.82979 12.82 5.86944Z" fill="#391F6F"/>
<path d="M4.40749 4.99951C4.61384 5.07406 4.62827 5.23609 4.55828 5.42837C4.48587 5.62732 4.35117 5.72962 4.13657 5.72632C3.8604 5.72208 3.58411 5.72573 3.27833 5.71379C3.23831 5.68925 3.22732 5.67739 3.21582 5.66602C3.29793 5.63004 3.37779 5.57166 3.46265 5.56289C3.62479 5.54615 3.78978 5.55784 3.95358 5.55742C4.42601 5.55619 4.48192 5.49018 4.40749 4.99951Z" fill="#3F2575"/>
<path d="M9.86836 4.20591C9.89127 4.37425 9.95239 4.59271 9.72797 4.66687C9.59717 4.71008 9.38889 4.71497 9.30095 4.63754C9.1925 4.54205 9.14009 4.3466 9.12338 4.18788C9.1033 3.99707 9.14628 3.79946 9.16645 3.58606C9.20356 3.77018 9.24205 3.97231 9.26695 4.17615C9.28669 4.33772 9.25382 4.52084 9.48548 4.55618C9.69931 4.58879 9.77914 4.46669 9.81044 4.27998C9.81425 4.25721 9.83927 4.23808 9.86836 4.20591Z" fill="#422171"/>
<path d="M3.20105 5.66992C3.22733 5.67742 3.23832 5.68928 3.25658 5.71103C2.60883 6.0561 2.44137 6.57808 2.51371 7.21394C2.47348 7.23562 2.45224 7.23612 2.43099 7.23662C2.25554 6.71658 2.59399 5.76802 3.20105 5.66992Z" fill="#422574"/>
<path d="M5.39422 3.53381C5.56444 3.80583 5.50601 4.11776 5.2579 4.25139C4.96744 4.40782 4.67624 4.2838 4.54241 3.95024C4.51378 3.87891 4.47174 3.81309 4.42236 3.73414C4.63687 3.59149 4.61397 3.81793 4.66031 3.91614C4.79313 4.19758 5.08908 4.27093 5.27974 4.04996C5.3321 3.98927 5.35921 3.89863 5.377 3.81706C5.39526 3.73333 5.38793 3.64388 5.39422 3.53381Z" fill="#351A6F"/>
<path d="M5.89206 9.02493C5.83674 9.04953 5.76388 9.06141 5.64717 9.07131C4.89066 9.07617 4.178 9.08301 3.46533 9.08985C3.51219 9.06975 3.55859 9.0334 3.60599 9.032C4.33029 9.01062 5.05471 8.99332 5.77915 8.97755C5.81068 8.97687 5.84272 9.00011 5.89206 9.02493Z" fill="#3A2272"/>
<path d="M12.6773 9.08236C12.9114 8.97776 13.1455 8.87316 13.3965 8.76538C13.2407 9.03818 12.9517 9.13004 12.6699 9.15245C12.1947 9.19023 11.7146 9.16736 11.2366 9.16587C11.198 9.16575 11.1594 9.13385 11.1279 9.1078C11.6491 9.09338 12.1632 9.08787 12.6773 9.08236Z" fill="#331A6E"/>
<path d="M3.46037 9.09877C4.17801 9.08296 4.89067 9.07612 5.62831 9.06934C5.59074 9.08815 5.52832 9.12265 5.46563 9.1232C4.96939 9.12751 4.47306 9.12198 3.97683 9.12708C3.80721 9.12882 3.63781 9.15226 3.44639 9.16397C3.43479 9.14402 3.44509 9.12588 3.46037 9.09877Z" fill="#746393"/>
<path d="M6.91992 2.35184C6.55966 2.28633 6.19676 2.2725 5.82115 2.40854C5.80053 2.38515 5.79992 2.37277 5.79932 2.3604C6.18573 2.09459 6.64994 2.08386 6.91992 2.35184Z" fill="#391E72"/>
<path d="M13.2555 7.35034C13.2686 7.70967 12.8971 8.34437 12.6021 8.44136C12.8029 8.08119 13.0228 7.72239 13.2555 7.35034Z" fill="#3B2372"/>
<path d="M4.46184 8.28209C4.59295 8.27037 4.72405 8.25865 4.86203 8.25691C4.79819 8.30678 4.72831 8.37932 4.65664 8.38118C4.25328 8.39163 3.8493 8.39141 3.44602 8.37884C3.36752 8.3764 3.29116 8.30337 3.21387 8.24851C3.27343 8.23773 3.33293 8.24135 3.42329 8.2699C3.79005 8.29059 4.12595 8.28634 4.46184 8.28209Z" fill="#391E72"/>
<path d="M8.69527 2.01768C8.42335 1.9747 8.14515 1.86969 7.86905 2.07835C7.86648 2.02411 7.8415 1.90965 7.87835 1.88308C8.09033 1.73016 8.49313 1.79763 8.69527 2.01768Z" fill="#3E2679"/>
<path d="M9.2311 9.07683C9.6011 9.10133 9.86019 8.8567 10.1503 8.68776C10.2369 8.63736 10.3215 8.58357 10.425 8.52795C10.1478 8.85563 9.81666 9.12497 9.32297 9.16283C9.26353 9.14296 9.23696 9.13061 9.21582 9.10804C9.22124 9.0978 9.2311 9.07683 9.2311 9.07683Z" fill="#391F6F"/>
<path d="M4.23763 3.75867C3.90391 3.95226 3.74221 4.25517 3.66199 4.64669C3.61896 4.66641 3.59659 4.6664 3.57422 4.66638C3.6003 4.32433 3.7348 4.03228 3.9905 3.80863C4.04625 3.75987 4.14874 3.76591 4.23763 3.75867Z" fill="#3B2372"/>
<path d="M10.7607 7.66978C10.6237 7.43479 10.6455 7.18382 10.812 7.07761C11.0453 6.92881 11.3347 7.03898 11.5101 7.36129C11.4643 7.35436 11.3937 7.34109 11.3726 7.30106C11.2747 7.11538 11.097 7.08126 10.957 7.15874C10.8688 7.20752 10.8544 7.39288 10.8042 7.5487C10.7879 7.61022 10.7743 7.64 10.7607 7.66978Z" fill="#3D236E"/>
<path d="M5.78205 2.36487C5.80034 2.37278 5.80095 2.38515 5.80232 2.41615C5.55877 2.66465 5.20646 2.8181 5.24109 3.26662C5.08852 3.24389 5.08711 3.1391 5.13961 3.02197C5.2706 2.72971 5.46149 2.49395 5.78205 2.36487Z" fill="#351A6F"/>
<path d="M13.3169 4.91866C13.268 4.52348 13.0541 4.19452 12.8525 3.84265C13.1743 4.02768 13.4269 4.60471 13.3169 4.91866Z" fill="#391F6F"/>
<path d="M5.45215 10.563C5.82275 10.5726 6.15593 10.4359 6.47596 10.2051C6.46015 10.2638 6.44652 10.3544 6.39539 10.3904C6.11497 10.5881 5.81233 10.7033 5.45215 10.563Z" fill="#3A2271"/>
<path d="M12.6563 9.08004C12.1632 9.08785 11.6491 9.09336 11.1117 9.09325C11.0867 9.07131 11.085 9.05499 11.083 9.02625C11.6003 9.03513 12.1178 9.05644 12.6563 9.08004Z" fill="#6D5F8A"/>
<path d="M14.1064 7.85913C14.1398 7.67035 14.2183 7.4754 14.2299 7.27647C14.2399 7.10394 14.174 6.92689 14.1484 6.71958C14.166 6.6607 14.1769 6.63406 14.1878 6.60742C14.3671 7.03285 14.4204 7.45149 14.1064 7.85913Z" fill="#321866"/>
<path d="M2.43213 7.25729C2.45211 7.23608 2.47335 7.23558 2.5105 7.23486C2.664 7.52107 2.80159 7.80749 2.94592 8.11023C2.58859 7.96356 2.50578 7.62405 2.43213 7.25729Z" fill="#391F6F"/>
<path d="M9.21049 9.11829C9.23706 9.13063 9.26362 9.14298 9.30215 9.16356C8.76442 9.17294 8.21473 9.17409 7.65723 9.16117C8.16978 9.13749 8.69014 9.12789 9.21049 9.11829Z" fill="#2B1169"/>
<path d="M9.21597 9.10808C8.69019 9.12792 8.16983 9.13752 7.63336 9.16112C7.60604 9.17495 7.59483 9.1748 7.56689 9.17308C7.62295 9.13552 7.69532 9.06945 7.7686 9.06839C8.23882 9.06159 8.70924 9.06905 9.20542 9.07435C9.23125 9.07688 9.22139 9.09785 9.21597 9.10808Z" fill="#726387"/>
<path d="M10.7522 7.68595C10.7745 7.64006 10.7881 7.61028 10.8102 7.56665C10.842 7.66098 10.8591 7.77096 10.8898 7.87691C10.9402 8.05087 10.8935 8.17752 10.7131 8.26307C10.7109 8.07937 10.7272 7.89071 10.7522 7.68595Z" fill="#391F6F"/>
<path d="M12.3829 8.54893C12.1521 8.5805 11.9216 8.6146 11.6904 8.64247C11.5864 8.65501 11.4809 8.65513 11.3616 8.64973C11.3502 8.62652 11.3533 8.61447 11.3563 8.60243C11.3663 8.59811 11.3753 8.59208 11.4046 8.57208C11.4482 8.55294 11.4703 8.54606 11.4924 8.53918C11.5336 8.54033 11.5747 8.54148 11.6598 8.54283C11.9302 8.54499 12.1565 8.54696 12.3829 8.54893Z" fill="#675C8C"/>
<path d="M14.1858 6.58809C14.1768 6.63408 14.1659 6.66071 14.147 6.69936C14.0216 6.51292 13.9043 6.31447 13.7778 6.10059C14.0459 6.12417 14.114 6.34725 14.1858 6.58809Z" fill="#3D236E"/>
<path d="M3.5791 4.68449C3.59668 4.6664 3.61905 4.66642 3.65821 4.66638C3.73678 4.69932 3.79584 4.73993 3.86088 4.76384C4.03455 4.82767 4.2108 4.88432 4.39509 4.96012C4.13073 4.88513 3.85731 4.79386 3.5791 4.68449Z" fill="#3F2575"/>
<path d="M12.3812 8.54807C12.1568 8.547 11.9304 8.54503 11.6807 8.54173C11.8818 8.50814 12.1064 8.47589 12.3539 8.46167C12.3769 8.50355 12.3772 8.52738 12.3774 8.55122C12.3774 8.55122 12.3792 8.54718 12.3812 8.54807Z" fill="#3F2575"/>
<path d="M4.52051 9.90075C4.58872 9.61643 4.7215 9.56456 5.08733 9.70082C4.90952 9.77355 4.72247 9.83229 4.52051 9.90075Z" fill="#351C6C"/>
<path d="M12.5469 6.9664C12.7039 6.76286 12.8821 6.75375 13.1402 6.95615C12.9539 6.97048 12.7609 6.96696 12.5469 6.9664Z" fill="#351A6F"/>
<path d="M3.10332 9.39893C3.17994 9.54545 3.24773 9.70782 3.31613 9.88949C3.14008 9.79145 3.04955 9.63436 3.10332 9.39893Z" fill="#3A2271"/>
<path d="M6.52002 10.1986C6.59383 10.0821 6.68543 9.96264 6.7912 9.83704C6.71618 9.95248 6.62699 10.074 6.52002 10.1986Z" fill="#3D236E"/>
<path d="M5.21178 10.2749C5.23925 10.3463 5.25379 10.4169 5.27806 10.5027C5.23467 10.5086 5.18154 10.4993 5.12842 10.4901C5.1519 10.4181 5.17538 10.3461 5.21178 10.2749Z" fill="#3A2271"/>
<path d="M4.05176 10.3898C4.15118 10.3466 4.25958 10.3188 4.38527 10.3011C4.40223 10.3347 4.40189 10.3581 4.40154 10.3815C4.29454 10.4867 4.18345 10.5316 4.05176 10.3898Z" fill="#3A2272"/>
<path d="M11.3378 8.60669C11.3534 8.61454 11.3503 8.62659 11.3415 8.65649C11.2609 8.7502 11.1861 8.82606 11.0843 8.91136C11.0572 8.9208 11.0332 8.92682 11.0332 8.92682C11.1286 8.82151 11.2239 8.71619 11.3378 8.60669Z" fill="#3F2575"/>
<path d="M10.4541 8.5236C10.513 8.44108 10.5895 8.35467 10.6838 8.26465C10.6249 8.34726 10.5483 8.43348 10.4541 8.5236Z" fill="#391F6F"/>
<path d="M6.96338 9.59115C7.02035 9.51594 7.09324 9.43519 7.18256 9.34851C7.12576 9.42359 7.05253 9.50459 6.96338 9.59115Z" fill="#3D236E"/>
<path d="M5.10742 9.74121C5.16222 9.79543 5.21584 9.86883 5.2592 9.95331C5.20137 9.89638 5.15381 9.82839 5.10742 9.74121Z" fill="#351C6C"/>
<path d="M12.3968 8.55123C12.3769 8.5274 12.3767 8.50356 12.377 8.46188C12.419 8.44312 12.4605 8.44221 12.5227 8.44351C12.501 8.4809 12.4587 8.51606 12.3968 8.55123Z" fill="#675C8C"/>
<path d="M6.82471 9.8322C6.83986 9.77782 6.87044 9.71542 6.91971 9.651C6.90565 9.70738 6.87289 9.76578 6.82471 9.8322Z" fill="#3D236E"/>
<path d="M12.4438 7.12402C12.4521 7.08335 12.4745 7.03404 12.5116 6.97693C12.5036 7.01788 12.4808 7.06663 12.4438 7.12402Z" fill="#351A6F"/>
<path d="M3.53076 10.1307C3.56936 10.1424 3.61525 10.1689 3.66829 10.2104C3.62964 10.1987 3.58384 10.1722 3.53076 10.1307Z" fill="#3A2272"/>
<path d="M4.46435 10.1153C4.45972 10.0903 4.46598 10.0607 4.48467 10.0221C4.48982 10.0457 4.48253 10.0781 4.46435 10.1153Z" fill="#351C6C"/>
<path d="M12.4591 7.31163C12.4599 7.31444 12.4473 7.31693 12.4473 7.31693C12.4473 7.31693 12.4583 7.30881 12.4591 7.31163Z" fill="#351A6F"/>
<path d="M2.95605 8.13721C2.97791 8.14023 3.00355 8.15458 3.04147 8.17716C3.02245 8.17311 2.99114 8.16082 2.95605 8.13721Z" fill="#391F6F"/>
<path d="M11.487 8.53101C11.4703 8.54606 11.4482 8.55294 11.4097 8.56575C11.4227 8.5554 11.4522 8.53911 11.487 8.53101Z" fill="#3F2575"/>
<path d="M3.44043 10.0562C3.4582 10.0585 3.48438 10.0736 3.51757 10.103C3.49934 10.1012 3.47409 10.0851 3.44043 10.0562Z" fill="#3A2271"/>
<path d="M4.4097 10.3686C4.40214 10.3582 4.40248 10.3348 4.40317 10.2938C4.40351 10.2763 4.42364 10.27 4.4341 10.2694C4.43558 10.2977 4.42659 10.3267 4.4097 10.3686Z" fill="#351C6C"/>
<path d="M3.79297 10.285C3.81113 10.2839 3.84197 10.2917 3.88266 10.3123C3.86356 10.3147 3.8346 10.3043 3.79297 10.285Z" fill="#3A2272"/>
<path d="M5.35596 3.46412C5.37085 3.46373 5.37895 3.47252 5.38581 3.49353C5.37628 3.49161 5.36448 3.4808 5.35596 3.46412Z" fill="#351A6F"/>
<path d="M3.68799 10.2352C3.7058 10.2341 3.73522 10.242 3.77262 10.2632C3.7536 10.2657 3.7266 10.2549 3.68799 10.2352Z" fill="#3A2272"/>
<path d="M11.0359 8.94028C11.0332 8.92674 11.0572 8.92072 11.0694 8.9187C11.0822 8.93954 11.0829 8.9624 11.0842 9.00245C11.0694 8.9977 11.054 8.97576 11.0359 8.94028Z" fill="#6D5F8A"/>
<path d="M3.3208 9.92175C3.33748 9.92836 3.35983 9.94895 3.38491 9.98507C3.36725 9.97897 3.34686 9.95735 3.3208 9.92175Z" fill="#3A2271"/>
<path d="M3.99707 10.3471C4.00648 10.3363 4.02161 10.342 4.03925 10.3681C4.03126 10.3724 4.01826 10.364 3.99707 10.3471Z" fill="#3A2272"/>
<path d="M4.4543 10.158C4.44798 10.1568 4.44186 10.1431 4.44446 10.1248C4.45317 10.1203 4.4545 10.1454 4.4543 10.158Z" fill="#351C6C"/>
<path d="M3.38574 10.0089C3.39495 10.0067 3.41207 10.0156 3.43219 10.0396C3.42135 10.0431 3.4075 10.0315 3.38574 10.0089Z" fill="#3A2271"/>
<path d="M4.50483 9.95121C4.49508 9.95556 4.48542 9.94705 4.47821 9.93678C4.47673 9.93469 4.48443 9.92598 4.49656 9.91553C4.50541 9.91973 4.5056 9.92873 4.50483 9.95121Z" fill="#351C6C"/>
<path d="M12.827 3.77918C12.8199 3.77963 12.8026 3.76892 12.7769 3.74518C12.7845 3.74411 12.8006 3.75606 12.827 3.77918Z" fill="#391F6F"/>
<path d="M12.3899 7.17323C12.3823 7.16246 12.3906 7.14968 12.4171 7.13757C12.42 7.14612 12.4102 7.15711 12.3899 7.17323Z" fill="#351A6F"/>
<path d="M3.10738 9.1238C3.10738 9.1238 3.10373 9.12565 3.10543 9.12461C3.10714 9.12358 3.10738 9.1238 3.10738 9.1238Z" fill="#3A2271"/>
<path d="M3.10694 9.1239C3.10684 9.12373 3.11033 9.12169 3.1088 9.12299C3.10727 9.12429 3.10703 9.12407 3.10694 9.1239Z" fill="#3A2271"/>
<path d="M6.77545 4.98242C6.72606 5.17349 6.64537 5.36268 6.63411 5.55603C6.61376 5.9055 6.46161 6.14136 6.11663 6.29051C5.74355 6.48756 5.40616 6.67658 5.05066 6.86904C4.92656 6.97615 4.79818 7.06509 4.71993 7.18702C4.60749 7.36224 4.48305 7.4455 4.27611 7.38523C4.19596 7.36189 4.10904 7.36239 4.02519 7.35202C4.01128 7.34592 3.99883 7.33757 3.98374 7.29725C3.98243 7.24029 3.98521 7.21307 3.98643 7.1664C4.00268 6.96652 4.02048 6.78608 4.03829 6.60564C4.03829 6.60564 4.03904 6.60688 4.05731 6.60254C4.57226 6.36942 5.07885 6.1596 5.56011 5.90137C5.72356 5.81366 5.82312 5.60384 5.95203 5.43205C5.93674 5.35832 5.92131 5.30234 5.90073 5.24402C5.8956 5.24167 5.88442 5.24018 5.88442 5.24018C5.89255 5.21844 5.90067 5.19669 5.92686 5.14805C5.97568 5.0699 6.01849 5.02233 6.03499 4.96675C6.09 4.78156 6.20273 4.6287 6.39249 4.65741C6.5053 4.67448 6.59893 4.8225 6.7008 4.91209C6.72644 4.93464 6.7506 4.95893 6.77545 4.98242Z" fill="#A158CA"/>
<path d="M9.60473 6.50234C9.48329 6.62522 9.35031 6.73874 9.24363 6.87359C9.13559 7.01018 9.05356 7.16786 8.93807 7.34315C8.80708 7.38368 8.69817 7.39735 8.59037 7.38704C8.59966 7.1707 8.61691 6.9836 8.34298 6.95098C8.28067 6.94356 8.23155 6.82254 8.17773 6.73554C8.24919 6.61325 8.31928 6.50924 8.38936 6.40522C8.55995 6.29008 8.73068 6.17516 8.90102 6.05966C8.94192 6.03193 8.98154 6.00227 9.05341 5.97678C9.22482 5.9068 9.37325 5.8465 9.50255 5.75764C9.79171 5.5589 10.0713 5.34593 10.3738 5.14319C10.5182 5.17947 10.6438 5.21131 10.7756 5.24568C10.7819 5.24821 10.802 5.24937 10.802 5.24937C10.802 5.24937 10.8212 5.24307 10.8215 5.24315C10.8218 5.24324 10.8218 5.24256 10.8409 5.24311C10.8857 5.24422 10.9113 5.24479 10.9369 5.24536C10.7895 5.39745 10.6421 5.54954 10.4693 5.69266C10.4057 5.68091 10.3519 5.66012 10.3317 5.67809C10.0945 5.8893 9.85905 6.10286 9.63248 6.32555C9.59864 6.35882 9.61279 6.44216 9.60473 6.50234Z" fill="#DE3B33"/>
<path d="M8.58942 7.41108C8.69833 7.3974 8.80724 7.38373 8.9304 7.35934C9.0296 7.66508 8.83547 8.06561 8.44687 8.30986C8.34805 8.28797 8.27426 8.26046 8.20415 8.26801C7.69636 8.32268 7.38616 8.14787 7.16593 7.68032C7.1341 7.61276 7.08024 7.55585 7.03658 7.49401C7.0388 7.45483 7.04102 7.41566 7.05432 7.34069C7.05468 7.21151 7.04394 7.11813 7.0332 7.02475C7.2061 6.62039 7.47263 6.33419 7.94766 6.3136C7.76787 6.54323 7.74706 6.80005 7.75051 7.08102C7.61097 7.33967 7.64721 7.54749 7.84215 7.6573C8.06464 7.78263 8.21252 7.66802 8.34992 7.47952C8.43998 7.45212 8.5147 7.4316 8.58942 7.41108Z" fill="#A158CA"/>
<path d="M10.7696 5.24316C10.6441 5.21132 10.5186 5.17948 10.3838 5.12934C10.4202 5.03476 10.466 4.95847 10.5117 4.88218C10.6702 4.74445 10.8191 4.5919 10.9921 4.47649C11.0587 4.43205 11.1803 4.47209 11.2791 4.50522C11.2141 4.67704 11.1584 4.8249 11.0756 4.95514C11.0078 5.06184 10.9078 5.14755 10.8221 5.24257C10.8221 5.24257 10.8221 5.24324 10.8089 5.2431C10.7869 5.24302 10.7783 5.24309 10.7696 5.24316Z" fill="#D63939"/>
<path d="M5.95182 5.44976C5.82306 5.60378 5.7235 5.8136 5.56005 5.90131C5.07879 6.15954 4.5722 6.36936 4.05664 6.60205C4.22964 6.49666 4.42057 6.3856 4.61362 6.27845C4.95546 6.08871 5.31292 5.92272 5.63367 5.70184C5.75152 5.62069 5.78382 5.41213 5.86975 5.25091C5.88436 5.24012 5.89554 5.24161 5.90126 5.2617C5.92193 5.33778 5.93688 5.39377 5.95182 5.44976Z" fill="#371E70"/>
<path d="M7.76562 7.06759C7.74709 6.79998 7.7679 6.54315 7.96801 6.31689C8.10122 6.32851 8.22826 6.35704 8.37243 6.39538C8.31946 6.5092 8.24937 6.61322 8.16356 6.74398C8.08706 6.83534 8.02629 6.89996 7.95231 6.97433C7.88127 7.01191 7.82344 7.03975 7.76562 7.06759Z" fill="#8349A4"/>
<path d="M10.4933 4.88269C10.4656 4.95842 10.4199 5.03471 10.3645 5.12485C10.0713 5.34589 9.79171 5.55886 9.50254 5.7576C9.37325 5.84646 9.22481 5.90676 9.07178 5.97293C9.53075 5.60498 10.003 5.24411 10.4933 4.88269Z" fill="#E02F23"/>
<path d="M7.02832 7.50769C7.08024 7.55578 7.13411 7.61269 7.16593 7.68025C7.38616 8.1478 7.69636 8.32261 8.20415 8.26794C8.27426 8.26039 8.34805 8.2879 8.42996 8.31385C7.86429 8.53975 7.15393 8.31036 7.02832 7.50769Z" fill="#3A1B70"/>
<path d="M4.03369 7.36855C4.10871 7.36239 4.19563 7.36189 4.27578 7.38524C4.48272 7.4455 4.60716 7.36225 4.7196 7.18702C4.79785 7.06509 4.92624 6.97615 5.05177 6.88171C5.07132 6.89095 5.07366 6.9163 5.07366 6.9163C5.00679 6.99229 4.91808 7.0578 4.87673 7.14605C4.67212 7.58276 4.45232 7.64988 4.03369 7.36855Z" fill="#3F2575"/>
<path d="M6.77883 4.96189C6.75036 4.95896 6.72619 4.93468 6.70055 4.91212C6.59868 4.82253 6.50505 4.67451 6.39224 4.65745C6.20248 4.62874 6.08975 4.7816 6.03475 4.96678C6.01824 5.02236 5.97544 5.06994 5.93064 5.13109C5.92179 4.73609 6.03784 4.58644 6.36913 4.55746C6.64797 4.53306 6.7669 4.64352 6.77883 4.96189Z" fill="#351A6F"/>
<path d="M9.6179 6.49335C9.61308 6.44219 9.59893 6.35885 9.63278 6.32559C9.85935 6.10289 10.0948 5.88933 10.332 5.67812C10.3522 5.66016 10.406 5.68094 10.4518 5.69483C10.1832 5.9654 9.90699 6.22487 9.6179 6.49335Z" fill="#E33327"/>
<path d="M5.09245 6.91643C5.0736 6.91629 5.07127 6.89094 5.06982 6.87827C5.40577 6.67658 5.74316 6.48756 6.10039 6.29822C5.78392 6.50412 5.44761 6.71034 5.09245 6.91643Z" fill="#3A2271"/>
<path d="M10.8413 5.24312C10.9078 5.14756 11.0078 5.06184 11.0756 4.95514C11.1584 4.8249 11.2141 4.67705 11.2882 4.52234C11.4376 4.71904 11.4059 4.87488 11.1819 5.05906C11.1113 5.11712 11.0394 5.17363 10.9527 5.23811C10.9117 5.2448 10.8861 5.24423 10.8413 5.24312Z" fill="#D62D2B"/>
<path d="M4.44759 8.26468C4.1255 8.28635 3.7896 8.29061 3.43457 8.28422C3.75488 8.26481 4.09433 8.25604 4.44759 8.26468Z" fill="#6D5E93"/>
<path d="M4.02391 6.61084C4.02037 6.78606 4.00257 6.9665 3.97503 7.15565C3.92331 7.13554 3.88133 7.10671 3.83936 7.07788C3.89612 6.92394 3.95288 6.77 4.02391 6.61084Z" fill="#371E70"/>
<path d="M7.02002 7.03723C7.04374 7.11805 7.05448 7.21143 7.05728 7.32125C7.03524 7.24172 7.02114 7.14576 7.02002 7.03723Z" fill="#3A1B70"/>
<path d="M3.83936 7.09521C3.88115 7.10667 3.92313 7.1355 3.9764 7.17506C3.98491 7.21301 3.98213 7.24023 3.97702 7.28785C3.92965 7.24303 3.88459 7.17781 3.83936 7.09521Z" fill="#3F2575"/>
<path d="M5.95183 5.4321C5.93673 5.39388 5.92178 5.33789 5.90625 5.26416C5.9211 5.30239 5.93654 5.35836 5.95183 5.4321Z" fill="#351A6F"/>
<path d="M7.96533 6.96466C8.0261 6.90004 8.08687 6.83542 8.162 6.76233C8.23155 6.82259 8.28066 6.94361 8.34297 6.95103C8.6169 6.98365 8.59965 7.17075 8.59036 7.38709C8.51454 7.4316 8.43982 7.45212 8.35203 7.46045C8.28071 7.23454 8.22454 7.01917 7.96533 6.96466Z" fill="#D23532"/>
<path d="M10.7759 5.24572C10.7782 5.24312 10.7869 5.24305 10.8085 5.24304C10.8215 5.2431 10.8023 5.2494 10.8023 5.2494C10.8023 5.2494 10.7822 5.24824 10.7759 5.24572Z" fill="#D62D2B"/>
<path d="M7.95245 6.97437C8.22487 7.01913 8.28104 7.2345 8.33702 7.46729C8.21269 7.66798 8.06481 7.78259 7.84232 7.65726C7.64739 7.54745 7.61114 7.33963 7.75068 7.08098C7.82359 7.03979 7.88142 7.01195 7.95245 6.97437Z" fill="#030203"/>
</g>
<defs>
<clipPath id="clip0_236_3">
<rect width="16" height="14" fill="white"/>
</clipPath>
</defs>
</svg>
