<svg width="32" height="28" viewBox="0 0 32 28" fill="none" xmlns="http://www.w3.org/2000/svg">
<g clip-path="url(#clip0_236_127)">
<path d="M16.7268 2.20924C16.4199 2.23087 16.0692 2.24342 15.6812 2.23977C15.9902 2.21577 16.3367 2.20796 16.7268 2.20924Z" fill="#351C6C"/>
<path d="M17.0865 2.28106C17.0717 2.29167 17.0446 2.27824 17.002 2.24592C17.019 2.22497 17.0482 2.23497 17.0865 2.28106Z" fill="#351C6C"/>
<path d="M17.1015 2.30041C17.559 2.44685 18.0129 2.60704 18.4757 2.73382C18.6992 2.79503 18.9395 2.79341 19.243 2.81698C19.4702 2.79216 19.6264 2.7706 19.7826 2.74903C19.9602 2.74706 20.1377 2.74508 20.3856 2.7705C20.9231 2.94732 21.3902 3.09675 21.8573 3.24618C21.8573 3.24618 21.8513 3.2482 21.87 3.27604C22.0824 3.42674 22.276 3.5496 22.4696 3.67246C22.4696 3.67246 22.4734 3.67069 22.4848 3.70405C22.6628 3.88871 22.8294 4.04001 22.996 4.19131C22.996 4.19131 22.9916 4.1951 22.9943 4.22755C23.0596 4.38012 23.1222 4.50023 23.1904 4.65951C23.3072 4.86318 23.3888 5.13167 23.5348 5.17433C24.2036 5.36979 24.8904 5.50202 25.5707 5.65695C26.0399 6.06624 26.5092 6.47553 27.0124 6.93689C27.3207 7.63207 27.5949 8.27518 27.8691 8.91828C27.9044 9.12715 27.9398 9.33601 27.9698 9.62901C27.8468 10.548 28.0205 10.8574 28.8721 11.3299C28.8974 11.387 28.9226 11.4442 28.9788 11.5576C29.4612 12.5235 29.8358 13.4503 29.7249 14.5054C29.6777 14.954 29.6639 15.4061 29.6349 15.8566C29.3227 16.4294 28.9941 16.994 28.706 17.579C28.5849 17.8249 28.5494 18.114 28.4444 18.4496C28.3685 18.6445 28.3157 18.7709 28.2795 18.9021C28.0958 19.5679 27.9157 20.2348 27.7359 20.9017C27.6734 21.1336 27.6154 21.3668 27.5554 21.5995C27.1676 21.9818 26.8012 22.3902 26.3862 22.7395C25.9284 23.1249 25.4261 23.456 24.8756 23.8091C24.0457 23.969 23.2777 24.1095 22.5245 24.3074C22.3432 24.355 22.2107 24.593 22.0306 24.7687C21.983 24.9739 21.9111 25.1644 21.9464 25.3318C22.1419 26.2593 22.3636 27.1811 22.5763 28.1049C22.0217 28.1049 21.4672 28.1049 20.8642 28.1049C20.1339 27.358 19.452 26.6112 18.7659 25.8051C18.5051 25.1473 18.0624 24.7211 17.4711 24.5062C16.8318 24.2738 16.1637 24.1226 15.5082 23.936C15.1819 23.5802 14.6478 23.2558 14.5892 22.8594C14.5336 22.4833 14.9565 22.0191 15.2098 21.6202C15.3004 21.4775 15.5107 21.4126 15.7407 21.2946C16.1703 21.1838 16.5255 21.0906 16.8806 20.9973C17.2631 20.9931 17.6456 20.9888 18.1083 20.9995C18.3661 20.9589 18.5438 20.9035 18.7215 20.848C19.2251 20.3786 19.2447 20.2561 18.8553 19.8586C18.8423 19.7794 18.8441 19.7607 18.809 19.7199C17.7179 19.6753 16.6639 19.6475 15.6098 19.6393C15.5178 19.6386 15.4248 19.7667 15.3322 19.835C15.0301 20.1951 14.728 20.5552 14.3695 20.9527C14.1659 21.1079 14.0065 21.2131 13.8736 21.3456C13.2414 21.9761 12.4683 22.2893 11.5994 22.3232C10.8094 22.3541 10.0167 22.3086 9.22533 22.3161C9.04915 22.3178 8.87373 22.4005 8.69796 22.4459C7.94864 22.3455 7.1882 22.2792 6.54113 21.6875C6.46293 21.5794 6.43811 21.5072 6.38829 21.4661C5.50232 20.7342 4.95921 19.8146 4.84676 18.6469C4.83674 18.5428 4.73058 18.4482 4.66907 18.3492C4.7964 17.8066 4.72351 17.3238 4.26259 16.8935C4.01569 16.0792 3.77008 15.3278 3.52441 14.5284C3.64459 13.7507 3.76764 13.0216 3.88265 12.2911C3.90562 12.1453 3.89787 11.9945 3.90428 11.846C4.34187 10.9916 5.03095 10.3758 5.82608 9.76069C6.01987 8.98643 6.16849 8.26928 6.31711 7.55214C6.31711 7.55214 6.31617 7.54889 6.34537 7.52902C6.49226 7.31085 6.60996 7.11255 6.72765 6.91425C6.72765 6.91425 6.72955 6.92042 6.75613 6.90597C6.83634 6.80407 6.88997 6.71662 6.94361 6.62917C6.94361 6.62917 6.94907 6.61223 6.97119 6.59463C7.01176 6.55811 7.02805 6.53745 7.04218 6.51504C7.63196 6.19395 8.22173 5.87286 8.8831 5.53717C9.04221 5.39465 9.12971 5.26672 9.21722 5.13878C9.21722 5.13878 9.21707 5.13856 9.24487 5.1189C9.34016 4.95789 9.40764 4.81654 9.47513 4.67519C9.47513 4.67519 9.48449 4.68054 9.51459 4.66973C9.77933 4.39761 10.014 4.13631 10.2486 3.875C10.2486 3.875 10.2459 3.8785 10.2818 3.86865C10.9155 3.61991 11.5134 3.38101 12.1577 3.1427C12.5878 3.07882 12.9714 3.01436 13.3551 2.9499C13.4003 2.94244 13.4456 2.93497 13.5547 2.93964C13.9122 2.84381 14.206 2.73586 14.5388 2.62258C14.8627 2.4861 15.1476 2.35493 15.4326 2.22377C15.4795 2.22239 15.5265 2.22102 15.6461 2.23783C16.0694 2.24347 16.42 2.23093 16.7706 2.21838C16.8183 2.21903 16.866 2.21968 16.967 2.24023C17.0451 2.27818 17.0722 2.29161 17.1015 2.30041ZM6.20802 18.2499C6.20802 18.2499 6.21424 18.2475 6.21947 18.244C6.21947 18.244 6.21351 18.2467 6.20802 18.2499ZM6.78713 20.0398C6.81483 20.0629 6.84254 20.0861 6.85632 20.1007C6.85632 20.1007 6.86471 20.0867 6.89836 20.1381C6.94885 20.1703 6.99935 20.2024 7.0438 20.2378C7.0438 20.2378 7.04675 20.2316 7.07588 20.2913C7.16748 20.3444 7.25908 20.3974 7.35424 20.4489C7.35424 20.4489 7.35306 20.4526 7.39954 20.4882C7.45353 20.5098 7.50752 20.5314 7.55987 20.5544C7.55987 20.5544 7.56064 20.5523 7.61134 20.5878C7.66926 20.6086 7.72717 20.6294 7.84906 20.6587C7.89152 20.6657 7.93397 20.6726 8.01256 20.7086C8.03688 20.7281 8.06287 20.7448 8.08337 20.7561C8.08337 20.7561 8.08619 20.7489 8.12207 20.8107C8.36752 21.0633 8.5897 20.9735 8.83532 20.7112C8.8533 20.6533 8.87127 20.5955 8.90198 20.4728C8.90425 20.429 8.90653 20.3851 8.90962 20.291C8.90962 20.291 8.90697 20.2407 8.9063 20.2396C8.9063 20.2396 8.90749 20.2401 8.95107 20.2212C8.96564 20.1563 8.98021 20.0914 9.00432 19.9783C9.00432 19.9783 9.00841 19.9293 9.01222 19.8754C9.01185 19.8574 9.01148 19.8394 9.00992 19.8202C9.00992 19.8202 9.01142 19.821 9.07107 19.7821C9.44518 19.6646 9.81928 19.5472 10.2094 19.4299C10.2094 19.4299 10.2172 19.4441 10.2125 19.5208C10.3076 19.6568 10.4027 19.7928 10.4898 20.002C10.4765 20.1851 10.4631 20.3683 10.398 20.5484C10.3511 20.6923 10.3041 20.8363 10.2571 20.9803C10.3634 20.9988 10.4696 21.0173 10.6482 21.0634C10.7242 21.0761 10.8003 21.0888 10.9317 21.1508C11.6244 21.4068 12.2297 21.1763 12.7905 20.781C12.8928 20.7089 12.9201 20.5277 12.9963 20.3888C12.9963 20.3888 13.0045 20.4033 13.0756 20.3912C13.254 20.1481 13.4323 19.905 13.6238 19.6672C13.6238 19.6672 13.6186 19.6804 13.6802 19.6483C13.7458 19.5315 13.8113 19.4147 13.8888 19.2462C13.8908 19.2287 13.8928 19.2111 13.9585 19.1713C14.1049 19.0093 14.2514 18.8473 14.4537 18.6381C14.6692 18.5397 14.8848 18.4413 15.1673 18.3492C15.1897 18.3495 15.2121 18.3498 15.3302 18.3504C16.4296 18.3481 17.529 18.3458 18.712 18.3407C19.6336 18.2499 20.2958 17.7113 20.8827 17.0591C20.8827 17.0591 20.8729 17.0551 20.9431 17.0395C21.0964 16.8671 21.2496 16.6946 21.403 16.5359C21.403 16.5359 21.3895 16.536 21.4634 16.5161C21.7873 16.3549 21.8806 16.1016 21.7798 15.7537C21.7185 15.5418 21.6842 15.3219 21.6143 15.0339C21.7093 14.7858 21.7382 14.4151 21.9145 14.3175C22.1945 14.1625 22.55 14.2308 22.7458 14.6021C22.788 14.6822 22.9292 14.7087 23.0688 14.8269C23.1587 15.1464 23.0339 15.579 23.5844 15.629C24.3757 15.7009 24.5351 15.5899 24.6552 14.7554C24.6745 14.6211 24.7261 14.4916 24.798 14.3331C24.821 14.3143 24.8407 14.2923 24.855 14.262C24.855 14.262 24.8593 14.2654 24.9161 14.2308C24.9616 14.1333 25.0072 14.0358 25.0618 13.9472C25.0618 13.9472 25.0524 13.9388 25.1363 13.927C25.5223 13.934 25.9084 13.9411 26.3375 14.013C26.4039 14.2334 26.4702 14.4538 26.4853 14.7272C26.0455 15.4448 25.6057 16.1624 25.1272 16.8903C25.1272 16.8903 25.0872 16.8915 25.0046 16.8826C24.9215 16.8844 24.8385 16.8862 24.662 16.8873C24.2129 16.9518 23.7637 17.0163 23.2323 17.0854C23.15 17.0831 23.0677 17.0808 22.964 17.0457C22.905 17.0783 22.8461 17.1109 22.7667 17.1688C22.7511 17.1843 22.7333 17.1963 22.6389 17.2217C22.4482 17.4323 22.2575 17.643 22.0776 17.9078C22.1084 17.9516 22.1392 17.9955 22.162 18.0358C22.162 18.0358 22.1656 18.0277 22.1667 18.0774C22.17 18.1101 22.1735 18.1427 22.2417 18.2335C22.3189 18.2677 22.3961 18.3316 22.4734 18.3318C23.4294 18.3348 24.3894 18.3805 25.3399 18.3049C25.9035 18.2601 26.4815 18.0764 26.8814 17.4811C27.3145 16.8988 27.7476 16.3164 28.2451 15.7026C28.8409 14.9031 28.7342 14.0658 28.3681 13.1375C28.2283 12.6946 28.0921 12.2484 27.466 12.1416C26.8687 12.0137 26.2714 11.8858 25.6066 11.72C25.361 11.6597 25.1182 11.5744 24.8691 11.5455C24.581 11.5121 24.2639 11.5952 24.0034 11.5018C23.7913 11.4258 23.5376 11.1874 23.4931 10.9792C23.4264 10.6671 23.6449 10.4245 23.9996 10.396C24.1531 10.3837 24.3082 10.3779 24.4619 10.3853C25.0257 10.4127 25.5893 10.4669 26.153 10.4687C26.3745 10.4694 26.7348 10.5127 26.6136 9.99472C26.6121 9.94971 26.6105 9.9047 26.6592 9.81472C26.854 9.20932 26.3489 8.05525 25.6891 7.61612C25.6891 7.61612 25.6744 7.58058 25.6336 7.53596C25.6013 7.51204 25.5691 7.48813 25.4786 7.4295C25.2806 7.29292 25.0827 7.15625 24.8847 7.01975C24.2811 6.60374 24.0614 6.6696 23.6858 7.28014C23.482 7.6115 23.1811 7.83083 22.7368 7.74441C22.271 7.65381 22.1468 7.35001 22.1608 6.92817C22.1672 6.73636 22.1668 6.54432 22.1719 6.35245C22.2022 5.19864 20.6885 3.85212 19.6251 4.50711C19.6745 4.95784 19.7564 5.41502 19.7679 5.87401C19.7889 6.71177 19.7681 7.55061 19.7092 8.43442C19.6788 8.47605 19.6288 8.5143 19.6212 8.55983C19.5586 8.93325 19.3989 9.17746 18.9712 9.11223C18.5079 9.04156 18.5737 8.67531 18.5342 8.35217C18.4844 7.94451 18.4074 7.54024 18.3265 7.04615C18.2923 6.77314 18.2494 6.50089 18.2254 6.22695C18.1555 5.42643 18.1544 4.60124 17.3803 4.00067C16.986 3.59517 16.1805 3.46024 15.7565 3.76607C15.6828 3.81922 15.7328 4.04813 15.7621 4.25822C16.2089 4.58384 16.6607 4.89578 16.729 5.52824C16.7872 6.06665 16.3946 6.78761 15.9494 6.89584C15.4249 7.0233 15.0617 6.79436 14.8349 6.10568C14.6468 5.53419 14.4773 4.97572 13.8289 4.66929C13.3005 4.16775 12.3721 4.18921 11.5285 4.73867C10.9228 4.98792 10.541 5.45945 10.279 6.04396C10.174 6.27823 10.1768 6.48779 10.5303 6.62122C10.5932 6.71969 10.656 6.81816 10.7057 6.94009C10.7293 6.96171 10.7529 6.98334 10.7885 7.00951C10.7885 7.00951 10.7937 7.02141 10.784 7.11391C10.7762 7.2878 10.7909 7.4667 10.7544 7.63416C10.7188 7.7973 10.6646 7.97858 10.5598 8.09996C10.1785 8.54189 9.58662 8.3952 9.321 7.83232C9.22831 7.63589 9.2741 7.18302 8.75402 7.47159C8.6664 7.49479 8.57879 7.51799 8.45949 7.49336C8.29756 7.53175 8.09257 7.51967 7.98108 7.61719C7.46968 8.0645 7.20068 8.64859 7.16769 9.40511C7.71453 9.58765 8.26136 9.77019 8.81262 9.95234C8.81262 9.95234 8.81271 9.95683 8.8177 10.0411C8.96407 10.9803 8.85225 11.1123 7.90739 11.1148C7.57978 11.1156 7.2498 11.0922 6.92552 11.1257C6.75581 11.1433 6.59609 11.26 6.37276 11.3475C5.18819 11.5359 4.51129 13.433 4.86725 14.556C5.01203 15.2481 5.17763 15.9271 5.90273 16.2546C5.90273 16.2546 5.90481 16.2518 5.91992 16.2971C5.98254 16.3217 6.04516 16.3462 6.17463 16.3846C6.25897 16.4125 6.3433 16.4404 6.42741 16.5258C6.58211 16.6068 6.73482 16.7528 6.89183 16.7577C7.69839 16.7829 8.50635 16.7833 9.31306 16.7624C9.4564 16.7587 9.59618 16.6136 9.83084 16.5446C10.391 16.6644 10.9421 16.4336 11.5198 16.54C11.9856 16.6259 12.3111 16.8061 12.4173 17.2326C12.5304 17.6873 12.1643 17.8978 11.7491 18.0243C11.6855 18.0001 11.6214 17.9536 11.5583 17.955C10.1094 17.9865 8.66059 18.0211 7.212 18.0639C7.1172 18.0667 7.02441 18.1394 6.9108 18.2155C6.89018 18.2518 6.86957 18.288 6.76538 18.3434C6.4879 18.3569 6.17067 18.3181 6.18876 18.8295C6.09887 19.2687 6.27993 19.5829 6.62868 19.8206C6.62868 19.8206 6.63092 19.8156 6.65362 19.8715C6.69439 19.9147 6.73516 19.958 6.76285 20.0087C6.76285 20.0087 6.7555 19.9954 6.78713 20.0398ZM24.9166 14.6176L24.8945 14.6338C24.8945 14.6338 24.9199 14.6288 24.9166 14.6176Z" fill="#A158CA"/>
<path d="M22.6106 28.1049C22.3634 27.1811 22.1418 26.2593 21.9462 25.3319C21.9109 25.1645 21.9828 24.9739 22.0667 24.7739C22.1525 24.7571 22.1767 24.7604 22.2009 24.7637C22.325 25.4698 22.4474 26.1763 22.5739 26.882C22.6432 27.2687 22.7197 27.6541 22.7881 28.0725C22.7372 28.1049 22.6912 28.1049 22.6106 28.1049Z" fill="#341B68"/>
<path d="M8.72168 22.4753C8.8736 22.4005 9.04902 22.3178 9.2252 22.3162C10.0166 22.3086 10.8093 22.3541 11.5993 22.3233C12.4681 22.2893 13.2413 21.9761 13.8735 21.3457C14.0064 21.2131 14.1658 21.1079 14.3461 20.9797C14.1991 21.5925 13.681 21.8848 13.1812 22.1703C12.923 22.3178 12.6076 22.3627 12.2287 22.4453C11.2986 22.4406 10.4579 22.4445 9.61725 22.4483C9.32668 22.4671 9.03611 22.4859 8.72168 22.4753Z" fill="#3A1E6A"/>
<path d="M29.6653 15.834C29.6636 15.4062 29.6775 14.954 29.7246 14.5055C29.8355 13.4504 29.4609 12.5236 29.0034 11.5764C29.2921 12.0897 29.666 12.6132 29.863 13.1978C30.1558 14.0668 30.0682 14.9606 29.6653 15.834Z" fill="#391F6B"/>
<path d="M15.5132 23.9723C16.1637 24.1226 16.8318 24.2738 17.4711 24.5062C18.0624 24.7211 18.5051 25.1473 18.7512 25.7734C18.446 25.5404 18.1806 25.2293 17.8487 25.034C17.5288 24.8458 17.1475 24.7418 16.78 24.6649C16.2915 24.5628 15.8154 24.4726 15.5132 23.9723Z" fill="#351C6C"/>
<path d="M4.66113 18.3872C4.73012 18.4482 4.83628 18.5428 4.8463 18.6469C4.95875 19.8146 5.50186 20.7342 6.38783 21.4661C6.43766 21.5072 6.46247 21.5794 6.51144 21.6697C6.14694 21.4018 5.72021 21.1467 5.40365 20.7911C4.81562 20.1305 4.69888 19.2813 4.66113 18.3872Z" fill="#3D236E"/>
<path d="M27.5898 21.5914C27.615 21.3669 27.673 21.1337 27.7355 20.9018C27.9153 20.2348 28.0954 19.568 28.2791 18.9021C28.3153 18.771 28.3681 18.6445 28.439 18.4872C28.3819 19.1024 28.3508 19.7592 28.1985 20.3858C28.096 20.8071 27.822 21.1856 27.5898 21.5914Z" fill="#341B68"/>
<path d="M22.23 24.7446C22.1766 24.7604 22.1524 24.7571 22.0918 24.7486C22.2104 24.593 22.343 24.3551 22.5243 24.3074C23.2775 24.1095 24.0454 23.969 24.8397 23.8176C24.3885 24.0282 23.9125 24.2492 23.4201 24.4225C23.0439 24.5548 22.647 24.6267 22.23 24.7446Z" fill="#371C6B"/>
<path d="M6.28452 7.56921C6.1682 8.26925 6.01958 8.9864 5.84142 9.72852C5.4851 8.93244 5.78492 8.24193 6.28452 7.56921Z" fill="#3A2272"/>
<path d="M3.52398 14.5764C3.7696 15.3278 4.01521 16.0792 4.24995 16.8591C3.97935 16.3313 3.7077 15.7802 3.46682 15.2155C3.38957 15.0344 3.39367 14.8178 3.40864 14.5934C3.47915 14.5718 3.50156 14.5741 3.52398 14.5764Z" fill="#3B2372"/>
<path d="M25.5561 5.62393C24.8903 5.50197 24.2036 5.36975 23.5348 5.17429C23.3888 5.13163 23.3072 4.86313 23.2222 4.65616C23.2695 4.61126 23.2906 4.60885 23.3117 4.60645C23.4917 4.87007 23.7015 5.00529 24.051 5.06396C24.5626 5.14982 25.0461 5.40687 25.5561 5.62393Z" fill="#351C6C"/>
<path d="M27.894 8.89354C27.5945 8.27518 27.3203 7.63207 27.0459 6.94775C27.4367 7.51508 27.9267 8.07842 27.894 8.89354Z" fill="#321866"/>
<path d="M3.52401 14.5283C3.50164 14.5741 3.47922 14.5718 3.42328 14.5653C3.32769 13.8785 3.26887 13.1973 3.57241 12.5471C3.67554 12.3262 3.759 12.0959 3.87766 11.8579C3.89746 11.9944 3.90521 12.1452 3.88225 12.2911C3.76724 13.0215 3.64418 13.7507 3.52401 14.5283Z" fill="#351C6C"/>
<path d="M28.8764 11.2965C28.0205 10.8573 27.8468 10.548 27.9691 9.67004C28.1655 10.2353 28.3509 10.8471 28.8764 11.2965Z" fill="#3D236E"/>
<path d="M15.3574 19.829C15.4247 19.7667 15.5177 19.6386 15.6097 19.6393C16.6639 19.6475 17.7178 19.6753 18.7608 19.713C18.0476 19.7246 17.3452 19.7099 16.6432 19.7219C16.2395 19.7288 15.8365 19.7792 15.4331 19.81C15.4163 19.8143 15.3995 19.8187 15.3574 19.829Z" fill="#2B1169"/>
<path d="M12.1108 3.14216C11.5129 3.38106 10.9151 3.61996 10.2812 3.86642C10.6914 3.59071 11.1356 3.30439 11.5853 3.0269C11.6688 2.97535 11.7737 2.95933 11.911 2.95056C12.0057 3.0302 12.0583 3.08618 12.1108 3.14216Z" fill="#311969"/>
<path d="M15.481 19.8183C15.8364 19.7792 16.2394 19.7288 16.6431 19.7219C17.3451 19.7099 18.0475 19.7246 18.7978 19.7351C18.8439 19.7607 18.8421 19.7794 18.8424 19.8261C17.7394 19.845 16.6341 19.8358 15.481 19.8183Z" fill="#6E668A"/>
<path d="M9.6416 22.4852C10.4579 22.4444 11.2986 22.4405 12.1885 22.4431C11.7991 22.5109 11.3615 22.6094 10.9213 22.6229C10.5043 22.6356 10.0845 22.5593 9.6416 22.4852Z" fill="#70608F"/>
<path d="M12.1576 3.14275C12.0586 3.08618 12.0061 3.0302 11.9365 2.95113C12.3746 2.92905 12.8297 2.93006 13.3199 2.94051C12.9714 3.01442 12.5877 3.07888 12.1576 3.14275Z" fill="#3B2372"/>
<path d="M21.8355 3.216C21.3899 3.09675 20.9228 2.94732 20.4297 2.77307C20.8737 2.89411 21.3438 3.03996 21.8355 3.216Z" fill="#311969"/>
<path d="M16.8357 20.9892C16.5252 21.0906 16.17 21.1838 15.7725 21.2798C15.9941 20.8585 16.4075 20.9735 16.8357 20.9892Z" fill="#391F6B"/>
<path d="M10.2101 3.87439C10.0138 4.13629 9.77913 4.39759 9.51172 4.67443C9.53066 4.26185 9.75577 3.9847 10.2101 3.87439Z" fill="#391F6F"/>
<path d="M14.4995 2.62793C14.2057 2.73589 13.912 2.84384 13.5889 2.93734C13.8474 2.78864 14.1353 2.65439 14.4613 2.54944C14.4993 2.57873 14.4995 2.62793 14.4995 2.62793Z" fill="#3B2372"/>
<path d="M14.5385 2.6226C14.4995 2.62792 14.4993 2.57872 14.499 2.55412C14.7838 2.42002 15.0688 2.31052 15.3931 2.2124C15.1474 2.35495 14.8625 2.48612 14.5385 2.6226Z" fill="#351C6C"/>
<path d="M18.6891 20.8468C18.5436 20.9035 18.3659 20.959 18.1558 20.997C18.3012 20.9349 18.479 20.8903 18.6891 20.8468Z" fill="#391F6B"/>
<path d="M6.70149 6.91882C6.60964 7.11257 6.49194 7.31087 6.34668 7.52944C6.43795 7.34093 6.5568 7.13216 6.70149 6.91882Z" fill="#3A2272"/>
<path d="M22.9942 4.15444C22.8292 4.04005 22.6627 3.88875 22.4834 3.70581C22.6447 3.82196 22.8186 3.96975 22.9942 4.15444Z" fill="#311969"/>
<path d="M22.4581 3.63847C22.2756 3.54958 22.082 3.42672 21.8711 3.27319C22.0516 3.36319 22.2493 3.48385 22.4581 3.63847Z" fill="#311969"/>
<path d="M9.18178 5.14246C9.12955 5.26672 9.04204 5.39465 8.92041 5.53107C8.97302 5.40841 9.05976 5.27727 9.18178 5.14246Z" fill="#391F6F"/>
<path d="M23.303 4.57502C23.2905 4.60885 23.2695 4.61126 23.2166 4.61698C23.1222 4.50019 23.0595 4.38008 22.9951 4.22473C23.0937 4.30753 23.194 4.42556 23.303 4.57502Z" fill="#311969"/>
<path d="M19.743 2.74011C19.6263 2.77058 19.4701 2.79214 19.2798 2.8087C19.3983 2.77954 19.5509 2.75537 19.743 2.74011Z" fill="#311969"/>
<path d="M9.44484 4.69031C9.40725 4.81659 9.33977 4.95794 9.24463 5.11901C9.28296 4.99427 9.34895 4.84983 9.44484 4.69031Z" fill="#391F6F"/>
<path d="M6.913 6.63928C6.8896 6.71662 6.83596 6.80407 6.75293 6.90446C6.77661 6.82806 6.82969 6.73873 6.913 6.63928Z" fill="#3A2272"/>
<path d="M7.0213 6.52136C7.02769 6.53739 7.0114 6.55805 6.97823 6.58974C6.96319 6.57108 6.97562 6.54616 7.0213 6.52136Z" fill="#3A2272"/>
<path d="M25.64 11.739C25.6092 11.8092 25.5431 11.9064 25.4801 11.9045C25.003 11.8897 24.5219 11.8877 24.051 11.8188C23.5146 11.7403 23.1843 11.3169 23.2333 10.8625C23.2927 10.3116 23.5242 10.1387 24.2109 10.1701C24.7073 10.1928 25.2027 10.2714 25.6981 10.2677C25.9748 10.2656 26.2505 10.1464 26.5657 10.0709C26.7345 10.5127 26.3742 10.4694 26.1527 10.4687C25.589 10.467 25.0254 10.4128 24.4615 10.3853C24.3079 10.3779 24.1528 10.3838 23.9993 10.3961C23.6446 10.4246 23.4261 10.6671 23.4928 10.9793C23.5373 11.1875 23.791 11.4258 24.0031 11.5019C24.2636 11.5953 24.5807 11.5121 24.8688 11.5455C25.1179 11.5745 25.3607 11.6597 25.64 11.739Z" fill="#391F6F"/>
<path d="M8.81498 9.99902C9.22768 10.1481 9.25653 10.4722 9.11656 10.8567C8.97174 11.2546 8.70233 11.4592 8.27315 11.4526C7.72081 11.4442 7.16823 11.4515 6.55666 11.4276C6.47661 11.3785 6.45464 11.3548 6.43164 11.332C6.59587 11.2601 6.75558 11.1433 6.92529 11.1258C7.24958 11.0923 7.57955 11.1157 7.90717 11.1148C8.85202 11.1124 8.96384 10.9804 8.81498 9.99902Z" fill="#3F2575"/>
<path d="M19.7367 8.41171C19.7825 8.74839 19.9048 9.1853 19.4559 9.33361C19.1943 9.42004 18.7778 9.42981 18.6019 9.27496C18.385 9.08398 18.2802 8.69308 18.2468 8.37563C18.2066 7.99403 18.2926 7.59881 18.3329 7.172C18.4071 7.54024 18.4841 7.94451 18.5339 8.35217C18.5734 8.67531 18.5076 9.04156 18.971 9.11223C19.3986 9.17746 19.5583 8.93325 19.6209 8.55983C19.6285 8.51429 19.6785 8.47605 19.7367 8.41171Z" fill="#422171"/>
<path d="M6.4021 11.3397C6.45465 11.3547 6.47663 11.3784 6.51315 11.4219C5.21766 12.1121 4.88275 13.156 5.02741 14.4278C4.94696 14.4711 4.90447 14.4721 4.86199 14.4731C4.51108 13.433 5.18799 11.5359 6.4021 11.3397Z" fill="#422574"/>
<path d="M10.7884 7.06763C11.1289 7.61167 11.012 8.23552 10.5158 8.50277C9.93489 8.81564 9.35248 8.56759 9.08481 7.90049C9.02757 7.75782 8.94348 7.62619 8.84473 7.46829C9.27373 7.18299 9.22794 7.63586 9.32063 7.83228C9.58625 8.39517 10.1782 8.54185 10.5595 8.09992C10.6642 7.97855 10.7184 7.79727 10.754 7.63412C10.7905 7.46667 10.7759 7.28777 10.7884 7.06763Z" fill="#351A6F"/>
<path d="M11.7841 18.0497C11.6735 18.0989 11.5278 18.1227 11.2943 18.1425C9.78132 18.1522 8.35599 18.1659 6.93066 18.1796C7.02439 18.1394 7.11718 18.0667 7.21198 18.0639C8.66057 18.0211 10.1094 17.9865 11.5583 17.955C11.6214 17.9536 11.6854 18.0001 11.7841 18.0497Z" fill="#3A2272"/>
<path d="M25.3545 18.1647C25.8227 17.9555 26.2909 17.7463 26.7929 17.5308C26.4814 18.0764 25.9034 18.2601 25.3398 18.3049C24.3893 18.3805 23.4293 18.3347 22.4733 18.3317C22.396 18.3315 22.3189 18.2677 22.2559 18.2156C23.2982 18.1868 24.3264 18.1757 25.3545 18.1647Z" fill="#331A6E"/>
<path d="M6.92075 18.1975C8.35602 18.1659 9.78135 18.1522 11.2566 18.1387C11.1815 18.1763 11.0566 18.2453 10.9313 18.2464C9.93877 18.255 8.94612 18.244 7.95367 18.2542C7.61443 18.2576 7.27562 18.3045 6.89279 18.3279C6.86957 18.288 6.89019 18.2518 6.92075 18.1975Z" fill="#746393"/>
<path d="M13.8403 4.70368C13.1198 4.57267 12.394 4.545 11.6428 4.81707C11.6015 4.77029 11.6003 4.74555 11.5991 4.72081C12.372 4.18918 13.3004 4.16772 13.8403 4.70368Z" fill="#391E72"/>
<path d="M26.5105 14.7007C26.5368 15.4193 25.7938 16.6887 25.2036 16.8827C25.6053 16.1624 26.045 15.4448 26.5105 14.7007Z" fill="#3B2372"/>
<path d="M8.9232 16.5642C9.18541 16.5407 9.44761 16.5173 9.72357 16.5138C9.5959 16.6136 9.45613 16.7586 9.31278 16.7624C8.50607 16.7833 7.69811 16.7828 6.89155 16.7577C6.73455 16.7528 6.58183 16.6067 6.42725 16.497C6.54637 16.4755 6.66538 16.4827 6.8461 16.5398C7.57961 16.5812 8.2514 16.5727 8.9232 16.5642Z" fill="#391E72"/>
<path d="M17.39 4.03523C16.8462 3.94927 16.2898 3.73926 15.7376 4.15658C15.7325 4.0481 15.6825 3.81918 15.7562 3.76603C16.1802 3.4602 16.9858 3.59514 17.39 4.03523Z" fill="#3E2679"/>
<path d="M18.4622 18.1537C19.2022 18.2027 19.7204 17.7134 20.3006 17.3755C20.4737 17.2747 20.6429 17.1671 20.8501 17.0559C20.2955 17.7113 19.6333 18.2499 18.6459 18.3257C18.5271 18.2859 18.4739 18.2612 18.4316 18.2161C18.4425 18.1956 18.4622 18.1537 18.4622 18.1537Z" fill="#391F6F"/>
<path d="M8.47526 7.51733C7.80783 7.90452 7.48442 8.51035 7.32398 9.29338C7.23792 9.33283 7.19318 9.3328 7.14844 9.33277C7.20061 8.64865 7.46961 8.06456 7.981 7.61726C8.0925 7.51973 8.29749 7.53181 8.47526 7.51733Z" fill="#3B2372"/>
<path d="M21.5219 15.3396C21.248 14.8696 21.2914 14.3676 21.6245 14.1552C22.0911 13.8576 22.6698 14.078 23.0207 14.7226C22.9292 14.7087 22.7879 14.6822 22.7457 14.6021C22.55 14.2308 22.1944 14.1625 21.9144 14.3175C21.7381 14.415 21.7092 14.7858 21.6088 15.0974C21.5763 15.2204 21.5491 15.28 21.5219 15.3396Z" fill="#3D236E"/>
<path d="M11.5636 4.72974C11.6002 4.74556 11.6014 4.7703 11.6042 4.8323C11.1171 5.3293 10.4124 5.6362 10.4817 6.53323C10.1766 6.48777 10.1737 6.27821 10.2787 6.04395C10.5407 5.45943 10.9225 4.98791 11.5636 4.72974Z" fill="#351A6F"/>
<path d="M26.6338 9.83719C26.536 9.04684 26.1082 8.38892 25.7051 7.68518C26.3486 8.05524 26.8538 9.2093 26.6338 9.83719Z" fill="#391F6F"/>
<path d="M10.9038 21.1262C11.645 21.1453 12.3114 20.8719 12.9514 20.4103C12.9198 20.5278 12.8925 20.7089 12.7903 20.781C12.2295 21.1763 11.6242 21.4068 10.9038 21.1262Z" fill="#3A2271"/>
<path d="M25.3126 18.1602C24.3263 18.1758 23.2982 18.1869 22.2235 18.1866C22.1734 18.1427 22.1699 18.1101 22.166 18.0526C23.2006 18.0704 24.2356 18.113 25.3126 18.1602Z" fill="#6D5F8A"/>
<path d="M28.2129 15.7184C28.2796 15.3408 28.4367 14.9509 28.4598 14.5531C28.4798 14.208 28.348 13.8539 28.2968 13.4393C28.3321 13.3215 28.3539 13.2682 28.3756 13.215C28.7342 14.0658 28.8409 14.9031 28.2129 15.7184Z" fill="#321866"/>
<path d="M4.86426 14.5146C4.90422 14.4722 4.9467 14.4712 5.02101 14.4697C5.32801 15.0421 5.60319 15.615 5.89185 16.2205C5.17717 15.9271 5.01157 15.2481 4.86426 14.5146Z" fill="#391F6F"/>
<path d="M18.421 18.2366C18.4741 18.2613 18.5272 18.286 18.6043 18.3271C17.5288 18.3459 16.4295 18.3482 15.3145 18.3223C16.3396 18.275 17.3803 18.2558 18.421 18.2366Z" fill="#2B1169"/>
<path d="M18.4319 18.216C17.3804 18.2557 16.3397 18.2749 15.2667 18.3221C15.2121 18.3498 15.1897 18.3495 15.1338 18.346C15.2459 18.2709 15.3906 18.1388 15.5372 18.1367C16.4776 18.1231 17.4185 18.138 18.4108 18.1486C18.4625 18.1536 18.4428 18.1956 18.4319 18.216Z" fill="#726387"/>
<path d="M21.5044 15.3718C21.5489 15.28 21.5761 15.2204 21.6204 15.1332C21.6839 15.3218 21.7182 15.5418 21.7796 15.7537C21.8804 16.1016 21.7871 16.3549 21.4262 16.526C21.4218 16.1586 21.4544 15.7813 21.5044 15.3718Z" fill="#391F6F"/>
<path d="M24.7663 17.098C24.3047 17.1611 23.8438 17.2293 23.3813 17.2851C23.1733 17.3101 22.9623 17.3104 22.7238 17.2996C22.7009 17.2532 22.707 17.2291 22.7131 17.205C22.7332 17.1963 22.751 17.1843 22.8097 17.1443C22.8969 17.106 22.9411 17.0922 22.9853 17.0785C23.0676 17.0808 23.1499 17.0831 23.3202 17.0858C23.8608 17.0901 24.3136 17.0941 24.7663 17.098Z" fill="#675C8C"/>
<path d="M28.3716 13.1762C28.3536 13.2682 28.3319 13.3214 28.294 13.3987C28.0432 13.0258 27.8085 12.6289 27.5557 12.2012C28.0918 12.2483 28.2281 12.6945 28.3716 13.1762Z" fill="#3D236E"/>
<path d="M7.15771 9.36886C7.19287 9.33269 7.23761 9.33272 7.31593 9.33264C7.47307 9.39852 7.59119 9.47974 7.72127 9.52755C8.06862 9.65521 8.42111 9.76853 8.78969 9.92011C8.26098 9.77014 7.71414 9.5876 7.15771 9.36886Z" fill="#3F2575"/>
<path d="M24.7623 17.0961C24.3136 17.094 23.8609 17.0901 23.3613 17.0835C23.7637 17.0163 24.2128 16.9518 24.7077 16.9233C24.7539 17.0071 24.7543 17.0548 24.7547 17.1024C24.7547 17.1024 24.7583 17.0944 24.7623 17.0961Z" fill="#3F2575"/>
<path d="M9.04102 19.8016C9.17744 19.233 9.443 19.1292 10.1747 19.4018C9.81905 19.5472 9.44495 19.6647 9.04102 19.8016Z" fill="#351C6C"/>
<path d="M25.0942 13.9329C25.4083 13.5258 25.7647 13.5076 26.2809 13.9124C25.9083 13.9411 25.5222 13.934 25.0942 13.9329Z" fill="#351A6F"/>
<path d="M6.20616 18.7979C6.35939 19.0909 6.49497 19.4156 6.63177 19.779C6.27968 19.5829 6.09861 19.2687 6.20616 18.7979Z" fill="#3A2271"/>
<path d="M13.04 20.3972C13.1877 20.1643 13.3709 19.9253 13.5824 19.6741C13.4324 19.905 13.254 20.1481 13.04 20.3972Z" fill="#3D236E"/>
<path d="M10.4236 20.5499C10.4785 20.6926 10.5076 20.8339 10.5561 21.0055C10.4693 21.0174 10.3631 20.9988 10.2568 20.9803C10.3038 20.8363 10.3508 20.6924 10.4236 20.5499Z" fill="#3A2271"/>
<path d="M8.104 20.7798C8.30286 20.6933 8.51965 20.6376 8.77103 20.6024C8.80494 20.6696 8.80426 20.7164 8.80358 20.7632C8.58957 20.9735 8.36739 21.0633 8.104 20.7798Z" fill="#3A2272"/>
<path d="M22.6757 17.2134C22.7067 17.2291 22.7007 17.2532 22.683 17.313C22.5219 17.5004 22.3723 17.6521 22.1685 17.8227C22.1144 17.8416 22.0664 17.8536 22.0664 17.8536C22.2571 17.643 22.4478 17.4324 22.6757 17.2134Z" fill="#3F2575"/>
<path d="M20.9077 17.0473C21.0256 16.8823 21.1785 16.7095 21.367 16.5294C21.2493 16.6947 21.0961 16.8671 20.9077 17.0473Z" fill="#391F6F"/>
<path d="M13.9263 19.1824C14.0402 19.032 14.186 18.8705 14.3646 18.6971C14.251 18.8473 14.1046 19.0093 13.9263 19.1824Z" fill="#3D236E"/>
<path d="M10.2144 19.4825C10.3239 19.591 10.4312 19.7378 10.5179 19.9067C10.4022 19.7929 10.3071 19.6569 10.2144 19.4825Z" fill="#351C6C"/>
<path d="M24.7935 17.1025C24.7539 17.0548 24.7535 17.0071 24.754 16.9238C24.838 16.8862 24.9211 16.8844 25.0454 16.887C25.0021 16.9618 24.9174 17.0321 24.7935 17.1025Z" fill="#675C8C"/>
<path d="M13.6494 19.6644C13.6797 19.5556 13.7409 19.4308 13.8394 19.302C13.8113 19.4148 13.7458 19.5316 13.6494 19.6644Z" fill="#3D236E"/>
<path d="M24.8877 14.2482C24.9042 14.1668 24.9491 14.0682 25.0233 13.954C25.0071 14.0359 24.9616 14.1334 24.8877 14.2482Z" fill="#351A6F"/>
<path d="M7.06104 20.2615C7.13824 20.2847 7.23001 20.3379 7.33609 20.4208C7.2588 20.3975 7.1672 20.3444 7.06104 20.2615Z" fill="#3A2272"/>
<path d="M8.92919 20.2306C8.91993 20.1807 8.93246 20.1213 8.96984 20.0442C8.98012 20.0913 8.96555 20.1563 8.92919 20.2306Z" fill="#351C6C"/>
<path d="M24.9178 14.6233C24.9194 14.6289 24.894 14.6339 24.894 14.6339C24.894 14.6339 24.9161 14.6176 24.9178 14.6233Z" fill="#351A6F"/>
<path d="M5.91211 16.2744C5.95583 16.2805 6.0071 16.3092 6.08295 16.3543C6.04491 16.3462 5.98229 16.3216 5.91211 16.2744Z" fill="#391F6F"/>
<path d="M22.9746 17.0621C22.941 17.0922 22.8969 17.106 22.8198 17.1316C22.8459 17.1109 22.9049 17.0783 22.9746 17.0621Z" fill="#3F2575"/>
<path d="M6.88135 20.1124C6.91689 20.117 6.96925 20.1473 7.03563 20.2061C6.99916 20.2025 6.94867 20.1703 6.88135 20.1124Z" fill="#3A2271"/>
<path d="M8.8194 20.7372C8.80427 20.7164 8.80496 20.6696 8.80633 20.5877C8.80702 20.5526 8.84728 20.54 8.86821 20.5388C8.87116 20.5955 8.85318 20.6533 8.8194 20.7372Z" fill="#351C6C"/>
<path d="M7.58594 20.57C7.62226 20.5678 7.68393 20.5833 7.76532 20.6245C7.72712 20.6294 7.66921 20.6086 7.58594 20.57Z" fill="#3A2272"/>
<path d="M10.7119 6.92837C10.7417 6.92758 10.7579 6.94515 10.7716 6.98717C10.7526 6.98335 10.729 6.96172 10.7119 6.92837Z" fill="#351A6F"/>
<path d="M7.37598 20.4704C7.41159 20.4683 7.47045 20.484 7.54525 20.5263C7.5072 20.5314 7.45321 20.5098 7.37598 20.4704Z" fill="#3A2272"/>
<path d="M22.0717 17.8807C22.0663 17.8536 22.1143 17.8416 22.1387 17.8375C22.1645 17.8792 22.1659 17.9249 22.1684 18.005C22.1387 17.9955 22.1079 17.9516 22.0717 17.8807Z" fill="#6D5F8A"/>
<path d="M6.64209 19.8435C6.67544 19.8567 6.72014 19.8979 6.7703 19.9701C6.73498 19.9579 6.69421 19.9147 6.64209 19.8435Z" fill="#3A2271"/>
<path d="M7.99414 20.6941C8.01296 20.6727 8.04321 20.6839 8.07851 20.7362C8.06251 20.7448 8.03653 20.7281 7.99414 20.6941Z" fill="#3A2272"/>
<path d="M8.90908 20.3162C8.89644 20.3138 8.88421 20.2862 8.88941 20.2497C8.90684 20.2407 8.90949 20.291 8.90908 20.3162Z" fill="#351C6C"/>
<path d="M6.771 20.0176C6.78942 20.0133 6.82365 20.0312 6.8639 20.0791C6.84222 20.086 6.81451 20.0629 6.771 20.0176Z" fill="#3A2271"/>
<path d="M9.01015 19.9024C8.99065 19.9111 8.97134 19.8941 8.9569 19.8736C8.95396 19.8694 8.96934 19.852 8.99361 19.8311C9.01131 19.8395 9.01168 19.8575 9.01015 19.9024Z" fill="#351C6C"/>
<path d="M25.6539 7.55823C25.6398 7.55914 25.6052 7.53773 25.5537 7.49025C25.569 7.48809 25.6013 7.51201 25.6539 7.55823Z" fill="#391F6F"/>
<path d="M24.7802 14.3465C24.7652 14.3249 24.7817 14.2994 24.8346 14.2751C24.8405 14.2922 24.8209 14.3142 24.7802 14.3465Z" fill="#351A6F"/>
<path d="M6.21446 18.2475C6.21446 18.2475 6.20762 18.2509 6.21081 18.249C6.21401 18.2471 6.21446 18.2475 6.21446 18.2475Z" fill="#3A2271"/>
<path d="M6.21338 18.2478C6.21319 18.2475 6.22017 18.2434 6.21711 18.246C6.21405 18.2486 6.21357 18.2481 6.21338 18.2478Z" fill="#3A2271"/>
<path d="M13.5504 9.96483C13.4516 10.347 13.2903 10.7254 13.2677 11.1121C13.227 11.811 12.9227 12.2827 12.2328 12.581C11.4866 12.9751 10.8118 13.3532 10.1008 13.7381C9.85264 13.9523 9.59587 14.1302 9.43938 14.374C9.21449 14.7245 8.96561 14.891 8.55174 14.7705C8.39143 14.7238 8.21758 14.7248 8.0499 14.704C8.02208 14.6918 7.99718 14.6751 7.967 14.5945C7.96437 14.4806 7.96993 14.4261 7.97237 14.3328C8.00487 13.933 8.04048 13.5722 8.07609 13.2113C8.07609 13.2113 8.07759 13.2138 8.11414 13.2051C9.14404 12.7388 10.1572 12.3192 11.1197 11.8027C11.4466 11.6273 11.6458 11.2077 11.9036 10.8641C11.873 10.7166 11.8421 10.6047 11.801 10.488C11.7907 10.4833 11.7684 10.4804 11.7684 10.4804C11.7846 10.4369 11.8009 10.3934 11.8532 10.2961C11.9509 10.1398 12.0365 10.0447 12.0695 9.93349C12.1795 9.56313 12.405 9.25741 12.7845 9.31483C13.0101 9.34896 13.1974 9.64499 13.4011 9.82418C13.4524 9.86929 13.5007 9.91786 13.5504 9.96483Z" fill="#A158CA"/>
<path d="M19.21 13.0047C18.9671 13.2504 18.7011 13.4775 18.4877 13.7472C18.2717 14.0204 18.1076 14.3357 17.8766 14.6863C17.6147 14.7674 17.3968 14.7947 17.1812 14.7741C17.1998 14.3414 17.2343 13.9672 16.6864 13.902C16.5618 13.8871 16.4636 13.6451 16.356 13.4711C16.4989 13.2265 16.639 13.0185 16.7792 12.8104C17.1204 12.5802 17.4618 12.3503 17.8025 12.1193C17.8843 12.0639 17.9636 12.0045 18.1073 11.9536C18.4501 11.8136 18.747 11.693 19.0056 11.5153C19.5839 11.1178 20.1432 10.6919 20.7481 10.2864C21.037 10.3589 21.288 10.4226 21.5517 10.4914C21.5644 10.4964 21.6045 10.4987 21.6045 10.4987C21.6045 10.4987 21.6429 10.4861 21.6435 10.4863C21.644 10.4865 21.644 10.4851 21.6824 10.4862C21.7719 10.4884 21.8231 10.4896 21.8743 10.4907C21.5795 10.7949 21.2847 11.0991 20.9391 11.3853C20.8119 11.3618 20.7043 11.3202 20.6639 11.3562C20.1895 11.7786 19.7186 12.2057 19.2655 12.6511C19.1978 12.7176 19.2261 12.8843 19.21 13.0047Z" fill="#DE3B33"/>
<path d="M17.1788 14.822C17.3967 14.7947 17.6145 14.7673 17.8608 14.7186C18.0592 15.33 17.6709 16.1311 16.8937 16.6196C16.6961 16.5758 16.5485 16.5208 16.4083 16.5359C15.3927 16.6452 14.7723 16.2956 14.3319 15.3605C14.2682 15.2254 14.1605 15.1116 14.0732 14.9879C14.0776 14.9095 14.082 14.8312 14.1086 14.6813C14.1094 14.4229 14.0879 14.2361 14.0664 14.0494C14.4122 13.2407 14.9453 12.6683 15.8953 12.6271C15.5357 13.0863 15.4941 13.6 15.501 14.1619C15.2219 14.6792 15.2944 15.0949 15.6843 15.3145C16.1293 15.5651 16.425 15.3359 16.6998 14.9589C16.88 14.9041 17.0294 14.8631 17.1788 14.822Z" fill="#A158CA"/>
<path d="M21.5388 10.4863C21.2877 10.4226 21.0367 10.359 20.7671 10.2587C20.84 10.0695 20.9315 9.91693 21.023 9.76436C21.34 9.4889 21.6377 9.18381 21.9837 8.95298C22.1169 8.86411 22.3601 8.94418 22.5578 9.01044C22.4276 9.35408 22.3162 9.6498 22.1507 9.91028C22.0151 10.1237 21.8152 10.2951 21.6437 10.4851C21.6437 10.4851 21.6437 10.4865 21.6172 10.4862C21.5734 10.486 21.5561 10.4862 21.5388 10.4863Z" fill="#D63939"/>
<path d="M11.9031 10.8996C11.6456 11.2077 11.4465 11.6273 11.1196 11.8027C10.1571 12.3192 9.14392 12.7388 8.11279 13.2042C8.45879 12.9934 8.84065 12.7713 9.22675 12.557C9.91043 12.1775 10.6254 11.8456 11.2668 11.4038C11.5026 11.2415 11.5671 10.8244 11.739 10.5019C11.7682 10.4804 11.7906 10.4833 11.802 10.5235C11.8434 10.6757 11.8733 10.7877 11.9031 10.8996Z" fill="#371E70"/>
<path d="M15.5312 14.1353C15.4942 13.6001 15.5358 13.0864 15.936 12.6339C16.2024 12.6572 16.4565 12.7142 16.7449 12.7909C16.6389 13.0185 16.4987 13.2266 16.3271 13.4881C16.1741 13.6708 16.0526 13.8 15.9046 13.9488C15.7625 14.0239 15.6469 14.0796 15.5312 14.1353Z" fill="#8349A4"/>
<path d="M20.9871 9.7655C20.9318 9.91697 20.8403 10.0695 20.7295 10.2498C20.1432 10.6919 19.5839 11.1178 19.0056 11.5153C18.747 11.6931 18.4501 11.8136 18.144 11.946C19.062 11.2101 20.0065 10.4883 20.9871 9.7655Z" fill="#E02F23"/>
<path d="M14.0566 15.0155C14.1605 15.1117 14.2682 15.2255 14.3319 15.3606C14.7723 16.2957 15.3927 16.6453 16.4083 16.536C16.5485 16.5209 16.6961 16.5759 16.8599 16.6278C15.7286 17.0796 14.3079 16.6208 14.0566 15.0155Z" fill="#3A1B70"/>
<path d="M8.06738 14.7371C8.21741 14.7248 8.39126 14.7238 8.55157 14.7705C8.96544 14.891 9.21432 14.7245 9.43921 14.374C9.5957 14.1302 9.85247 13.9523 10.1035 13.7634C10.1426 13.7819 10.1473 13.8326 10.1473 13.8326C10.0136 13.9846 9.83617 14.1156 9.75347 14.2921C9.34423 15.1655 8.90464 15.2998 8.06738 14.7371Z" fill="#3F2575"/>
<path d="M13.5577 9.92378C13.5007 9.91793 13.4524 9.86936 13.4011 9.82425C13.1974 9.64506 13.0101 9.34903 12.7845 9.3149C12.405 9.25748 12.1795 9.5632 12.0695 9.93356C12.0365 10.0447 11.9509 10.1399 11.8613 10.2622C11.8436 9.47218 12.0757 9.17288 12.7383 9.11491C13.2959 9.06612 13.5338 9.28704 13.5577 9.92378Z" fill="#351A6F"/>
<path d="M19.2353 12.9867C19.2257 12.8844 19.1974 12.7177 19.2651 12.6512C19.7182 12.2058 20.1891 11.7787 20.6635 11.3562C20.7039 11.3203 20.8115 11.3619 20.9031 11.3897C20.3659 11.9308 19.8135 12.4497 19.2353 12.9867Z" fill="#E33327"/>
<path d="M10.1854 13.8329C10.1477 13.8326 10.143 13.7819 10.1401 13.7565C10.812 13.3532 11.4868 12.9751 12.2013 12.5964C11.5683 13.0082 10.8957 13.4207 10.1854 13.8329Z" fill="#3A2271"/>
<path d="M21.6821 10.4862C21.8152 10.2951 22.0152 10.1237 22.1508 9.91029C22.3163 9.64981 22.4277 9.35409 22.5759 9.04468C22.8747 9.43809 22.8113 9.74976 22.3633 10.1181C22.2221 10.2342 22.0783 10.3473 21.9049 10.4762C21.8229 10.4896 21.7717 10.4885 21.6821 10.4862Z" fill="#D62D2B"/>
<path d="M8.89566 16.5294C8.25149 16.5727 7.57969 16.5812 6.86963 16.5684C7.51025 16.5296 8.18914 16.5121 8.89566 16.5294Z" fill="#6D5E93"/>
<path d="M8.04781 13.2217C8.04074 13.5721 8.00513 13.933 7.95005 14.3113C7.84663 14.2711 7.76267 14.2134 7.67871 14.1558C7.79223 13.8479 7.90575 13.54 8.04781 13.2217Z" fill="#371E70"/>
<path d="M14.0405 14.0746C14.088 14.2362 14.1094 14.423 14.1151 14.6426C14.071 14.4836 14.0428 14.2916 14.0405 14.0746Z" fill="#3A1B70"/>
<path d="M7.67871 14.1906C7.76229 14.2135 7.84625 14.2711 7.95279 14.3502C7.96982 14.4261 7.96426 14.4806 7.95405 14.5758C7.8593 14.4862 7.76919 14.3557 7.67871 14.1906Z" fill="#3F2575"/>
<path d="M11.9037 10.8641C11.8735 10.7876 11.8436 10.6757 11.8125 10.5282C11.8422 10.6047 11.8731 10.7166 11.9037 10.8641Z" fill="#351A6F"/>
<path d="M15.9312 13.9292C16.0527 13.8 16.1742 13.6707 16.3245 13.5245C16.4636 13.6451 16.5618 13.8871 16.6864 13.9019C17.2343 13.9672 17.1998 14.3414 17.1812 14.7741C17.0296 14.8631 16.8801 14.9041 16.7045 14.9208C16.5619 14.469 16.4496 14.0382 15.9312 13.9292Z" fill="#D23532"/>
<path d="M21.5518 10.4914C21.5564 10.4862 21.5737 10.4861 21.617 10.4861C21.6429 10.4862 21.6045 10.4988 21.6045 10.4988C21.6045 10.4988 21.5644 10.4965 21.5518 10.4914Z" fill="#D62D2B"/>
<path d="M15.9044 13.9487C16.4493 14.0383 16.5616 14.469 16.6735 14.9346C16.4249 15.336 16.1291 15.5652 15.6842 15.3145C15.2943 15.0949 15.2218 14.6793 15.5009 14.162C15.6467 14.0796 15.7623 14.0239 15.9044 13.9487Z" fill="#030203"/>
</g>
<defs>
<clipPath id="clip0_236_127">
<rect width="32" height="28" fill="white"/>
</clipPath>
</defs>
</svg>
