<svg width="48" height="42" viewBox="0 0 48 42" fill="none" xmlns="http://www.w3.org/2000/svg">
<g clip-path="url(#clip0_236_247)">
<path d="M25.09 3.31392C24.6295 3.34637 24.1036 3.36518 23.5215 3.35971C23.985 3.32371 24.5048 3.312 25.09 3.31392Z" fill="#351C6C"/>
<path d="M25.6302 3.42152C25.608 3.43744 25.5674 3.4173 25.5034 3.36881C25.529 3.33739 25.5728 3.35239 25.6302 3.42152Z" fill="#351C6C"/>
<path d="M25.6518 3.45067C26.3381 3.67034 27.0189 3.91062 27.7131 4.10078C28.0483 4.19261 28.4087 4.19018 28.8641 4.22554C29.2048 4.1883 29.4391 4.15596 29.6734 4.12361C29.9397 4.12065 30.2061 4.11768 30.578 4.15581C31.3842 4.42104 32.0849 4.64519 32.7855 4.86933C32.7855 4.86933 32.7765 4.87237 32.8046 4.91413C33.1231 5.14018 33.4135 5.32446 33.704 5.50875C33.704 5.50875 33.7095 5.5061 33.7267 5.55614C33.9938 5.83313 34.2437 6.06008 34.4935 6.28702C34.4935 6.28702 34.4869 6.29271 34.4909 6.34139C34.5889 6.57024 34.6828 6.75041 34.7851 6.98933C34.9604 7.29482 35.0828 7.69756 35.3018 7.76156C36.3049 8.05474 37.3351 8.25308 38.3555 8.48548C39.0594 9.09942 39.7632 9.71335 40.5182 10.4054C40.9805 11.4482 41.3918 12.4128 41.8031 13.3775C41.8562 13.6908 41.9092 14.0041 41.9542 14.4436C41.7698 15.8221 42.0303 16.2861 43.3077 16.9949C43.3456 17.0806 43.3834 17.1664 43.4677 17.3365C44.1913 18.7854 44.7532 20.1755 44.5868 21.7582C44.5161 22.431 44.4953 23.1092 44.4518 23.785C43.9835 24.6442 43.4906 25.491 43.0585 26.3685C42.8769 26.7373 42.8237 27.171 42.6661 27.6745C42.5523 27.9667 42.4731 28.1564 42.4188 28.3532C42.1432 29.3519 41.8731 30.3522 41.6034 31.3526C41.5096 31.7005 41.4227 32.0503 41.3326 32.3992C40.7509 32.9728 40.2013 33.5854 39.5789 34.1093C38.8922 34.6874 38.1386 35.184 37.313 35.7137C36.068 35.9535 34.9161 36.1643 33.7863 36.4611C33.5144 36.5326 33.3156 36.8896 33.0453 37.1531C32.974 37.4609 32.8661 37.7467 32.9191 37.9978C33.2124 39.389 33.5449 40.7717 33.864 42.1574C33.0321 42.1574 32.2003 42.1574 31.2958 42.1574C30.2003 41.0371 29.1775 39.9168 28.1484 38.7077C27.7572 37.721 27.0931 37.0818 26.2062 36.7594C25.2472 36.4108 24.2451 36.184 23.2618 35.9041C22.7723 35.3703 21.9712 34.8838 21.8834 34.2892C21.8 33.7251 22.4342 33.0287 22.8142 32.4304C22.9502 32.2163 23.2655 32.119 23.6106 31.942C24.255 31.7757 24.7877 31.6359 25.3204 31.4961C25.8942 31.4897 26.468 31.4832 27.1619 31.4993C27.5487 31.4385 27.8152 31.3552 28.0817 31.272C28.8372 30.568 28.8666 30.3843 28.2825 29.788C28.2629 29.6691 28.2657 29.6411 28.213 29.58C26.5764 29.513 24.9954 29.4713 23.4143 29.459C23.2762 29.458 23.1367 29.6502 22.9978 29.7526C22.5447 30.2927 22.0916 30.8329 21.5538 31.4291C21.2484 31.6619 21.0093 31.8197 20.8099 32.0185C19.8617 32.9642 18.7019 33.434 17.3987 33.4849C16.2136 33.5312 15.0245 33.463 13.8375 33.4743C13.5732 33.4768 13.3101 33.6008 13.0464 33.6689C11.9225 33.5183 10.7818 33.4189 9.8112 32.5313C9.6939 32.3692 9.65668 32.2609 9.58194 32.1992C8.25299 31.1014 7.43833 29.7219 7.26965 27.9704C7.25462 27.8142 7.09538 27.6723 7.00311 27.5238C7.19412 26.71 7.08478 25.9858 6.39339 25.3403C6.02305 24.1189 5.65463 22.9918 5.28613 21.7926C5.4664 20.6262 5.65098 19.5324 5.82349 18.4368C5.85794 18.218 5.84632 17.9918 5.85594 17.769C6.51232 16.4875 7.54594 15.5638 8.73863 14.6411C9.02932 13.4797 9.25225 12.404 9.47517 11.3283C9.47517 11.3283 9.47377 11.3234 9.51757 11.2936C9.7379 10.9663 9.91444 10.6689 10.091 10.3714C10.091 10.3714 10.0938 10.3807 10.1337 10.359C10.254 10.2062 10.3345 10.075 10.4149 9.94382C10.4149 9.94382 10.4231 9.91841 10.4563 9.89201C10.5171 9.83723 10.5416 9.80623 10.5628 9.77262C11.4474 9.29098 12.3321 8.80934 13.3242 8.30582C13.5628 8.09204 13.6941 7.90014 13.8253 7.70824C13.8253 7.70824 13.8251 7.7079 13.8668 7.67841C14.0098 7.43689 14.111 7.22487 14.2122 7.01284C14.2122 7.01284 14.2263 7.02087 14.2714 7.00465C14.6685 6.59648 15.0205 6.20452 15.3725 5.81257C15.3725 5.81257 15.3683 5.8178 15.4222 5.80304C16.3728 5.42993 17.2696 5.07158 18.236 4.71411C18.8812 4.6183 19.4567 4.52161 20.0321 4.42492C20.1 4.41372 20.1679 4.40251 20.3315 4.40951C20.8678 4.26578 21.3084 4.10384 21.8076 3.93393C22.2936 3.72921 22.721 3.53246 23.1484 3.33571C23.2188 3.33365 23.2892 3.33158 23.4687 3.3568C24.1036 3.36526 24.6295 3.34645 25.1554 3.32764C25.227 3.32861 25.2986 3.32958 25.45 3.3604C25.5671 3.41734 25.6078 3.43748 25.6518 3.45067ZM9.31153 27.375C9.31153 27.375 9.32088 27.3713 9.32871 27.3661C9.32871 27.3661 9.31977 27.3702 9.31153 27.375ZM10.1802 30.0597C10.2218 30.0944 10.2633 30.1291 10.284 30.1512C10.284 30.1512 10.2966 30.1301 10.347 30.2072C10.4228 30.2554 10.4985 30.3037 10.5652 30.3567C10.5652 30.3567 10.5696 30.3474 10.6133 30.4371C10.7507 30.5166 10.8881 30.5962 11.0309 30.6733C11.0309 30.6733 11.0291 30.679 11.0988 30.7323C11.1798 30.7648 11.2608 30.7972 11.3393 30.8317C11.3393 30.8317 11.3405 30.8285 11.4165 30.8818C11.5034 30.913 11.5903 30.9442 11.7731 30.9881C11.8368 30.9985 11.9005 31.0089 12.0183 31.063C12.0548 31.0921 12.0938 31.1173 12.1246 31.1342C12.1246 31.1342 12.1288 31.1234 12.1826 31.2161C12.5508 31.595 12.8841 31.4602 13.2525 31.0668C13.2795 30.98 13.3064 30.8933 13.3525 30.7093C13.3559 30.6435 13.3593 30.5778 13.3639 30.4365C13.3639 30.4365 13.36 30.3611 13.359 30.3594C13.359 30.3594 13.3608 30.3602 13.4261 30.3319C13.448 30.2345 13.4698 30.1371 13.506 29.9675C13.506 29.9675 13.5121 29.8941 13.5178 29.8132C13.5173 29.7862 13.5167 29.7592 13.5144 29.7303C13.5144 29.7303 13.5166 29.7316 13.6061 29.6732C14.1673 29.497 14.7284 29.3208 15.3136 29.145C15.3136 29.145 15.3252 29.1662 15.3182 29.2813C15.4609 29.4853 15.6036 29.6893 15.7343 30.0031C15.7142 30.2778 15.6942 30.5524 15.5965 30.8227C15.5261 31.0386 15.4557 31.2545 15.3852 31.4704C15.5446 31.4982 15.704 31.526 15.9718 31.5951C16.0859 31.6142 16.2 31.6333 16.3971 31.7262C17.4361 32.1102 18.3441 31.7644 19.1853 31.1715C19.3387 31.0634 19.3796 30.7917 19.494 30.5833C19.494 30.5833 19.5062 30.605 19.6129 30.5869C19.8805 30.2223 20.148 29.8576 20.4352 29.5008C20.4352 29.5008 20.4273 29.5207 20.5199 29.4726C20.6182 29.2974 20.7164 29.1222 20.8327 28.8694C20.8357 28.843 20.8387 28.8167 20.9372 28.757C21.1569 28.514 21.3766 28.271 21.6801 27.9572C22.0034 27.8096 22.3267 27.6621 22.7504 27.5238C22.784 27.5243 22.8176 27.5248 22.9948 27.5257C24.6439 27.5223 26.293 27.5188 28.0675 27.5111C29.45 27.375 30.4432 26.5669 31.3235 25.5887C31.3235 25.5887 31.3088 25.5827 31.4142 25.5593C31.6441 25.3007 31.874 25.042 32.104 24.804C32.104 24.804 32.0837 24.804 32.1945 24.7742C32.6805 24.5325 32.8204 24.1525 32.6693 23.6306C32.5772 23.3128 32.5257 22.9829 32.4209 22.551C32.5634 22.1787 32.6068 21.6226 32.8712 21.4763C33.2913 21.2439 33.8246 21.3462 34.1182 21.9033C34.1815 22.0234 34.3933 22.0632 34.6027 22.2403C34.7376 22.7197 34.5503 23.3686 35.3761 23.4436C36.563 23.5513 36.8022 23.3849 36.9823 22.1331C37.0112 21.9317 37.0887 21.7374 37.1964 21.4998C37.231 21.4715 37.2605 21.4385 37.282 21.3931C37.282 21.3931 37.2885 21.3982 37.3737 21.3463C37.4419 21.2 37.5102 21.0538 37.5922 20.9209C37.5922 20.9209 37.5781 20.9083 37.704 20.8905C38.283 20.9011 38.8621 20.9116 39.5058 21.0196C39.6053 21.3502 39.7048 21.6808 39.7274 22.0908C39.0678 23.1673 38.4081 24.2437 37.6903 25.3355C37.6903 25.3355 37.6303 25.3373 37.5063 25.3239C37.3818 25.3267 37.2572 25.3294 36.9926 25.331C36.3189 25.4278 35.6451 25.5245 34.848 25.6281C34.7245 25.6246 34.601 25.6212 34.4455 25.5687C34.3571 25.6175 34.2686 25.6664 34.1495 25.7532C34.1261 25.7764 34.0994 25.7945 33.9579 25.8326C33.6718 26.1486 33.3857 26.4645 33.1159 26.8617C33.1621 26.9275 33.2083 26.9933 33.2426 27.0537C33.2426 27.0537 33.2479 27.0417 33.2496 27.1162C33.2546 27.1651 33.2597 27.2141 33.3621 27.3503C33.4779 27.4017 33.5936 27.4974 33.7096 27.4978C35.1436 27.5022 36.5836 27.5708 38.0093 27.4575C38.8547 27.3903 39.7217 27.1147 40.3217 26.2217C40.9713 25.3482 41.621 24.4747 42.3671 23.5539C43.2608 22.3547 43.1008 21.0987 42.5517 19.7064C42.342 19.0419 42.1376 18.3727 41.1985 18.2125C40.3026 18.0206 39.4066 17.8288 38.4094 17.5801C38.041 17.4896 37.6768 17.3617 37.3031 17.3183C36.871 17.2682 36.3953 17.3929 36.0046 17.2528C35.6865 17.1387 35.3059 16.7812 35.2392 16.4689C35.1391 16.0007 35.4669 15.6368 35.999 15.5941C36.2291 15.5756 36.4619 15.5668 36.6923 15.578C37.5381 15.6192 38.3834 15.7004 39.2291 15.7031C39.5612 15.7042 40.1017 15.7691 39.92 14.9921C39.9176 14.9246 39.9153 14.8571 39.9883 14.7221C40.2806 13.814 39.5228 12.0829 38.5332 11.4242C38.5332 11.4242 38.5111 11.3709 38.4499 11.304C38.4015 11.2681 38.3532 11.2323 38.2175 11.1443C37.9205 10.9394 37.6236 10.7344 37.3265 10.5297C36.4211 9.90566 36.0916 10.0045 35.5282 10.9203C35.2225 11.4173 34.7712 11.7463 34.1047 11.6167C33.406 11.4808 33.2198 11.0251 33.2407 10.3923C33.2503 10.1046 33.2497 9.81654 33.2573 9.52874C33.3028 7.79802 31.0323 5.77824 29.4371 6.76072C29.5112 7.43682 29.6341 8.12259 29.6514 8.81108C29.6829 10.0677 29.6517 11.326 29.5633 12.6517C29.5177 12.7141 29.4427 12.7715 29.4312 12.8398C29.3374 13.3999 29.0978 13.7663 28.4564 13.6684C27.7614 13.5624 27.86 13.013 27.8008 12.5283C27.7261 11.9168 27.6106 11.3104 27.4893 10.5693C27.4379 10.1598 27.3736 9.7514 27.3377 9.34049C27.2327 8.13971 27.2311 6.90192 26.0699 6.00106C25.4786 5.39282 24.2702 5.19042 23.6342 5.64916C23.5237 5.72889 23.5986 6.07226 23.6426 6.38739C24.3128 6.87582 24.9905 7.34373 25.093 8.29241C25.1802 9.10004 24.5915 10.1815 23.9236 10.3438C23.1369 10.535 22.592 10.1916 22.2519 9.15857C21.9696 8.30134 21.7155 7.46363 20.7429 7.00399C19.9503 6.25168 18.5577 6.28388 17.2923 7.10807C16.3837 7.48195 15.811 8.18923 15.418 9.06601C15.2605 9.4174 15.2648 9.73175 15.795 9.93188C15.8892 10.0796 15.9835 10.2273 16.0581 10.4102C16.0935 10.4426 16.1289 10.4751 16.1823 10.5143C16.1823 10.5143 16.19 10.5322 16.1755 10.6709C16.1639 10.9318 16.1859 11.2001 16.1311 11.4513C16.0777 11.696 15.9964 11.9679 15.8393 12.15C15.2673 12.8129 14.3794 12.5929 13.981 11.7485C13.842 11.4539 13.9107 10.7746 13.1305 11.2075C12.9991 11.2423 12.8677 11.2771 12.6888 11.2401C12.4459 11.2977 12.1384 11.2796 11.9711 11.4259C11.204 12.0968 10.8005 12.9729 10.751 14.1077C11.5713 14.3815 12.3916 14.6553 13.2184 14.9286C13.2184 14.9286 13.2186 14.9353 13.2261 15.0617C13.4456 16.4705 13.2779 16.6685 11.8606 16.6722C11.3692 16.6735 10.8742 16.6384 10.3878 16.6887C10.1332 16.7149 9.89365 16.8901 9.55865 17.0213C7.7818 17.3039 6.76644 20.1496 7.30038 21.834C7.51756 22.8722 7.76596 23.8907 8.85361 24.382C8.85361 24.382 8.85672 24.3777 8.87939 24.4457C8.97332 24.4825 9.06725 24.5194 9.26146 24.577C9.38796 24.6188 9.51446 24.6607 9.64063 24.7888C9.87267 24.9102 10.1017 25.1293 10.3373 25.1367C11.5471 25.1744 12.759 25.175 13.9691 25.1437C14.1841 25.1381 14.3938 24.9205 14.7458 24.817C15.586 24.9967 16.4126 24.6505 17.2792 24.8101C17.9778 24.9389 18.4662 25.2093 18.6254 25.849C18.7951 26.531 18.246 26.8467 17.6231 27.0365C17.5277 27.0002 17.4316 26.9305 17.337 26.9326C15.1637 26.9799 12.9904 27.0318 10.8175 27.0959C10.6753 27.1001 10.5361 27.2092 10.3657 27.3233C10.3348 27.3777 10.3039 27.4321 10.1476 27.5151C9.73136 27.5353 9.25552 27.4773 9.28265 28.2443C9.14781 28.9031 9.41941 29.3743 9.94254 29.731C9.94254 29.731 9.94589 29.7234 9.97995 29.8073C10.0411 29.8721 10.1023 29.937 10.1438 30.0131C10.1438 30.0131 10.1328 29.9932 10.1802 30.0597ZM37.3744 21.9264L37.3413 21.9508C37.3413 21.9508 37.3793 21.9433 37.3744 21.9264Z" fill="#A158CA"/>
<path d="M33.9157 42.1574C33.5449 40.7717 33.2124 39.389 32.9191 37.9978C32.8661 37.7467 32.974 37.4609 33.0998 37.1608C33.2284 37.1356 33.2648 37.1405 33.3011 37.1455C33.4873 38.2047 33.6708 39.2644 33.8606 40.3229C33.9646 40.903 34.0793 41.4811 34.1819 42.1087C34.1056 42.1574 34.0365 42.1574 33.9157 42.1574Z" fill="#341B68"/>
<path d="M13.0825 33.713C13.3104 33.6008 13.5735 33.4767 13.8378 33.4742C15.0248 33.4629 16.2139 33.5312 17.399 33.4849C18.7022 33.4339 19.862 32.9642 20.8102 32.0185C21.0096 31.8197 21.2487 31.6618 21.5192 31.4696C21.2986 32.3888 20.5215 32.8272 19.7718 33.2555C19.3845 33.4768 18.9114 33.544 18.343 33.668C16.9479 33.6609 15.6869 33.6667 14.4259 33.6725C13.99 33.7007 13.5542 33.7289 13.0825 33.713Z" fill="#3A1E6A"/>
<path d="M44.4982 23.7509C44.4956 23.1091 44.5164 22.4309 44.5872 21.7581C44.7535 20.1754 44.1916 18.7853 43.5054 17.3645C43.9383 18.1345 44.4993 18.9196 44.7947 19.7965C45.2339 21.1001 45.1025 22.4407 44.4982 23.7509Z" fill="#391F6B"/>
<path d="M23.2695 35.9584C24.2453 36.1839 25.2474 36.4107 26.2064 36.7593C27.0933 37.0817 27.7574 37.7209 28.1265 38.66C27.6688 38.3106 27.2706 37.8438 26.7728 37.5509C26.2929 37.2686 25.7209 37.1126 25.1698 36.9973C24.437 36.8441 23.7228 36.7088 23.2695 35.9584Z" fill="#351C6C"/>
<path d="M6.99219 27.5808C7.09567 27.6723 7.25491 27.8142 7.26994 27.9703C7.43862 29.7218 8.25328 31.1013 9.58223 32.1991C9.65697 32.2608 9.69419 32.3691 9.76765 32.5045C9.2209 32.1026 8.5808 31.7201 8.10597 31.1866C7.22392 30.1957 7.04881 28.922 6.99219 27.5808Z" fill="#3D236E"/>
<path d="M41.3848 32.387C41.4225 32.0503 41.5095 31.7005 41.6033 31.3526C41.873 30.3522 42.1431 29.3519 42.4187 28.3531C42.473 28.1564 42.5522 27.9667 42.6584 27.7307C42.5729 28.6536 42.5262 29.6388 42.2977 30.5786C42.144 31.2106 41.733 31.7783 41.3848 32.387Z" fill="#341B68"/>
<path d="M33.345 37.1168C33.2649 37.1404 33.2285 37.1355 33.1377 37.1228C33.3156 36.8894 33.5144 36.5325 33.7864 36.461C34.9162 36.1642 36.0681 35.9534 37.2596 35.7263C36.5827 36.0423 35.8687 36.3737 35.1301 36.6336C34.5658 36.8321 33.9704 36.94 33.345 37.1168Z" fill="#371C6B"/>
<path d="M9.42679 11.3539C9.2523 12.4039 9.02938 13.4797 8.76213 14.5928C8.22765 13.3987 8.67738 12.3629 9.42679 11.3539Z" fill="#3A2272"/>
<path d="M5.28622 21.8647C5.65464 22.9918 6.02306 24.1189 6.37517 25.2888C5.96927 24.4971 5.56179 23.6704 5.20048 22.8234C5.0846 22.5518 5.09075 22.2268 5.1132 21.8902C5.21896 21.8578 5.25259 21.8612 5.28622 21.8647Z" fill="#3B2372"/>
<path d="M38.334 8.43602C37.3353 8.25308 36.3051 8.05474 35.302 7.76156C35.083 7.69756 34.9606 7.29482 34.833 6.98436C34.904 6.91701 34.9356 6.9134 34.9673 6.90979C35.2374 7.30523 35.5521 7.50806 36.0763 7.59606C36.8437 7.72485 37.569 8.11042 38.334 8.43602Z" fill="#351C6C"/>
<path d="M41.8411 13.3403C41.3917 12.4128 40.9804 11.4481 40.5688 10.4216C41.155 11.2726 41.89 12.1176 41.8411 13.3403Z" fill="#321866"/>
<path d="M5.28625 21.7926C5.2527 21.8612 5.21907 21.8577 5.13516 21.8481C4.99178 20.8178 4.90355 19.796 5.35886 18.8208C5.51355 18.4894 5.63874 18.144 5.81674 17.787C5.84644 17.9918 5.85806 18.218 5.82361 18.4367C5.6511 19.5324 5.46652 20.6261 5.28625 21.7926Z" fill="#351C6C"/>
<path d="M43.3144 16.9448C42.0305 16.286 41.77 15.822 41.9535 14.5051C42.248 15.353 42.5261 16.2707 43.3144 16.9448Z" fill="#3D236E"/>
<path d="M23.0356 29.7436C23.1365 29.6501 23.2761 29.4579 23.4141 29.459C24.9953 29.4713 26.5762 29.513 28.1408 29.5696C27.0709 29.587 26.0173 29.5649 24.9644 29.5829C24.3588 29.5933 23.7542 29.6688 23.1492 29.7151C23.124 29.7216 23.0988 29.7281 23.0356 29.7436Z" fill="#2B1169"/>
<path d="M18.1667 4.71318C17.2699 5.07153 16.3731 5.42989 15.4224 5.79958C16.0375 5.38601 16.704 4.95653 17.3784 4.54029C17.5037 4.46296 17.6611 4.43893 17.867 4.42578C18.0091 4.54524 18.0879 4.62921 18.1667 4.71318Z" fill="#311969"/>
<path d="M23.2212 29.7274C23.7543 29.6689 24.3588 29.5933 24.9644 29.5829C26.0174 29.5649 27.071 29.587 28.1964 29.6027C28.2657 29.6411 28.2628 29.6691 28.2633 29.7393C26.6088 29.7676 24.951 29.7537 23.2212 29.7274Z" fill="#6E668A"/>
<path d="M14.4624 33.7279C15.6869 33.6667 16.9478 33.6609 18.2827 33.6648C17.6986 33.7665 17.0422 33.9141 16.382 33.9344C15.7564 33.9535 15.1268 33.839 14.4624 33.7279Z" fill="#70608F"/>
<path d="M18.2359 4.714C18.0875 4.62915 18.0087 4.54518 17.9043 4.42658C18.5614 4.39345 19.244 4.39497 19.9794 4.41065C19.4565 4.52151 18.8811 4.6182 18.2359 4.714Z" fill="#3B2372"/>
<path d="M32.7532 4.82406C32.0849 4.64519 31.3842 4.42104 30.6445 4.15967C31.3106 4.34122 32.0157 4.56 32.7532 4.82406Z" fill="#311969"/>
<path d="M25.2536 31.4836C24.7877 31.6358 24.255 31.7756 23.6587 31.9196C23.9911 31.2876 24.6113 31.4601 25.2536 31.4836Z" fill="#391F6B"/>
<path d="M15.3152 5.81165C15.0207 6.20449 14.6687 6.59645 14.2676 7.01171C14.296 6.39284 14.6337 5.97711 15.3152 5.81165Z" fill="#391F6F"/>
<path d="M21.7492 3.94183C21.3086 4.10377 20.868 4.2657 20.3833 4.40595C20.7711 4.1829 21.2029 3.98153 21.6919 3.8241C21.749 3.86803 21.7492 3.94183 21.7492 3.94183Z" fill="#3B2372"/>
<path d="M21.8078 3.9339C21.7492 3.94188 21.749 3.86808 21.7485 3.83118C22.1757 3.63003 22.6033 3.46578 23.0897 3.3186C22.7212 3.53243 22.2938 3.72918 21.8078 3.9339Z" fill="#351C6C"/>
<path d="M28.0334 31.2701C27.8151 31.3552 27.5486 31.4384 27.2334 31.4955C27.4515 31.4023 27.7183 31.3353 28.0334 31.2701Z" fill="#391F6B"/>
<path d="M10.0522 10.3782C9.91446 10.6688 9.73792 10.9662 9.52002 11.2941C9.65693 11.0113 9.8352 10.6982 10.0522 10.3782Z" fill="#3A2272"/>
<path d="M34.4913 6.23154C34.2439 6.05995 33.994 5.83301 33.7251 5.55859C33.967 5.73281 34.2279 5.9545 34.4913 6.23154Z" fill="#311969"/>
<path d="M33.6876 5.45771C33.4139 5.32437 33.1234 5.14008 32.8071 4.90979C33.0778 5.04478 33.3744 5.22577 33.6876 5.45771Z" fill="#311969"/>
<path d="M13.7724 7.71362C13.6941 7.90001 13.5628 8.09192 13.3804 8.29654C13.4593 8.11255 13.5894 7.91584 13.7724 7.71362Z" fill="#391F6F"/>
<path d="M34.954 6.86259C34.9353 6.91334 34.9037 6.91695 34.8244 6.92554C34.6828 6.75035 34.5888 6.57018 34.4922 6.33716C34.64 6.46135 34.7905 6.6384 34.954 6.86259Z" fill="#311969"/>
<path d="M29.6143 4.11023C29.4392 4.15593 29.2049 4.18827 28.9194 4.21311C29.0972 4.16937 29.3262 4.13312 29.6143 4.11023Z" fill="#311969"/>
<path d="M14.1675 7.0354C14.1111 7.22482 14.0099 7.43685 13.8672 7.67845C13.9247 7.49135 14.0237 7.27468 14.1675 7.0354Z" fill="#391F6F"/>
<path d="M10.3695 9.95898C10.3344 10.075 10.2539 10.2062 10.1294 10.3567C10.1649 10.2421 10.2445 10.1081 10.3695 9.95898Z" fill="#3A2272"/>
<path d="M10.5322 9.7821C10.5418 9.80614 10.5173 9.83714 10.4676 9.88467C10.445 9.85668 10.4637 9.8193 10.5322 9.7821Z" fill="#3A2272"/>
<path d="M38.46 17.6084C38.4137 17.7138 38.3147 17.8596 38.2202 17.8566C37.5045 17.8345 36.7828 17.8315 36.0765 17.7281C35.272 17.6103 34.7765 16.9752 34.85 16.2937C34.939 15.4673 35.2863 15.208 36.3163 15.2551C37.0609 15.2892 37.804 15.4071 38.5472 15.4015C38.9621 15.3984 39.3758 15.2195 39.8486 15.1063C40.1017 15.769 39.5612 15.7041 39.2291 15.703C38.3834 15.7004 37.5382 15.6191 36.6923 15.578C36.4619 15.5668 36.2292 15.5756 35.999 15.5941C35.4669 15.6368 35.1391 16.0006 35.2392 16.4689C35.3059 16.7811 35.6865 17.1387 36.0047 17.2527C36.3954 17.3929 36.871 17.2681 37.3032 17.3183C37.6769 17.3616 38.041 17.4895 38.46 17.6084Z" fill="#391F6F"/>
<path d="M13.2225 14.9984C13.8415 15.2221 13.8848 15.7082 13.6748 16.285C13.4576 16.8818 13.0535 17.1887 12.4097 17.1788C11.5812 17.1661 10.7523 17.1771 9.835 17.1412C9.71492 17.0676 9.68195 17.0321 9.64746 16.9979C9.8938 16.89 10.1334 16.7148 10.3879 16.6886C10.8744 16.6383 11.3693 16.6734 11.8608 16.6721C13.278 16.6684 13.4458 16.4704 13.2225 14.9984Z" fill="#3F2575"/>
<path d="M29.6051 12.6176C29.6738 13.1226 29.8572 13.778 29.1839 14.0005C28.7915 14.1301 28.1667 14.1448 27.9029 13.9125C27.5775 13.626 27.4203 13.0397 27.3701 12.5635C27.3099 11.9911 27.4388 11.3983 27.4994 10.7581C27.6107 11.3104 27.7261 11.9168 27.8008 12.5283C27.8601 13.013 27.7615 13.5624 28.4564 13.6684C29.0979 13.7662 29.3374 13.3999 29.4313 12.8398C29.4428 12.7715 29.5178 12.7141 29.6051 12.6176Z" fill="#422171"/>
<path d="M9.60316 17.0096C9.68198 17.0321 9.71495 17.0677 9.76973 17.133C7.82649 18.1682 7.32412 19.7341 7.54112 21.6417C7.42044 21.7067 7.35671 21.7082 7.29298 21.7097C6.76662 20.1496 7.78198 17.3039 9.60316 17.0096Z" fill="#422574"/>
<path d="M16.1827 10.6016C16.6933 11.4176 16.518 12.3534 15.7737 12.7543C14.9023 13.2236 14.0287 12.8515 13.6272 11.8509C13.5414 11.6368 13.4152 11.4394 13.2671 11.2026C13.9106 10.7746 13.8419 11.4539 13.9809 11.7485C14.3794 12.5929 15.2672 12.8129 15.8392 12.15C15.9963 11.9679 16.0776 11.696 16.131 11.4513C16.1858 11.2001 16.1638 10.9318 16.1827 10.6016Z" fill="#351A6F"/>
<path d="M17.6757 27.0747C17.5097 27.1485 17.2912 27.1841 16.941 27.2138C14.6715 27.2284 12.5335 27.2489 10.3955 27.2694C10.5361 27.2091 10.6753 27.1001 10.8175 27.0959C12.9904 27.0317 15.1636 26.9798 17.337 26.9325C17.4316 26.9305 17.5277 27.0002 17.6757 27.0747Z" fill="#3A2272"/>
<path d="M38.0318 27.2472C38.7341 26.9334 39.4364 26.6196 40.1894 26.2963C39.7221 27.1147 38.8551 27.3902 38.0097 27.4575C36.584 27.5708 35.1439 27.5022 33.7099 27.4977C33.594 27.4974 33.4783 27.4017 33.3838 27.3235C34.9473 27.2803 36.4895 27.2637 38.0318 27.2472Z" fill="#331A6E"/>
<path d="M10.3806 27.2963C12.5335 27.2489 14.6715 27.2284 16.8844 27.208C16.7717 27.2644 16.5845 27.3679 16.3964 27.3696C14.9077 27.3825 13.4187 27.3659 11.93 27.3812C11.4212 27.3865 10.9129 27.4568 10.3387 27.4919C10.3039 27.4321 10.3348 27.3776 10.3806 27.2963Z" fill="#746393"/>
<path d="M20.7602 7.05552C19.6795 6.859 18.5908 6.8175 17.4639 7.22561C17.4021 7.15544 17.4003 7.11832 17.3984 7.08121C18.5577 6.28377 19.9503 6.25158 20.7602 7.05552Z" fill="#391E72"/>
<path d="M39.7659 22.051C39.8054 23.129 38.6909 25.0331 37.8057 25.3241C38.4081 24.2436 39.0678 23.1672 39.7659 22.051Z" fill="#3B2372"/>
<path d="M13.385 24.8464C13.7784 24.8112 14.1717 24.7761 14.5856 24.7708C14.3941 24.9205 14.1844 25.1381 13.9694 25.1437C12.7593 25.175 11.5474 25.1743 10.3376 25.1367C10.1021 25.1293 9.87299 24.9102 9.64111 24.7456C9.8198 24.7133 9.99831 24.7242 10.2694 24.8098C11.3697 24.8719 12.3774 24.8592 13.385 24.8464Z" fill="#391E72"/>
<path d="M26.0853 6.05291C25.2696 5.92397 24.435 5.60896 23.6067 6.23493C23.599 6.07221 23.524 5.72883 23.6345 5.64911C24.2705 5.19037 25.4789 5.39276 26.0853 6.05291Z" fill="#3E2679"/>
<path d="M27.6933 27.2305C28.8033 27.304 29.5806 26.5701 30.4509 26.0633C30.7106 25.9121 30.9644 25.7507 31.2751 25.5839C30.4433 26.5669 29.45 27.3749 27.9689 27.4885C27.7906 27.4289 27.7109 27.3918 27.6475 27.3241C27.6637 27.2934 27.6933 27.2305 27.6933 27.2305Z" fill="#391F6F"/>
<path d="M12.7124 11.2759C11.7113 11.8567 11.2261 12.7654 10.9855 13.9399C10.8564 13.9991 10.7893 13.9991 10.7222 13.999C10.8004 12.9729 11.2039 12.0967 11.971 11.4258C12.1383 11.2795 12.4457 11.2976 12.7124 11.2759Z" fill="#3B2372"/>
<path d="M32.2827 23.0094C31.8717 22.3044 31.9369 21.5514 32.4365 21.2328C33.1363 20.7864 34.0044 21.1169 34.5308 22.0839C34.3935 22.0631 34.1816 22.0233 34.1183 21.9032C33.8247 21.3461 33.2914 21.2438 32.8713 21.4762C32.6069 21.6226 32.5636 22.1786 32.413 22.6461C32.3642 22.8306 32.3234 22.92 32.2827 23.0094Z" fill="#3D236E"/>
<path d="M17.3457 7.0946C17.4005 7.11834 17.4024 7.15545 17.4065 7.24846C16.6758 7.99395 15.6189 8.4543 15.7228 9.79985C15.2651 9.73166 15.2608 9.41731 15.4183 9.06592C15.8113 8.18914 16.384 7.48186 17.3457 7.0946Z" fill="#351A6F"/>
<path d="M39.9507 14.7558C39.804 13.5703 39.1622 12.5834 38.5576 11.5278C39.5229 12.0829 40.2806 13.814 39.9507 14.7558Z" fill="#391F6F"/>
<path d="M16.356 31.6892C17.4678 31.7179 18.4673 31.3079 19.4274 30.6154C19.38 30.7916 19.3391 31.0633 19.1857 31.1714C18.3444 31.7644 17.4365 32.1101 16.356 31.6892Z" fill="#3A2271"/>
<path d="M37.9689 27.2403C36.4895 27.2637 34.9472 27.2802 33.3352 27.2799C33.26 27.214 33.2549 27.1651 33.249 27.0789C34.8008 27.1055 36.3535 27.1694 37.9689 27.2403Z" fill="#6D5F8A"/>
<path d="M42.3188 23.5775C42.4189 23.0112 42.6545 22.4263 42.6892 21.8295C42.7192 21.3119 42.5215 20.7808 42.4447 20.1589C42.4976 19.9822 42.5303 19.9023 42.563 19.8224C43.1008 21.0987 43.2608 22.3546 42.3188 23.5775Z" fill="#321866"/>
<path d="M7.29688 21.7719C7.35681 21.7082 7.42054 21.7067 7.532 21.7046C7.9925 22.5632 8.40527 23.4225 8.83826 24.3307C7.76625 23.8907 7.51784 22.8721 7.29688 21.7719Z" fill="#391F6F"/>
<path d="M27.6315 27.3549C27.7112 27.3919 27.7909 27.4289 27.9065 27.4907C26.2933 27.5188 24.6442 27.5223 22.9717 27.4835C24.5093 27.4125 26.0704 27.3837 27.6315 27.3549Z" fill="#2B1169"/>
<path d="M27.6474 27.3241C26.0701 27.3836 24.509 27.4124 22.8996 27.4832C22.8176 27.5247 22.784 27.5243 22.7002 27.5191C22.8684 27.4064 23.0855 27.2082 23.3053 27.2051C24.716 27.1847 26.1272 27.207 27.6158 27.2229C27.6932 27.2305 27.6637 27.2934 27.6474 27.3241Z" fill="#726387"/>
<path d="M32.2566 23.0577C32.3234 22.9201 32.3642 22.8307 32.4305 22.6998C32.5259 22.9828 32.5773 23.3128 32.6694 23.6306C32.8206 24.1525 32.6806 24.5324 32.1393 24.7891C32.1327 24.238 32.1817 23.672 32.2566 23.0577Z" fill="#391F6F"/>
<path d="M37.1492 25.6469C36.4569 25.7416 35.7654 25.8439 35.0717 25.9275C34.7597 25.9652 34.4432 25.9655 34.0854 25.9493C34.0512 25.8797 34.0603 25.8435 34.0694 25.8074C34.0995 25.7944 34.1263 25.7764 34.2143 25.7164C34.3451 25.6589 34.4114 25.6383 34.4777 25.6177C34.6012 25.6211 34.7246 25.6246 34.98 25.6286C35.791 25.6351 36.4701 25.641 37.1492 25.6469Z" fill="#675C8C"/>
<path d="M42.5575 19.7644C42.5304 19.9024 42.4978 19.9823 42.441 20.0982C42.0649 19.5389 41.7128 18.9435 41.3335 18.3019C42.1378 18.3726 42.3421 19.0419 42.5575 19.7644Z" fill="#3D236E"/>
<path d="M10.7368 14.0534C10.7895 13.9991 10.8567 13.9991 10.9741 13.999C11.2099 14.0978 11.387 14.2197 11.5821 14.2914C12.1032 14.4829 12.6319 14.6529 13.1848 14.8802C12.3917 14.6553 11.5715 14.3815 10.7368 14.0534Z" fill="#3F2575"/>
<path d="M37.143 25.6442C36.4699 25.641 35.7908 25.6351 35.0415 25.6252C35.645 25.5244 36.3188 25.4277 37.0611 25.385C37.1303 25.5106 37.131 25.5822 37.1316 25.6537C37.1316 25.6537 37.137 25.6415 37.143 25.6442Z" fill="#3F2575"/>
<path d="M13.5615 29.7024C13.7662 28.8494 14.1645 28.6938 15.262 29.1026C14.7286 29.3208 14.1674 29.497 13.5615 29.7024Z" fill="#351C6C"/>
<path d="M37.6411 20.8993C38.1121 20.2887 38.6468 20.2614 39.4211 20.8686C38.8622 20.9116 38.2831 20.901 37.6411 20.8993Z" fill="#351A6F"/>
<path d="M9.30948 28.1968C9.53933 28.6363 9.7427 29.1235 9.94791 29.6685C9.41976 29.3743 9.14816 28.9031 9.30948 28.1968Z" fill="#3A2271"/>
<path d="M19.5596 30.596C19.781 30.2465 20.0558 29.888 20.3731 29.5112C20.148 29.8576 19.8805 30.2222 19.5596 30.596Z" fill="#3D236E"/>
<path d="M15.6353 30.8248C15.7177 31.0389 15.7614 31.2507 15.8342 31.5082C15.704 31.526 15.5446 31.4982 15.3853 31.4704C15.4557 31.2544 15.5261 31.0385 15.6353 30.8248Z" fill="#3A2271"/>
<path d="M12.1558 31.1696C12.454 31.0398 12.7792 30.9564 13.1563 30.9036C13.2072 31.0044 13.2061 31.0746 13.2051 31.1448C12.8841 31.4601 12.5508 31.5949 12.1558 31.1696Z" fill="#3A2272"/>
<path d="M34.0135 25.8201C34.0601 25.8436 34.051 25.8798 34.0246 25.9695C33.7828 26.2506 33.5584 26.4782 33.2528 26.7341C33.1716 26.7624 33.0996 26.7805 33.0996 26.7805C33.3857 26.4645 33.6718 26.1486 34.0135 25.8201Z" fill="#3F2575"/>
<path d="M31.3618 25.5709C31.5386 25.3234 31.768 25.0641 32.0508 24.7941C31.8743 25.0419 31.6444 25.3006 31.3618 25.5709Z" fill="#391F6F"/>
<path d="M20.8896 28.7736C21.0606 28.5479 21.2792 28.3057 21.5472 28.0457C21.3768 28.2709 21.1571 28.5139 20.8896 28.7736Z" fill="#3D236E"/>
<path d="M15.3218 29.2238C15.4862 29.3864 15.647 29.6066 15.7771 29.86C15.6036 29.6893 15.4609 29.4853 15.3218 29.2238Z" fill="#351C6C"/>
<path d="M37.1908 25.6537C37.1313 25.5822 37.1307 25.5107 37.1315 25.3856C37.2575 25.3294 37.3821 25.3266 37.5686 25.3305C37.5036 25.4427 37.3766 25.5482 37.1908 25.6537Z" fill="#675C8C"/>
<path d="M20.4736 29.4966C20.5191 29.3335 20.6108 29.1463 20.7587 28.953C20.7165 29.1221 20.6182 29.2973 20.4736 29.4966Z" fill="#3D236E"/>
<path d="M37.3311 21.3722C37.3558 21.2502 37.4231 21.1022 37.5345 20.9309C37.5102 21.0537 37.4419 21.2 37.3311 21.3722Z" fill="#351A6F"/>
<path d="M10.5918 30.3922C10.7076 30.4271 10.8453 30.5068 11.0044 30.6312C10.8884 30.5962 10.751 30.5166 10.5918 30.3922Z" fill="#3A2272"/>
<path d="M13.3935 30.3459C13.3797 30.271 13.3984 30.182 13.4545 30.0663C13.4699 30.137 13.4481 30.2344 13.3935 30.3459Z" fill="#351C6C"/>
<path d="M37.3761 21.9347C37.3785 21.943 37.3413 21.9503 37.3413 21.9503C37.3413 21.9503 37.3737 21.9265 37.3761 21.9347Z" fill="#351A6F"/>
<path d="M8.86816 24.4116C8.93374 24.4207 9.01065 24.4638 9.12442 24.5315C9.06736 24.5193 8.97343 24.4825 8.86816 24.4116Z" fill="#391F6F"/>
<path d="M34.4616 25.5931C34.4113 25.6383 34.3451 25.6589 34.2295 25.6974C34.2686 25.6663 34.3571 25.6175 34.4616 25.5931Z" fill="#3F2575"/>
<path d="M10.3218 30.1686C10.3751 30.1755 10.4536 30.2209 10.5532 30.3091C10.4985 30.3036 10.4228 30.2554 10.3218 30.1686Z" fill="#3A2271"/>
<path d="M13.2291 31.1058C13.2064 31.0746 13.2074 31.0044 13.2095 30.8815C13.2105 30.8289 13.2709 30.81 13.3023 30.8082C13.3067 30.8932 13.2798 30.98 13.2291 31.1058Z" fill="#351C6C"/>
<path d="M11.3784 30.8551C11.4329 30.8517 11.5254 30.875 11.6475 30.9368C11.5902 30.9441 11.5033 30.9129 11.3784 30.8551Z" fill="#3A2272"/>
<path d="M16.0679 10.3925C16.1125 10.3913 16.1368 10.4177 16.1574 10.4807C16.1288 10.475 16.0934 10.4425 16.0679 10.3925Z" fill="#351A6F"/>
<path d="M11.064 30.7056C11.1174 30.7024 11.2057 30.7259 11.3179 30.7895C11.2608 30.7971 11.1798 30.7647 11.064 30.7056Z" fill="#3A2272"/>
<path d="M33.1081 26.821C33.0999 26.7803 33.172 26.7623 33.2085 26.7562C33.2472 26.8187 33.2493 26.8873 33.2531 27.0075C33.2086 26.9932 33.1624 26.9274 33.1081 26.821Z" fill="#6D5F8A"/>
<path d="M9.96289 29.7653C10.0129 29.7851 10.08 29.8469 10.1552 29.9552C10.1022 29.9369 10.0411 29.8721 9.96289 29.7653Z" fill="#3A2271"/>
<path d="M11.9912 31.0412C12.0194 31.009 12.0648 31.0259 12.1178 31.1043C12.0938 31.1173 12.0548 31.0921 11.9912 31.0412Z" fill="#3A2272"/>
<path d="M13.3634 30.4742C13.3444 30.4706 13.3261 30.4293 13.3339 30.3745C13.36 30.361 13.364 30.4365 13.3634 30.4742Z" fill="#351C6C"/>
<path d="M10.1567 30.0264C10.1844 30.02 10.2357 30.0468 10.2961 30.1187C10.2636 30.1291 10.222 30.0944 10.1567 30.0264Z" fill="#3A2271"/>
<path d="M13.515 29.8536C13.4857 29.8667 13.4568 29.8411 13.4351 29.8103C13.4307 29.8041 13.4538 29.778 13.4902 29.7466C13.5167 29.7592 13.5173 29.7862 13.515 29.8536Z" fill="#351C6C"/>
<path d="M38.4804 11.3374C38.4592 11.3388 38.4073 11.3067 38.3301 11.2354C38.3531 11.2322 38.4014 11.2681 38.4804 11.3374Z" fill="#391F6F"/>
<path d="M37.1701 21.5198C37.1475 21.4875 37.1724 21.4492 37.2516 21.4128C37.2606 21.4385 37.231 21.4714 37.1701 21.5198Z" fill="#351A6F"/>
<path d="M9.32169 27.3713C9.32169 27.3713 9.31142 27.3764 9.31622 27.3735C9.32101 27.3707 9.32169 27.3713 9.32169 27.3713Z" fill="#3A2271"/>
<path d="M9.32032 27.3718C9.32003 27.3713 9.3305 27.3652 9.32591 27.3691C9.32132 27.373 9.32061 27.3723 9.32032 27.3718Z" fill="#3A2271"/>
<path d="M20.3259 14.9473C20.1777 15.5205 19.9356 16.0881 19.9019 16.6681C19.8408 17.7165 19.3843 18.4241 18.3494 18.8715C17.2302 19.4627 16.218 20.0298 15.1515 20.6071C14.7792 20.9285 14.3941 21.1953 14.1593 21.5611C13.822 22.0867 13.4487 22.3365 12.8279 22.1557C12.5874 22.0857 12.3266 22.0872 12.0751 22.0561C12.0334 22.0377 11.996 22.0127 11.9507 21.8918C11.9468 21.7209 11.9551 21.6392 11.9588 21.4992C12.0075 20.8996 12.061 20.3582 12.1144 19.8169C12.1144 19.8169 12.1166 19.8206 12.1715 19.8076C13.7163 19.1083 15.2361 18.4788 16.6798 17.7041C17.1702 17.441 17.4689 16.8115 17.8556 16.2962C17.8097 16.0749 17.7634 15.907 17.7017 15.7321C17.6863 15.725 17.6528 15.7205 17.6528 15.7205C17.6772 15.6553 17.7015 15.5901 17.7801 15.4441C17.9266 15.2097 18.055 15.067 18.1045 14.9002C18.2695 14.3447 18.6077 13.8861 19.177 13.9722C19.5154 14.0234 19.7963 14.4675 20.1019 14.7363C20.1788 14.8039 20.2513 14.8768 20.3259 14.9473Z" fill="#A158CA"/>
<path d="M28.8147 19.507C28.4504 19.8756 28.0514 20.2162 27.7314 20.6208C27.4073 21.0305 27.1612 21.5036 26.8147 22.0295C26.4217 22.151 26.095 22.1921 25.7716 22.1611C25.7995 21.5121 25.8512 20.9508 25.0294 20.8529C24.8425 20.8307 24.6951 20.4676 24.5337 20.2066C24.7481 19.8398 24.9583 19.5277 25.1686 19.2156C25.6803 18.8702 26.1925 18.5255 26.7036 18.179C26.8263 18.0958 26.9451 18.0068 27.1607 17.9303C27.6749 17.7204 28.1203 17.5395 28.5081 17.2729C29.3756 16.6767 30.2145 16.0378 31.1219 15.4296C31.5552 15.5384 31.9318 15.6339 32.3273 15.7371C32.3463 15.7446 32.4065 15.7481 32.4065 15.7481C32.4065 15.7481 32.4641 15.7292 32.465 15.7295C32.4658 15.7297 32.4657 15.7277 32.5233 15.7293C32.6577 15.7327 32.7345 15.7344 32.8113 15.7361C32.369 16.1923 31.9268 16.6486 31.4084 17.078C31.2177 17.0427 31.0562 16.9804 30.9956 17.0343C30.284 17.6679 29.5777 18.3086 28.8979 18.9767C28.7964 19.0765 28.8388 19.3265 28.8147 19.507Z" fill="#DE3B33"/>
<path d="M25.7683 22.2331C26.095 22.1921 26.4217 22.1511 26.7912 22.0779C27.0888 22.9951 26.5064 24.1967 25.3406 24.9295C25.0441 24.8638 24.8228 24.7813 24.6124 24.8039C23.0891 24.9679 22.1585 24.4435 21.4978 23.0408C21.4023 22.8382 21.2407 22.6674 21.1097 22.4819C21.1164 22.3644 21.1231 22.2469 21.163 22.022C21.164 21.6344 21.1318 21.3543 21.0996 21.0741C21.6183 19.861 22.4179 19.0025 23.843 18.9407C23.3036 19.6296 23.2412 20.4 23.2515 21.2429C22.8329 22.0189 22.9416 22.6424 23.5264 22.9718C24.1939 23.3478 24.6376 23.0039 25.0498 22.4384C25.3199 22.3562 25.5441 22.2947 25.7683 22.2331Z" fill="#A158CA"/>
<path d="M32.3084 15.7295C31.9318 15.634 31.5553 15.5384 31.1509 15.388C31.2603 15.1043 31.3975 14.8754 31.5347 14.6465C32.0102 14.2334 32.4568 13.7757 32.9758 13.4295C33.1756 13.2962 33.5403 13.4163 33.8369 13.5157C33.6417 14.0311 33.4746 14.4747 33.2263 14.8654C33.023 15.1855 32.723 15.4427 32.4658 15.7277C32.4658 15.7277 32.4659 15.7297 32.4261 15.7293C32.3603 15.7291 32.3344 15.7293 32.3084 15.7295Z" fill="#D63939"/>
<path d="M17.855 16.3494C17.4687 16.8115 17.17 17.4409 16.6797 17.7041C15.2359 18.4788 13.7161 19.1082 12.1694 19.8063C12.6884 19.4901 13.2612 19.1569 13.8404 18.8355C14.8659 18.2663 15.9383 17.7683 16.9005 17.1056C17.2541 16.8622 17.351 16.2365 17.6088 15.7528C17.6526 15.7205 17.6861 15.725 17.7033 15.7852C17.7653 16.0135 17.8101 16.1814 17.855 16.3494Z" fill="#371E70"/>
<path d="M23.2969 21.2029C23.2413 20.4001 23.3037 19.6296 23.904 18.9508C24.3037 18.9857 24.6848 19.0713 25.1173 19.1863C24.9584 19.5277 24.7481 19.8398 24.4907 20.2321C24.2612 20.5061 24.0789 20.7 23.8569 20.9231C23.6438 21.0359 23.4703 21.1194 23.2969 21.2029Z" fill="#8349A4"/>
<path d="M31.4804 14.6482C31.3974 14.8754 31.2602 15.1043 31.094 15.3747C30.2145 16.0378 29.3756 16.6767 28.5081 17.2729C28.1202 17.5395 27.6749 17.7204 27.2158 17.9189C28.5927 16.8151 30.0095 15.7325 31.4804 14.6482Z" fill="#E02F23"/>
<path d="M21.085 22.5232C21.2407 22.6675 21.4023 22.8382 21.4978 23.0409C22.1585 24.4435 23.0891 24.968 24.6125 24.8039C24.8228 24.7813 25.0441 24.8638 25.2899 24.9417C23.5929 25.6194 21.4618 24.9312 21.085 22.5232Z" fill="#3A1B70"/>
<path d="M12.1016 22.1057C12.3266 22.0872 12.5874 22.0857 12.8278 22.1557C13.4487 22.3365 13.822 22.0867 14.1593 21.5611C14.394 21.1953 14.7792 20.9285 15.1558 20.6451C15.2145 20.6729 15.2215 20.7489 15.2215 20.7489C15.0208 20.9769 14.7547 21.1734 14.6307 21.4381C14.0168 22.7483 13.3575 22.9496 12.1016 22.1057Z" fill="#3F2575"/>
<path d="M20.3365 14.8856C20.2511 14.8768 20.1786 14.8039 20.1016 14.7363C19.796 14.4675 19.5152 14.0234 19.1767 13.9722C18.6074 13.8861 18.2693 14.3447 18.1042 14.9002C18.0547 15.067 17.9263 15.2097 17.7919 15.3932C17.7654 14.2081 18.1135 13.7592 19.1074 13.6722C19.9439 13.5991 20.3007 13.9304 20.3365 14.8856Z" fill="#351A6F"/>
<path d="M28.8532 19.4799C28.8388 19.3265 28.7963 19.0764 28.8978 18.9766C29.5776 18.3086 30.284 17.6679 30.9955 17.0342C31.0561 16.9803 31.2176 17.0427 31.355 17.0844C30.5491 17.8961 29.7205 18.6745 28.8532 19.4799Z" fill="#E33327"/>
<path d="M15.2778 20.7493C15.2213 20.7489 15.2143 20.6728 15.21 20.6348C16.2178 20.0297 17.23 19.4627 18.3017 18.8947C17.3522 19.5124 16.3433 20.131 15.2778 20.7493Z" fill="#3A2271"/>
<path d="M32.5234 15.7294C32.723 15.4427 33.023 15.1855 33.2264 14.8654C33.4746 14.4747 33.6417 14.0311 33.8642 13.567C34.3123 14.1571 34.2172 14.6246 33.5452 15.1772C33.3334 15.3514 33.1178 15.5209 32.8576 15.7143C32.7346 15.7344 32.6578 15.7327 32.5234 15.7294Z" fill="#D62D2B"/>
<path d="M13.3432 24.7941C12.377 24.8591 11.3693 24.8718 10.3042 24.8527C11.2651 24.7944 12.2835 24.7681 13.3432 24.7941Z" fill="#6D5E93"/>
<path d="M12.0712 19.8326C12.0606 20.3583 12.0072 20.8996 11.9246 21.4671C11.7694 21.4067 11.6435 21.3203 11.5176 21.2338C11.6879 20.7719 11.8581 20.3101 12.0712 19.8326Z" fill="#371E70"/>
<path d="M21.0605 21.1118C21.1317 21.3543 21.1639 21.6344 21.1723 21.9639C21.1062 21.7253 21.0639 21.4374 21.0605 21.1118Z" fill="#3A1B70"/>
<path d="M11.5186 21.2858C11.6439 21.3201 11.7699 21.4066 11.9297 21.5253C11.9552 21.6392 11.9469 21.7208 11.9316 21.8637C11.7894 21.7292 11.6543 21.5335 11.5186 21.2858Z" fill="#3F2575"/>
<path d="M17.8555 16.2962C17.8102 16.1815 17.7654 16.0135 17.7188 15.7924C17.7633 15.907 17.8096 16.075 17.8555 16.2962Z" fill="#351A6F"/>
<path d="M23.8965 20.8939C24.0788 20.7 24.2611 20.5061 24.4865 20.2869C24.6951 20.4677 24.8425 20.8307 25.0294 20.853C25.8512 20.9508 25.7994 21.5121 25.7716 22.1612C25.5441 22.2947 25.32 22.3562 25.0566 22.3812C24.8426 21.7035 24.6741 21.0574 23.8965 20.8939Z" fill="#D23532"/>
<path d="M32.3271 15.7372C32.3341 15.7294 32.3601 15.7292 32.425 15.7291C32.4639 15.7293 32.4063 15.7482 32.4063 15.7482C32.4063 15.7482 32.3462 15.7447 32.3271 15.7372Z" fill="#D62D2B"/>
<path d="M23.8569 20.9231C24.6741 21.0574 24.8426 21.7035 25.0106 22.4019C24.6376 23.0039 24.194 23.3478 23.5265 22.9718C22.9417 22.6424 22.8329 22.0189 23.2516 21.243C23.4703 21.1194 23.6438 21.0358 23.8569 20.9231Z" fill="#030203"/>
</g>
<defs>
<clipPath id="clip0_236_247">
<rect width="48" height="42" fill="white"/>
</clipPath>
</defs>
</svg>
