<svg width="96" height="84" viewBox="0 0 96 84" fill="none" xmlns="http://www.w3.org/2000/svg">
<g clip-path="url(#clip0_236_367)">
<path d="M50.1799 6.62784C49.2591 6.69274 48.2072 6.73037 47.043 6.71942C47.9701 6.64742 49.0095 6.624 50.1799 6.62784Z" fill="#351C6C"/>
<path d="M51.26 6.84305C51.2156 6.87488 51.1343 6.8346 51.0063 6.73763C51.0574 6.67479 51.1452 6.70478 51.26 6.84305Z" fill="#351C6C"/>
<path d="M51.3036 6.90122C52.6762 7.34056 54.0378 7.82112 55.4262 8.20145C56.0966 8.3851 56.8174 8.38024 57.7281 8.45095C58.4095 8.37648 58.8782 8.31179 59.3468 8.2471C59.8795 8.24117 60.4122 8.23524 61.156 8.31149C62.7684 8.84196 64.1697 9.29025 65.571 9.73854C65.571 9.73854 65.553 9.74461 65.6091 9.82813C66.2462 10.2802 66.827 10.6488 67.4079 11.0174C67.4079 11.0174 67.4191 11.0121 67.4534 11.1122C67.9875 11.6661 68.4873 12.12 68.9871 12.5739C68.9871 12.5739 68.9738 12.5853 68.9818 12.6827C69.1778 13.1404 69.3657 13.5007 69.5703 13.9785C69.9207 14.5895 70.1656 15.395 70.6035 15.523C72.6098 16.1094 74.6701 16.506 76.7111 16.9708C78.1188 18.1987 79.5265 19.4266 81.0364 20.8107C81.9611 22.8962 82.7837 24.8255 83.6063 26.7548C83.7124 27.3814 83.8184 28.008 83.9084 28.887C83.5395 31.644 84.0606 32.5721 86.6155 33.9896C86.6911 34.1611 86.7668 34.3326 86.9354 34.6728C88.3825 37.5706 89.5064 40.3509 89.1736 43.5163C89.0322 44.8619 88.9906 46.2183 88.9037 47.5698C87.967 49.2882 86.9812 50.9819 86.117 52.7369C85.7537 53.4746 85.6473 54.3419 85.3321 55.3489C85.1046 55.9334 84.9461 56.3127 84.8376 56.7062C84.2865 58.7037 83.7462 60.7043 83.2069 62.7051C83.0193 63.4009 82.8453 64.1005 82.6652 64.7984C81.5018 65.9454 80.4026 67.1707 79.1578 68.2185C77.7843 69.3746 76.2772 70.3679 74.626 71.4272C72.136 71.9069 69.8322 72.3284 67.5726 72.9222C67.0287 73.0651 66.6311 73.779 66.0907 74.3061C65.948 74.9216 65.7323 75.4933 65.8382 75.9955C66.4249 78.7779 67.0898 81.5433 67.7279 84.3146C66.0642 84.3146 64.4006 84.3146 62.5916 84.3146C60.4006 82.0741 58.3549 79.8335 56.2969 77.4153C55.5144 75.4419 54.1861 74.1634 52.4123 73.5186C50.4945 72.8215 48.4902 72.3679 46.5237 71.808C45.5447 70.7405 43.9424 69.7675 43.7667 68.5783C43.6 67.45 44.8684 66.0572 45.6284 64.8606C45.9004 64.4324 46.5311 64.2379 47.2212 63.8839C48.5099 63.5513 49.5754 63.2717 50.6409 62.992C51.7884 62.9792 52.9359 62.9663 54.3238 62.9984C55.0973 62.8768 55.6304 62.7104 56.1634 62.5439C57.6743 61.1359 57.7331 60.7684 56.5649 59.5758C56.5259 59.3381 56.5315 59.2821 56.4259 59.1598C53.1528 59.0259 49.9909 58.9425 46.8285 58.9179C46.5524 58.9158 46.2733 59.3002 45.9956 59.5051C45.0894 60.5854 44.1831 61.6656 43.1077 62.858C42.4968 63.3236 42.0186 63.6393 41.6199 64.0369C39.7233 65.9283 37.4038 66.8678 34.7973 66.9697C32.4272 67.0624 30.0491 66.9258 27.675 66.9484C27.1465 66.9534 26.6202 67.2015 26.0929 67.3377C23.8449 67.0365 21.5636 66.8376 19.6224 65.0624C19.3878 64.7383 19.3134 64.5217 19.1639 64.3982C16.506 62.2027 14.8767 59.4437 14.5393 55.9406C14.5092 55.6283 14.1908 55.3445 14.0062 55.0475C14.3882 53.4199 14.1696 51.9714 12.7868 50.6804C12.0461 48.2376 11.3093 45.9835 10.5723 43.5851C10.9328 41.2522 11.302 39.0647 11.647 36.8734C11.7159 36.4359 11.6926 35.9835 11.7119 35.5379C13.0246 32.9748 15.0919 31.1275 17.4773 29.2821C18.0586 26.9593 18.5045 24.8079 18.9503 22.6564C18.9503 22.6564 18.9475 22.6467 19.0351 22.5871C19.4758 21.9325 19.8289 21.3376 20.182 20.7427C20.182 20.7427 20.1877 20.7613 20.2674 20.7179C20.508 20.4122 20.6689 20.1499 20.8298 19.8875C20.8298 19.8875 20.8462 19.8367 20.9126 19.7839C21.0343 19.6743 21.0832 19.6123 21.1256 19.5451C22.8949 18.5818 24.6642 17.6186 26.6483 16.6115C27.1256 16.184 27.3882 15.8002 27.6507 15.4164C27.6507 15.4164 27.6502 15.4157 27.7336 15.3567C28.0195 14.8737 28.222 14.4496 28.4244 14.0256C28.4244 14.0256 28.4525 14.0416 28.5428 14.0092C29.337 13.1928 30.041 12.4089 30.7449 11.625C30.7449 11.625 30.7367 11.6355 30.8444 11.606C32.7457 10.8597 34.5392 10.143 36.4721 9.42809C37.7624 9.23647 38.9133 9.04309 40.0642 8.84971C40.2 8.82731 40.3358 8.8049 40.663 8.81891C41.7357 8.53144 42.6169 8.20757 43.6153 7.86774C44.5872 7.45829 45.442 7.0648 46.2967 6.6713C46.4376 6.66717 46.5785 6.66305 46.9373 6.71348C48.2071 6.73041 49.259 6.69278 50.3109 6.65515C50.454 6.6571 50.5971 6.65904 50.8999 6.72068C51.1342 6.83455 51.2155 6.87483 51.3036 6.90122ZM18.6231 54.7498C18.6231 54.7498 18.6418 54.7425 18.6574 54.732C18.6574 54.732 18.6395 54.7402 18.6231 54.7498ZM20.3604 60.1194C20.4435 60.1888 20.5266 60.2582 20.568 60.3022C20.568 60.3022 20.5932 60.26 20.6941 60.4143C20.8456 60.5108 20.9971 60.6073 21.1304 60.7133C21.1304 60.7133 21.1393 60.6947 21.2267 60.874C21.5015 61.0332 21.7762 61.1923 22.0617 61.3466C22.0617 61.3466 22.0582 61.3579 22.1976 61.4645C22.3596 61.5294 22.5216 61.5943 22.6786 61.6633C22.6786 61.6633 22.6809 61.6569 22.833 61.7635C23.0068 61.8259 23.1805 61.8883 23.5462 61.9762C23.6736 61.997 23.8009 62.0178 24.0367 62.1259C24.1097 62.1842 24.1876 62.2345 24.2491 62.2683C24.2491 62.2683 24.2576 62.2466 24.3652 62.4321C25.1016 63.1898 25.7681 62.9204 26.505 62.1335C26.5589 61.96 26.6128 61.7864 26.705 61.4185C26.7118 61.2869 26.7186 61.1554 26.7279 60.8729C26.7279 60.8729 26.7199 60.722 26.7179 60.7187C26.7179 60.7187 26.7215 60.7203 26.8522 60.6636C26.8959 60.4689 26.9397 60.2741 27.012 59.9349C27.012 59.9349 27.0243 59.788 27.0357 59.6263C27.0346 59.5723 27.0335 59.5183 27.0288 59.4605C27.0288 59.4605 27.0333 59.4631 27.2122 59.3464C28.3345 58.9939 29.4569 58.6415 30.6272 58.2898C30.6272 58.2898 30.6505 58.3324 30.6365 58.5625C30.9218 58.9705 31.2072 59.3785 31.4686 60.006C31.4284 60.5554 31.3883 61.1048 31.1931 61.6452C31.0522 62.077 30.9113 62.5089 30.7705 62.9408C31.0892 62.9963 31.408 63.0519 31.9435 63.1901C32.1717 63.2283 32.4 63.2664 32.7942 63.4524C34.8723 64.2203 36.6881 63.5288 38.3706 62.3429C38.6774 62.1267 38.7592 61.5832 38.988 61.1664C38.988 61.1664 39.0124 61.21 39.2259 61.1737C39.761 60.4444 40.2961 59.7151 40.8704 59.0015C40.8704 59.0015 40.8547 59.0412 41.0398 58.945C41.2363 58.5946 41.4329 58.2442 41.6655 57.7387C41.6714 57.686 41.6774 57.6332 41.8744 57.5138C42.3138 57.0278 42.7531 56.5418 43.3601 55.9143C44.0068 55.6192 44.6534 55.324 45.5008 55.0475C45.568 55.0485 45.6352 55.0494 45.9896 55.0513C49.2878 55.0444 52.5859 55.0375 56.135 55.0221C58.8999 54.7498 60.8865 53.1338 62.647 51.1772C62.647 51.1772 62.6177 51.1653 62.8284 51.1185C63.2881 50.6012 63.7479 50.0839 64.2081 49.6078C64.2081 49.6078 64.1674 49.6079 64.3891 49.5483C65.361 49.0648 65.6409 48.3049 65.3385 47.2612C65.1544 46.6254 65.0515 45.9656 64.8418 45.1018C65.1268 44.3573 65.2135 43.2452 65.7424 42.9525C66.5825 42.4876 67.6491 42.6923 68.2364 43.8064C68.363 44.0466 68.7867 44.1262 69.2054 44.4806C69.4753 45.4393 69.1006 46.737 70.7523 46.887C73.1261 47.1026 73.6044 46.7696 73.9645 44.2661C74.0225 43.8633 74.1773 43.4748 74.3929 42.9994C74.4621 42.9428 74.5211 42.8768 74.5639 42.786C74.5639 42.786 74.5771 42.7962 74.7473 42.6925C74.8839 42.4 75.0205 42.1075 75.1844 41.8416C75.1844 41.8416 75.1561 41.8165 75.4079 41.7809C76.566 41.802 77.7241 41.8232 79.0116 42.0391C79.2106 42.7003 79.4096 43.3615 79.4549 44.1815C78.1355 46.3344 76.8162 48.4873 75.3807 50.6709C75.3807 50.6709 75.2607 50.6744 75.0127 50.6477C74.7636 50.6532 74.5144 50.6587 73.9852 50.6619C72.6377 50.8554 71.2903 51.0489 69.696 51.2561C69.449 51.2492 69.2021 51.2423 68.8911 51.1372C68.7142 51.2349 68.5372 51.3326 68.299 51.5063C68.2523 51.5528 68.1988 51.5889 67.9158 51.6652C67.3436 52.297 66.7715 52.9289 66.2317 53.7233C66.3241 53.8549 66.4165 53.9865 66.4851 54.1074C66.4851 54.1074 66.4958 54.0832 66.4991 54.2322C66.5091 54.3302 66.5195 54.4281 66.7242 54.7004C66.9559 54.8032 67.1872 54.9947 67.4192 54.9954C70.2871 55.0043 73.1673 55.1415 76.0186 54.9148C77.7095 54.7804 79.4435 54.2292 80.6433 52.4432C81.9426 50.6963 83.2419 48.9493 84.7342 47.1077C86.5216 44.7092 86.2017 42.1974 85.1034 39.4126C84.684 38.0837 84.2753 36.7452 82.3971 36.4248C80.6051 36.0412 78.8132 35.6575 76.8188 35.16C76.082 34.979 75.3537 34.7233 74.6063 34.6365C73.742 34.5362 72.7906 34.7857 72.0092 34.5055C71.3729 34.2773 70.6118 33.5623 70.4784 32.9377C70.2782 32.0013 70.9337 31.2736 71.9979 31.1881C72.4583 31.1512 72.9237 31.1336 73.3846 31.156C75.0763 31.2382 76.7668 31.4008 78.4582 31.4061C79.1224 31.4082 80.2034 31.5381 79.8399 29.9842C79.8353 29.8491 79.8306 29.7141 79.9766 29.4442C80.5611 27.6279 79.0456 24.1658 77.0664 22.8484C77.0664 22.8484 77.0223 22.7417 76.8997 22.6079C76.803 22.5361 76.7063 22.4644 76.4349 22.2885C75.8409 21.8787 75.2471 21.4688 74.653 21.0593C72.8422 19.8112 72.1833 20.0088 71.0565 21.8404C70.4449 22.8345 69.5424 23.4925 68.2095 23.2332C66.8121 22.9614 66.4395 22.05 66.4815 20.7845C66.5006 20.2091 66.4994 19.633 66.5146 19.0573C66.6056 15.5959 62.0645 11.5564 58.8742 13.5213C59.0224 14.8735 59.2683 16.2451 59.3027 17.622C59.3657 20.1353 59.3035 22.6518 59.1266 25.3033C59.0355 25.4281 58.8854 25.5429 58.8625 25.6795C58.6747 26.7998 58.1957 27.5324 56.9127 27.3367C55.5228 27.1247 55.72 26.0259 55.6015 25.0565C55.4521 23.8335 55.2212 22.6207 54.9785 21.1385C54.8758 20.3194 54.7472 19.5027 54.6753 18.6809C54.4655 16.2793 54.4622 13.8037 52.1398 12.002C50.9572 10.7855 48.5404 10.3807 47.2685 11.2982C47.0474 11.4576 47.1973 12.1444 47.2852 12.7747C48.6257 13.7515 49.981 14.6873 50.186 16.5847C50.3605 18.2 49.183 20.3628 47.8471 20.6875C46.2738 21.0699 45.184 20.3831 44.5038 18.317C43.9393 16.6026 43.431 14.9271 41.4858 14.0079C39.9006 12.5032 37.1153 12.5676 34.5846 14.216C32.7674 14.9638 31.622 16.3783 30.8361 18.1319C30.5211 18.8347 30.5296 19.4634 31.59 19.8636C31.7785 20.1591 31.967 20.4545 32.1161 20.8203C32.1869 20.8851 32.2577 20.95 32.3646 21.0285C32.3646 21.0285 32.38 21.0642 32.3509 21.3417C32.3277 21.8634 32.3717 22.4001 32.2621 22.9025C32.1554 23.3919 31.9927 23.9357 31.6785 24.2999C30.5346 25.6257 28.7589 25.1856 27.962 23.4969C27.6839 22.9077 27.8213 21.5491 26.2611 22.4148C25.9982 22.4844 25.7354 22.554 25.3775 22.4801C24.8917 22.5953 24.2767 22.559 23.9423 22.8516C22.4081 24.1935 21.6011 25.9458 21.5021 28.2153C23.1426 28.763 24.7831 29.3106 26.4369 29.857C26.4369 29.857 26.4371 29.8705 26.4521 30.1233C26.8912 32.9409 26.5558 33.337 23.7212 33.3443C22.7384 33.3469 21.7484 33.2767 20.7756 33.3772C20.2665 33.4298 19.7873 33.7801 19.1173 34.0424C15.5636 34.6077 13.5329 40.2991 14.6008 43.6679C15.0351 45.7442 15.5319 47.7812 17.7072 48.7638C17.7072 48.7638 17.7134 48.7553 17.7588 48.8913C17.9466 48.965 18.1345 49.0387 18.5229 49.1539C18.7759 49.2376 19.0289 49.3212 19.2813 49.5775C19.7453 49.8203 20.2035 50.2585 20.6745 50.2732C23.0942 50.3486 25.5181 50.3499 27.9382 50.2872C28.3682 50.2761 28.7876 49.8408 29.4916 49.6339C31.1721 49.9932 32.8252 49.3008 34.5584 49.6201C35.9557 49.8776 36.9324 50.4184 37.2508 51.6979C37.5903 53.0619 36.492 53.6933 35.2462 54.073C35.0554 54.0004 34.8632 53.8609 34.674 53.865C30.3273 53.9596 25.9808 54.0634 21.635 54.1917C21.3506 54.2001 21.0723 54.4182 20.7314 54.6465C20.6696 54.7553 20.6077 54.8641 20.2952 55.0301C19.4627 55.0706 18.511 54.9544 18.5653 56.4886C18.2956 57.8061 18.8388 58.7485 19.8851 59.4619C19.8851 59.4619 19.8918 59.4467 19.9599 59.6145C20.0822 59.7442 20.2045 59.8739 20.2876 60.0261C20.2876 60.0261 20.2655 59.9863 20.3604 60.1194ZM74.7488 43.8527L74.6826 43.9014C74.6826 43.9014 74.7586 43.8865 74.7488 43.8527Z" fill="#A158CA"/>
<path d="M67.8319 84.3146C67.0902 81.5433 66.4253 78.7779 65.8386 75.9955C65.7327 75.4933 65.9484 74.9216 66.2002 74.3216C66.4574 74.2711 66.5301 74.281 66.6027 74.2908C66.975 76.4093 67.3421 78.5287 67.7217 80.6457C67.9297 81.8059 68.159 82.9621 68.3642 84.2173C68.2116 84.3146 68.0736 84.3146 67.8319 84.3146Z" fill="#341B68"/>
<path d="M26.1646 67.4258C26.6203 67.2015 27.1466 66.9534 27.6751 66.9484C30.0492 66.9258 32.4273 67.0623 34.7974 66.9697C37.4039 66.8678 39.7234 65.9283 41.62 64.0369C42.0186 63.6393 42.4969 63.3236 43.0379 62.9391C42.5968 64.7774 41.0425 65.6544 39.5431 66.5109C38.7685 66.9534 37.8224 67.088 36.6855 67.3359C33.8952 67.3217 31.3732 67.3333 28.8513 67.3449C27.9796 67.4013 27.1078 67.4576 26.1646 67.4258Z" fill="#3A1E6A"/>
<path d="M88.996 47.5019C88.9908 46.2184 89.0324 44.862 89.1738 43.5163C89.5066 40.351 88.3828 37.5706 87.0103 34.7291C87.8762 36.2691 88.998 37.8394 89.5889 39.5931C90.4674 42.2003 90.2046 44.8816 88.996 47.5019Z" fill="#391F6B"/>
<path d="M46.5391 71.9169C48.4907 72.3679 50.4949 72.8215 52.4128 73.5186C54.1866 74.1634 55.5148 75.4419 56.253 77.3202C55.3375 76.6213 54.5412 75.6878 53.5455 75.102C52.5858 74.5374 51.4419 74.2253 50.3396 73.9948C48.874 73.6883 47.4456 73.4177 46.5391 71.9169Z" fill="#351C6C"/>
<path d="M13.9839 55.1616C14.1908 55.3445 14.5093 55.6283 14.5394 55.9406C14.8767 59.4437 16.5061 62.2026 19.164 64.3982C19.3135 64.5217 19.3879 64.7383 19.5348 65.009C18.4413 64.2053 17.1611 63.4401 16.2114 62.3732C14.4474 60.3914 14.0971 57.844 13.9839 55.1616Z" fill="#3D236E"/>
<path d="M82.77 64.774C82.8456 64.1005 83.0195 63.401 83.2071 62.7051C83.7464 60.7043 84.2867 58.7038 84.8378 56.7063C84.9464 56.3128 85.1049 55.9334 85.3174 55.4614C85.1463 57.3071 85.053 59.2775 84.5958 61.1572C84.2885 62.4211 83.4664 63.5567 82.77 64.774Z" fill="#341B68"/>
<path d="M66.6901 74.2337C66.5298 74.281 66.4571 74.2711 66.2754 74.2457C66.6313 73.779 67.0289 73.0651 67.5728 72.9221C69.8324 72.3284 72.1361 71.9069 74.5191 71.4528C73.1654 72.0846 71.7374 72.7476 70.2602 73.2673C69.1317 73.6644 67.9409 73.8801 66.6901 74.2337Z" fill="#371C6B"/>
<path d="M18.8536 22.7078C18.5046 24.8079 18.0588 26.9593 17.5243 29.1857C16.4553 26.7974 17.3548 24.7259 18.8536 22.7078Z" fill="#3A2272"/>
<path d="M10.5724 43.7293C11.3093 45.9834 12.0461 48.2376 12.7503 50.5775C11.9385 48.9942 11.1236 47.3406 10.401 45.6467C10.1692 45.1034 10.1815 44.4534 10.2264 43.7804C10.4379 43.7154 10.5052 43.7223 10.5724 43.7293Z" fill="#3B2372"/>
<path d="M76.6679 16.8719C74.6706 16.506 72.6102 16.1094 70.6039 15.523C70.166 15.395 69.9211 14.5895 69.666 13.9686C69.808 13.8339 69.8713 13.8267 69.9346 13.8195C70.4747 14.6103 71.1041 15.016 72.1526 15.192C73.6873 15.4496 75.1379 16.2207 76.6679 16.8719Z" fill="#351C6C"/>
<path d="M83.6826 26.6806C82.784 24.8255 81.9614 22.8962 81.1382 20.8433C82.3106 22.5452 83.7805 24.2353 83.6826 26.6806Z" fill="#321866"/>
<path d="M10.5725 43.5852C10.5054 43.7224 10.4381 43.7155 10.2703 43.6961C9.98356 41.6357 9.8071 39.5921 10.7177 37.6416C11.0271 36.9789 11.2775 36.288 11.6335 35.574C11.6929 35.9835 11.7161 36.4359 11.6472 36.8735C11.3022 39.0648 10.933 41.2523 10.5725 43.5852Z" fill="#351C6C"/>
<path d="M86.6287 33.8896C84.061 32.5721 83.5399 31.644 83.9069 29.0103C84.4961 30.7059 85.0521 32.5414 86.6287 33.8896Z" fill="#3D236E"/>
<path d="M46.0718 59.4871C46.2735 59.3003 46.5526 58.9158 46.8287 58.918C49.9911 58.9426 53.153 59.026 56.282 59.1391C54.1423 59.174 52.0351 59.1297 49.9292 59.1658C48.718 59.1866 47.509 59.3377 46.2989 59.4301C46.2485 59.4431 46.1981 59.4561 46.0718 59.4871Z" fill="#2B1169"/>
<path d="M36.3329 9.42636C34.5393 10.1431 32.7458 10.8598 30.8442 11.5992C32.0746 10.772 33.4074 9.91306 34.7563 9.08059C35.0069 8.92592 35.3216 8.87786 35.7335 8.85156C36.0177 9.09047 36.1753 9.25842 36.3329 9.42636Z" fill="#311969"/>
<path d="M46.4429 59.4549C47.5091 59.3377 48.7181 59.1866 49.9294 59.1659C52.0352 59.1297 54.1425 59.174 56.3933 59.2054C56.5318 59.2821 56.5262 59.3382 56.5272 59.4786C53.2181 59.5351 49.9024 59.5074 46.4429 59.4549Z" fill="#6E668A"/>
<path d="M28.9243 67.4558C31.3732 67.3333 33.8952 67.3217 36.565 67.3295C35.3967 67.5329 34.0839 67.8283 32.7635 67.8687C31.5123 67.907 30.2531 67.6781 28.9243 67.4558Z" fill="#70608F"/>
<path d="M36.4723 9.42813C36.1754 9.25842 36.0178 9.09048 35.8091 8.85327C37.1232 8.78703 38.4886 8.79005 39.9592 8.82141C38.9136 9.04314 37.7626 9.23651 36.4723 9.42813Z" fill="#3B2372"/>
<path d="M65.5064 9.648C64.1698 9.29026 62.7685 8.84197 61.2891 8.31921C62.6212 8.68232 64.0315 9.11989 65.5064 9.648Z" fill="#311969"/>
<path d="M50.5072 62.9673C49.5755 63.2717 48.51 63.5514 47.3174 63.8393C47.9822 62.5754 49.2226 62.9203 50.5072 62.9673Z" fill="#391F6B"/>
<path d="M30.6304 11.6233C30.0414 12.409 29.3374 13.1929 28.5352 14.0234C28.592 12.7857 29.2673 11.9542 30.6304 11.6233Z" fill="#391F6F"/>
<path d="M43.4985 7.88366C42.6172 8.20754 41.736 8.53141 40.7666 8.81191C41.5421 8.3658 42.4059 7.96306 43.3838 7.64819C43.4979 7.73606 43.4985 7.88366 43.4985 7.88366Z" fill="#3B2372"/>
<path d="M43.6156 7.8678C43.4985 7.88376 43.4979 7.73615 43.4971 7.66237C44.3514 7.26007 45.2065 6.93156 46.1794 6.63721C45.4423 7.06486 44.5876 7.45836 43.6156 7.8678Z" fill="#351C6C"/>
<path d="M56.0673 62.5403C55.6307 62.7103 55.0977 62.8768 54.4673 62.9909C54.9035 62.8046 55.4371 62.6706 56.0673 62.5403Z" fill="#391F6B"/>
<path d="M20.1045 20.7565C19.8289 21.3377 19.4758 21.9326 19.04 22.5883C19.3139 22.0228 19.6704 21.3965 20.1045 20.7565Z" fill="#3A2272"/>
<path d="M68.9821 12.4632C68.4873 12.12 67.9875 11.6661 67.4497 11.1173C67.9335 11.4657 68.4554 11.9091 68.9821 12.4632Z" fill="#311969"/>
<path d="M67.3748 10.9155C66.8273 10.6489 66.2464 10.2803 65.6138 9.8197C66.1552 10.0897 66.7483 10.4517 67.3748 10.9155Z" fill="#311969"/>
<path d="M27.5448 15.4274C27.3882 15.8002 27.1256 16.184 26.7607 16.5932C26.9186 16.2252 27.1788 15.8318 27.5448 15.4274Z" fill="#391F6F"/>
<path d="M69.9084 13.7252C69.8712 13.8267 69.8079 13.8339 69.6493 13.8511C69.366 13.5007 69.1781 13.1404 68.9849 12.6743C69.2805 12.9227 69.5814 13.2768 69.9084 13.7252Z" fill="#311969"/>
<path d="M59.2286 8.22046C58.8784 8.31185 58.4098 8.37654 57.8389 8.42623C58.1945 8.33873 58.6523 8.26625 59.2286 8.22046Z" fill="#311969"/>
<path d="M28.335 14.0708C28.2222 14.4496 28.0198 14.8737 27.7344 15.3569C27.8494 14.9827 28.0473 14.5494 28.335 14.0708Z" fill="#391F6F"/>
<path d="M20.7395 19.9178C20.6693 20.1499 20.5084 20.4122 20.2593 20.7134C20.3303 20.4842 20.4896 20.2162 20.7395 19.9178Z" fill="#3A2272"/>
<path d="M21.0644 19.5642C21.0835 19.6123 21.0347 19.6743 20.9352 19.7693C20.8901 19.7134 20.9273 19.6386 21.0644 19.5642Z" fill="#3A2272"/>
<path d="M76.9201 35.2169C76.8275 35.4276 76.6294 35.7191 76.4404 35.7132C75.0091 35.6689 73.5657 35.6631 72.153 35.4563C70.5439 35.2207 69.553 33.9505 69.6999 32.5874C69.878 30.9346 70.5726 30.4159 72.6326 30.5102C74.1218 30.5783 75.6081 30.8142 77.0944 30.803C77.9243 30.7968 78.7516 30.439 79.6972 30.2126C80.2034 31.5381 79.1225 31.4082 78.4582 31.4061C76.7669 31.4007 75.0763 31.2382 73.3846 31.1559C72.9238 31.1335 72.4584 31.1511 71.998 31.1881C70.9338 31.2735 70.2783 32.0012 70.4784 32.9377C70.6119 33.5623 71.373 34.2773 72.0093 34.5055C72.7907 34.7857 73.7421 34.5362 74.6063 34.6365C75.3538 34.7233 76.0821 34.979 76.9201 35.2169Z" fill="#391F6F"/>
<path d="M26.4449 29.9969C27.683 30.4442 27.7696 31.4164 27.3497 32.5701C26.9152 33.7638 26.107 34.3776 24.8194 34.3578C23.1624 34.3324 21.5047 34.3543 19.67 34.2826C19.4298 34.1354 19.3639 34.0642 19.2949 33.996C19.7876 33.7801 20.2667 33.4298 20.7759 33.3772C21.7487 33.2768 22.7387 33.3469 23.7215 33.3444C26.5561 33.337 26.8915 32.9409 26.4449 29.9969Z" fill="#3F2575"/>
<path d="M59.2102 25.2351C59.3476 26.2452 59.7144 27.5559 58.3678 28.0008C57.583 28.2601 56.3333 28.2894 55.8057 27.8249C55.155 27.2519 54.8405 26.0792 54.7403 25.1269C54.6198 23.9821 54.8777 22.7964 54.9987 21.516C55.2214 22.6207 55.4523 23.8335 55.6017 25.0565C55.7201 26.0259 55.5229 27.1247 56.9129 27.3367C58.1958 27.5324 58.6749 26.7998 58.8626 25.6795C58.8855 25.5429 59.0356 25.4281 59.2102 25.2351Z" fill="#422171"/>
<path d="M19.2063 34.0192C19.364 34.0642 19.4299 34.1353 19.5395 34.2658C15.653 36.3362 14.6482 39.4681 15.0822 43.2833C14.8409 43.4133 14.7134 43.4164 14.586 43.4194C13.5332 40.2991 15.564 34.6077 19.2063 34.0192Z" fill="#422574"/>
<path d="M32.3658 21.203C33.3871 22.8351 33.0365 24.7067 31.5479 25.5084C29.8051 26.447 28.0579 25.7029 27.2549 23.7016C27.0832 23.2736 26.8309 22.8787 26.5347 22.405C27.8217 21.5491 27.6843 22.9077 27.9624 23.497C28.7592 25.1856 30.535 25.6257 31.6789 24.2999C31.9931 23.9358 32.1558 23.3919 32.2625 22.9025C32.3721 22.4001 32.3281 21.8634 32.3658 21.203Z" fill="#351A6F"/>
<path d="M35.3514 54.1493C35.0195 54.2969 34.5823 54.3682 33.8821 54.4276C29.343 54.4568 25.067 54.4978 20.791 54.5388C21.0722 54.4183 21.3506 54.2002 21.635 54.1918C25.9807 54.0635 30.3273 53.9597 34.6739 53.8651C34.8631 53.861 35.0554 54.0004 35.3514 54.1493Z" fill="#3A2272"/>
<path d="M76.063 54.4943C77.4677 53.8667 78.8724 53.2391 80.3783 52.5924C79.4437 54.2292 77.7097 54.7804 76.0189 54.9148C73.1675 55.1415 70.2874 55.0043 67.4194 54.9954C67.1875 54.9946 66.9561 54.8032 66.7671 54.6469C69.8942 54.5604 72.9786 54.5273 76.063 54.4943Z" fill="#331A6E"/>
<path d="M20.7617 54.5926C25.0676 54.4978 29.3436 54.4567 33.7694 54.416C33.5439 54.5289 33.1695 54.7359 32.7933 54.7392C29.8158 54.7651 26.8379 54.7319 23.8605 54.7625C22.8428 54.7729 21.8264 54.9136 20.6779 54.9838C20.6082 54.8641 20.6701 54.7553 20.7617 54.5926Z" fill="#746393"/>
<path d="M41.5205 14.1112C39.3589 13.7181 37.1815 13.6351 34.9279 14.4513C34.8042 14.311 34.8005 14.2368 34.7969 14.1625C37.1154 12.5677 39.9006 12.5033 41.5205 14.1112Z" fill="#391E72"/>
<path d="M79.5319 44.1022C79.6109 46.2582 77.3818 50.0663 75.6113 50.6483C76.8163 48.4873 78.1356 46.3344 79.5319 44.1022Z" fill="#3B2372"/>
<path d="M26.7696 49.6927C27.5562 49.6224 28.3428 49.552 29.1707 49.5416C28.7877 49.8408 28.3684 50.276 27.9383 50.2872C25.5182 50.3499 23.0943 50.3486 20.6747 50.2732C20.2036 50.2585 19.7455 49.8203 19.2817 49.4912C19.6391 49.4265 19.9961 49.4482 20.5383 49.6195C22.7388 49.7437 24.7542 49.7182 26.7696 49.6927Z" fill="#391E72"/>
<path d="M52.1701 12.1058C50.5386 11.8479 48.8694 11.2179 47.2129 12.4699C47.1974 12.1444 47.0476 11.4577 47.2686 11.2982C48.5405 10.3807 50.9573 10.7855 52.1701 12.1058Z" fill="#3E2679"/>
<path d="M55.3866 54.461C57.6066 54.608 59.1612 53.1402 60.9018 52.1266C61.4211 51.8242 61.9288 51.5014 62.5502 51.1677C60.8865 53.1338 58.9 54.7498 55.9378 54.977C55.5812 54.8577 55.4218 54.7837 55.2949 54.6482C55.3274 54.5868 55.3866 54.461 55.3866 54.461Z" fill="#391F6F"/>
<path d="M25.4253 22.5519C23.423 23.7134 22.4528 25.5309 21.9715 27.88C21.7133 27.9984 21.579 27.9983 21.4448 27.9982C21.6013 25.9458 22.4083 24.1936 23.9425 22.8516C24.277 22.5591 24.892 22.5953 25.4253 22.5519Z" fill="#3B2372"/>
<path d="M64.5653 46.0188C63.7434 44.6088 63.8738 43.103 64.8729 42.4658C66.2727 41.573 68.0089 42.234 69.0617 44.1678C68.787 44.1263 68.3633 44.0467 68.2367 43.8065C67.6494 42.6924 66.5828 42.4877 65.7427 42.9526C65.2138 43.2452 65.1271 44.3574 64.826 45.2923C64.7283 45.6614 64.6468 45.8401 64.5653 46.0188Z" fill="#3D236E"/>
<path d="M34.6909 14.1892C34.8006 14.2367 34.8042 14.3109 34.8125 14.4969C33.3512 15.9879 31.2373 16.9086 31.4451 19.5997C30.5297 19.4633 30.5212 18.8346 30.8362 18.1318C31.6221 16.3783 32.7675 14.9637 34.6909 14.1892Z" fill="#351A6F"/>
<path d="M79.9014 29.5116C79.6081 27.1405 78.3245 25.1668 77.1152 23.0555C79.0458 24.1657 80.5613 27.6279 79.9014 29.5116Z" fill="#391F6F"/>
<path d="M32.7114 63.3784C34.9351 63.4358 36.9341 62.6157 38.8543 61.2307C38.7594 61.5832 38.6776 62.1267 38.3709 62.3429C36.6884 63.5287 34.8725 64.2203 32.7114 63.3784Z" fill="#3A2271"/>
<path d="M75.9373 54.4805C72.9785 54.5274 69.894 54.5604 66.6699 54.5597C66.5196 54.4281 66.5093 54.3302 66.4976 54.1577C69.6012 54.211 72.7065 54.3389 75.9373 54.4805Z" fill="#6D5F8A"/>
<path d="M84.6382 47.155C84.8384 46.0223 85.3096 44.8527 85.3788 43.6591C85.4388 42.6239 85.0434 41.5616 84.8899 40.3177C84.9958 39.9644 85.0611 39.8046 85.1264 39.6448C86.2022 42.1973 86.5221 44.7092 84.6382 47.155Z" fill="#321866"/>
<path d="M14.5933 43.5436C14.7131 43.4163 14.8406 43.4133 15.0635 43.4091C15.9845 45.1263 16.8101 46.8448 17.676 48.6613C15.532 47.7812 15.0352 45.7442 14.5933 43.5436Z" fill="#391F6F"/>
<path d="M55.2625 54.7096C55.4218 54.7837 55.5812 54.8577 55.8124 54.9812C52.5861 55.0375 49.2879 55.0444 45.9429 54.9669C49.0182 54.8248 52.1403 54.7672 55.2625 54.7096Z" fill="#2B1169"/>
<path d="M55.2953 54.6482C52.1407 54.7673 49.0185 54.8249 45.7997 54.9665C45.6357 55.0495 45.5685 55.0485 45.4009 55.0383C45.7372 54.8129 46.1714 54.4165 46.6111 54.4101C49.4324 54.3693 52.255 54.4141 55.232 54.4459C55.387 54.461 55.3279 54.5868 55.2953 54.6482Z" fill="#726387"/>
<path d="M64.5132 46.1154C64.6468 45.8401 64.7283 45.6614 64.8611 45.3997C65.0517 45.9656 65.1547 46.6255 65.3388 47.2612C65.6411 48.305 65.3613 49.0649 64.2785 49.5782C64.2655 48.476 64.3633 47.344 64.5132 46.1154Z" fill="#391F6F"/>
<path d="M74.2985 51.2939C72.9137 51.4832 71.5308 51.6878 70.1435 51.8551C69.5194 51.9303 68.8865 51.931 68.1708 51.8986C68.1023 51.7594 68.1206 51.6871 68.1388 51.6148C68.199 51.5889 68.2525 51.5527 68.4285 51.4327C68.6903 51.3179 68.8228 51.2766 68.9553 51.2354C69.2023 51.2422 69.4493 51.2491 69.96 51.2572C71.582 51.2702 72.9402 51.282 74.2985 51.2939Z" fill="#675C8C"/>
<path d="M85.1149 39.5287C85.0609 39.8046 84.9956 39.9644 84.8821 40.1963C84.1297 39.0776 83.4256 37.8869 82.667 36.6036C84.2755 36.7452 84.6842 38.0836 85.1149 39.5287Z" fill="#3D236E"/>
<path d="M21.4736 28.1067C21.5791 27.9982 21.7133 27.9983 21.9483 27.998C22.4197 28.1957 22.774 28.4393 23.1643 28.5828C24.2064 28.9658 25.2638 29.3057 26.3696 29.7604C24.7834 29.3105 23.1429 28.7629 21.4736 28.1067Z" fill="#3F2575"/>
<path d="M74.2865 51.2886C72.9403 51.2821 71.5821 51.2703 70.0835 51.2505C71.2906 51.049 72.638 50.8555 74.1227 50.7701C74.2611 51.0214 74.2624 51.1644 74.2637 51.3075C74.2637 51.3075 74.2745 51.2832 74.2865 51.2886Z" fill="#3F2575"/>
<path d="M27.123 59.4047C27.5323 57.6988 28.329 57.3876 30.524 58.2052C29.4571 58.6415 28.3348 58.994 27.123 59.4047Z" fill="#351C6C"/>
<path d="M75.2822 41.7987C76.2243 40.5774 77.2935 40.5227 78.8422 41.7371C77.7243 41.8231 76.5662 41.802 75.2822 41.7987Z" fill="#351A6F"/>
<path d="M18.6185 56.3934C19.0782 57.2726 19.4849 58.2468 19.8953 59.3368C18.839 58.7486 18.2958 57.8061 18.6185 56.3934Z" fill="#3A2271"/>
<path d="M39.1191 61.1918C39.562 60.4929 40.1116 59.776 40.7462 59.0223C40.2961 59.715 39.761 60.4444 39.1191 61.1918Z" fill="#3D236E"/>
<path d="M31.2712 61.6497C31.436 62.0778 31.5232 62.5014 31.6689 63.0163C31.4085 63.0519 31.0897 62.9963 30.771 62.9407C30.9119 62.5089 31.0527 62.077 31.2712 61.6497Z" fill="#3A2271"/>
<path d="M24.3115 62.3394C24.9081 62.0798 25.5584 61.9129 26.3126 61.8073C26.4143 62.0089 26.4123 62.1493 26.4102 62.2897C25.7682 62.9204 25.1017 63.1899 24.3115 62.3394Z" fill="#3A2272"/>
<path d="M68.0276 51.64C68.1207 51.6871 68.1025 51.7594 68.0496 51.9388C67.5661 52.5011 67.1173 52.9562 66.5061 53.468C66.3438 53.5247 66.1997 53.5608 66.1997 53.5608C66.7719 52.9289 67.344 52.297 68.0276 51.64Z" fill="#3F2575"/>
<path d="M62.7231 51.142C63.0767 50.6469 63.5356 50.1284 64.1011 49.5883C63.748 50.084 63.2883 50.6013 62.7231 51.142Z" fill="#391F6F"/>
<path d="M41.7793 57.5471C42.1211 57.0959 42.5584 56.6114 43.0944 56.0913C42.7536 56.5418 42.3142 57.0278 41.7793 57.5471Z" fill="#3D236E"/>
<path d="M30.6436 58.4475C30.9723 58.7728 31.2941 59.2133 31.5542 59.7201C31.2072 59.3785 30.9219 58.9706 30.6436 58.4475Z" fill="#351C6C"/>
<path d="M74.381 51.3074C74.2622 51.1644 74.2609 51.0214 74.2625 50.7713C74.5145 50.6587 74.7636 50.6532 75.1368 50.6611C75.0067 50.8854 74.7526 51.0964 74.381 51.3074Z" fill="#675C8C"/>
<path d="M40.9473 58.9931C41.0382 58.6668 41.2217 58.2924 41.5173 57.9059C41.4329 58.2442 41.2364 58.5946 40.9473 58.9931Z" fill="#3D236E"/>
<path d="M74.6626 42.7444C74.7121 42.5004 74.8467 42.2045 75.0694 41.8618C75.0209 42.1075 74.8843 42.4 74.6626 42.7444Z" fill="#351A6F"/>
<path d="M21.1831 60.7843C21.4147 60.8541 21.69 61.0135 22.0083 61.2622C21.7764 61.1923 21.5016 61.0331 21.1831 60.7843Z" fill="#3A2272"/>
<path d="M26.7871 60.692C26.7593 60.5422 26.7969 60.3641 26.909 60.1327C26.9399 60.2742 26.8962 60.4689 26.7871 60.692Z" fill="#351C6C"/>
<path d="M74.7515 43.8695C74.7563 43.8858 74.6826 43.9002 74.6826 43.9002C74.6826 43.9002 74.7468 43.8532 74.7515 43.8695Z" fill="#351A6F"/>
<path d="M17.7363 48.8232C17.8675 48.8414 18.0213 48.9275 18.2488 49.063C18.1347 49.0386 17.9469 48.9649 17.7363 48.8232Z" fill="#391F6F"/>
<path d="M68.9232 51.1863C68.8227 51.2766 68.6901 51.3179 68.459 51.3947C68.5373 51.3326 68.7142 51.2349 68.9232 51.1863Z" fill="#3F2575"/>
<path d="M20.644 60.3372C20.7507 60.3509 20.9077 60.4419 21.1069 60.6183C20.9975 60.6073 20.846 60.5108 20.644 60.3372Z" fill="#3A2271"/>
<path d="M26.4577 62.2116C26.4123 62.1492 26.4144 62.0088 26.4185 61.7631C26.4206 61.6578 26.5413 61.62 26.6041 61.6165C26.613 61.7864 26.5591 61.96 26.4577 62.2116Z" fill="#351C6C"/>
<path d="M22.7573 61.7102C22.8663 61.7035 23.0513 61.75 23.2955 61.8737C23.1809 61.8883 23.0071 61.8259 22.7573 61.7102Z" fill="#3A2272"/>
<path d="M32.1362 20.7851C32.2256 20.7827 32.2742 20.8355 32.3153 20.9615C32.2582 20.95 32.1874 20.8852 32.1362 20.7851Z" fill="#351A6F"/>
<path d="M22.1284 61.4112C22.2353 61.4049 22.4118 61.4519 22.6362 61.579C22.5221 61.5943 22.3601 61.5294 22.1284 61.4112Z" fill="#3A2272"/>
<path d="M66.2156 53.6421C66.1994 53.5608 66.3434 53.5247 66.4166 53.5126C66.4939 53.6376 66.4981 53.7748 66.5057 54.0151C66.4166 53.9866 66.3242 53.8549 66.2156 53.6421Z" fill="#6D5F8A"/>
<path d="M19.9263 59.5305C20.0263 59.5702 20.1604 59.6937 20.3109 59.9104C20.2049 59.8738 20.0826 59.7441 19.9263 59.5305Z" fill="#3A2271"/>
<path d="M23.9829 62.0823C24.0394 62.018 24.1301 62.0518 24.236 62.2086C24.188 62.2345 24.1101 62.1842 23.9829 62.0823Z" fill="#3A2272"/>
<path d="M26.7267 60.9484C26.6888 60.9413 26.6521 60.8586 26.6677 60.749C26.72 60.7221 26.728 60.8729 26.7267 60.9484Z" fill="#351C6C"/>
<path d="M20.3135 60.0528C20.3687 60.0398 20.4714 60.0935 20.5922 60.2373C20.5271 60.2581 20.444 60.1887 20.3135 60.0528Z" fill="#3A2271"/>
<path d="M27.0304 59.7071C26.972 59.7332 26.914 59.6822 26.8707 59.6206C26.8619 59.608 26.908 59.5558 26.9808 59.493C27.0339 59.5183 27.035 59.5723 27.0304 59.7071Z" fill="#351C6C"/>
<path d="M76.9613 22.6748C76.9188 22.6775 76.8151 22.6133 76.6606 22.4709C76.7066 22.4644 76.8033 22.5361 76.9613 22.6748Z" fill="#391F6F"/>
<path d="M74.3407 43.0395C74.2955 42.9749 74.3452 42.8982 74.5038 42.8256C74.5216 42.8768 74.4626 42.9428 74.3407 43.0395Z" fill="#351A6F"/>
<path d="M18.6432 54.7425C18.6432 54.7425 18.6229 54.7527 18.6324 54.747C18.6419 54.7413 18.6432 54.7425 18.6432 54.7425Z" fill="#3A2271"/>
<path d="M18.6401 54.7434C18.6396 54.7424 18.6603 54.7303 18.6512 54.738C18.6421 54.7458 18.6407 54.7444 18.6401 54.7434Z" fill="#3A2271"/>
<path d="M40.6512 29.8945C40.3549 31.0409 39.8708 32.1761 39.8032 33.3362C39.6811 35.433 38.7682 36.8481 36.6983 37.7431C34.4598 38.9254 32.4355 40.0595 30.3025 41.2142C29.5579 41.8569 28.7876 42.3905 28.3181 43.1221C27.6435 44.1735 26.8968 44.673 25.6552 44.3114C25.1743 44.1713 24.6527 44.1743 24.1497 44.1121C24.0662 44.0755 23.9915 44.0254 23.901 43.7835C23.8931 43.4417 23.9098 43.2784 23.9171 42.9984C24.0146 41.7991 24.1214 40.7165 24.2283 39.6338C24.2283 39.6338 24.2328 39.6413 24.3424 39.6152C27.4321 38.2165 30.4717 36.9576 33.3592 35.4082C34.3399 34.882 34.9373 33.623 35.7107 32.5923C35.619 32.1499 35.5264 31.8141 35.4029 31.4641C35.3721 31.45 35.3051 31.4411 35.3051 31.4411C35.3538 31.3106 35.4026 31.1802 35.5597 30.8883C35.8526 30.4194 36.1094 30.134 36.2085 29.8005C36.5385 28.6894 37.2149 27.7722 38.3535 27.9445C39.0303 28.0469 39.5921 28.935 40.2033 29.4725C40.3572 29.6079 40.5022 29.7536 40.6512 29.8945Z" fill="#A158CA"/>
<path d="M57.6294 39.014C56.9007 39.7513 56.1028 40.4324 55.4627 41.2416C54.8145 42.0611 54.3223 43.0072 53.6294 44.0589C52.8435 44.3021 52.19 44.3841 51.5432 44.3223C51.5989 43.0242 51.7024 41.9016 50.0589 41.7059C49.685 41.6613 49.3903 40.9353 49.0674 40.4133C49.4961 39.6795 49.9166 39.0554 50.3372 38.4313C51.3607 37.7405 52.385 37.051 53.4071 36.358C53.6525 36.1916 53.8902 36.0136 54.3214 35.8607C55.3499 35.4408 56.2405 35.079 57.0163 34.5459C58.7513 33.3534 60.429 32.0756 62.2437 30.8591C63.1104 31.0768 63.8635 31.2679 64.6546 31.4741C64.6927 31.4893 64.8129 31.4962 64.8129 31.4962C64.8129 31.4962 64.9282 31.4584 64.9299 31.4589C64.9316 31.4594 64.9315 31.4554 65.0466 31.4587C65.3153 31.4653 65.4689 31.4688 65.6225 31.4722C64.738 32.3847 63.8535 33.2972 62.8167 34.156C62.4353 34.0855 62.1123 33.9607 61.9913 34.0685C60.5681 35.3358 59.1553 36.6172 57.7959 37.9533C57.5928 38.1529 57.6777 38.653 57.6294 39.014Z" fill="#DE3B33"/>
<path d="M51.5365 44.4662C52.19 44.3842 52.8434 44.3021 53.5824 44.1558C54.1776 45.9902 53.0128 48.3934 50.6812 49.8589C50.0883 49.7276 49.6455 49.5625 49.2249 49.6078C46.1782 49.9358 44.317 48.887 42.9956 46.0817C42.8046 45.6763 42.4815 45.3349 42.2195 44.9638C42.2328 44.7288 42.2461 44.4937 42.3259 44.0439C42.3281 43.2688 42.2636 42.7085 42.1992 42.1482C43.2366 39.7221 44.8358 38.0049 47.686 37.8813C46.6072 39.2591 46.4824 40.8001 46.503 42.4859C45.6658 44.0378 45.8833 45.2847 47.0529 45.9436C48.3878 46.6955 49.2751 46.0079 50.0995 44.8769C50.6399 44.7124 51.0882 44.5893 51.5365 44.4662Z" fill="#A158CA"/>
<path d="M64.6168 31.459C63.8637 31.2679 63.1106 31.0769 62.3018 30.776C62.5205 30.2085 62.795 29.7508 63.0694 29.2931C64.0204 28.4667 64.9135 27.5514 65.9516 26.859C66.3513 26.5923 67.0807 26.8325 67.6738 27.0313C67.2833 28.0623 66.9491 28.9494 66.4527 29.7308C66.0459 30.371 65.4459 30.8853 64.9316 31.4554C64.9316 31.4554 64.9317 31.4595 64.8522 31.4586C64.7206 31.4581 64.6687 31.4586 64.6168 31.459Z" fill="#D63939"/>
<path d="M35.7099 32.6989C34.9374 33.623 34.34 34.882 33.3593 35.4082C30.4718 36.9576 27.4322 38.2165 24.3389 39.6127C25.3768 38.9803 26.5224 38.3139 27.6807 37.671C29.7318 36.5326 31.8766 35.5367 33.801 34.2114C34.5081 33.7245 34.7019 32.4731 35.2175 31.5058C35.3052 31.4411 35.3722 31.45 35.4066 31.5706C35.5306 32.0271 35.6203 32.363 35.7099 32.6989Z" fill="#371E70"/>
<path d="M46.5937 42.4058C46.4826 40.8001 46.6074 39.2591 47.8081 37.9016C48.6073 37.9713 49.3696 38.1425 50.2346 38.3725C49.9168 39.0555 49.4962 39.6796 48.9814 40.4641C48.5224 41.0123 48.1578 41.4 47.7138 41.8462C47.2876 42.0717 46.9407 42.2387 46.5937 42.4058Z" fill="#8349A4"/>
<path d="M62.9609 29.2965C62.7948 29.7509 62.5203 30.2086 62.188 30.7495C60.429 32.0757 58.7512 33.3535 57.0162 34.546C56.2405 35.0792 55.3499 35.4409 54.4316 35.838C57.1855 33.6303 60.019 31.465 62.9609 29.2965Z" fill="#E02F23"/>
<path d="M42.1699 45.0464C42.4815 45.3349 42.8046 45.6764 42.9956 46.0817C44.317 48.887 46.1782 49.9359 49.2249 49.6079C49.6456 49.5626 50.0883 49.7276 50.5798 49.8833C47.1857 51.2388 42.9236 49.8624 42.1699 45.0464Z" fill="#3A1B70"/>
<path d="M24.2026 44.2113C24.6527 44.1743 25.1743 44.1714 25.6552 44.3114C26.8968 44.673 27.6434 44.1735 28.3181 43.1221C28.7876 42.3905 29.5579 41.8569 30.3111 41.2903C30.4284 41.3457 30.4424 41.4978 30.4424 41.4978C30.0412 41.9538 29.509 42.3468 29.2609 42.8763C28.0332 45.4965 26.7144 45.8993 24.2026 44.2113Z" fill="#3F2575"/>
<path d="M40.6735 29.7711C40.5026 29.7535 40.3577 29.6078 40.2038 29.4725C39.5926 28.9349 39.0308 28.0468 38.3539 27.9444C37.2154 27.7722 36.539 28.6893 36.209 29.8004C36.1099 30.1339 35.8531 30.4194 35.5843 30.7863C35.5312 28.4163 36.2276 27.5184 38.2153 27.3445C39.8883 27.1981 40.6019 27.8609 40.6735 29.7711Z" fill="#351A6F"/>
<path d="M57.7064 38.96C57.6775 38.653 57.5926 38.153 57.7957 37.9534C59.1551 36.6172 60.5679 35.3359 61.9911 34.0686C62.1121 33.9608 62.4351 34.0855 62.7099 34.1689C61.0982 35.7923 59.4409 37.3491 57.7064 38.96Z" fill="#E33327"/>
<path d="M30.5557 41.4986C30.4426 41.4978 30.4286 41.3457 30.4199 41.2696C32.4356 40.0595 34.46 38.9253 36.6033 37.7893C34.7045 39.0247 32.6866 40.262 30.5557 41.4986Z" fill="#3A2271"/>
<path d="M65.0469 31.4587C65.4461 30.8853 66.0461 30.3711 66.4528 29.7309C66.9493 28.9494 67.2835 28.0623 67.7283 27.134C68.6245 28.3143 68.4343 29.2493 67.0905 30.3543C66.6668 30.7027 66.2355 31.0418 65.7153 31.4286C65.4692 31.4688 65.3156 31.4654 65.0469 31.4587Z" fill="#D62D2B"/>
<path d="M26.687 49.5882C24.7545 49.7183 22.7391 49.7438 20.6089 49.7054C22.5308 49.589 24.5674 49.5363 26.687 49.5882Z" fill="#6D5E93"/>
<path d="M24.143 39.6652C24.1217 40.7165 24.0149 41.7991 23.8497 42.934C23.5394 42.8133 23.2875 42.6404 23.0356 42.4674C23.3762 41.5438 23.7168 40.6201 24.143 39.6652Z" fill="#371E70"/>
<path d="M42.1216 42.2238C42.2639 42.7086 42.3283 43.2689 42.3452 43.9278C42.2129 43.4507 42.1283 42.8749 42.1216 42.2238Z" fill="#3A1B70"/>
<path d="M23.0366 42.5717C23.2874 42.6404 23.5392 42.8134 23.8589 43.0507C23.9099 43.2784 23.8933 43.4417 23.8626 43.7275C23.5784 43.4586 23.3081 43.0672 23.0366 42.5717Z" fill="#3F2575"/>
<path d="M35.711 32.5923C35.6204 32.363 35.5307 32.0271 35.4375 31.5847C35.5266 31.8141 35.6192 32.1499 35.711 32.5923Z" fill="#351A6F"/>
<path d="M47.793 41.7877C48.1576 41.4 48.5222 41.0123 48.973 40.5737C49.3903 40.9353 49.685 41.6614 50.0588 41.7059C51.7024 41.9017 51.5989 43.0242 51.5431 44.3223C51.0882 44.5893 50.6399 44.7125 50.1132 44.7624C49.6852 43.407 49.3482 42.1148 47.793 41.7877Z" fill="#D23532"/>
<path d="M64.6548 31.4742C64.6687 31.4586 64.7206 31.4582 64.8505 31.4581C64.9284 31.4585 64.8131 31.4963 64.8131 31.4963C64.8131 31.4963 64.6928 31.4893 64.6548 31.4742Z" fill="#D62D2B"/>
<path d="M47.7137 41.8462C49.3483 42.1148 49.6853 43.407 50.0211 44.8037C49.2752 46.0079 48.3879 46.6956 47.053 45.9436C45.8833 45.2847 45.6659 44.0378 46.5031 42.4859C46.9406 42.2387 47.2875 42.0717 47.7137 41.8462Z" fill="#030203"/>
</g>
<defs>
<clipPath id="clip0_236_367">
<rect width="96" height="84" fill="white"/>
</clipPath>
</defs>
</svg>
